{"glyphs":{"0":{"ha":846,"x_min":61,"x_max":785,"o":"m 423 733 q 567 704 500 733 q 682 623 633 674 q 757 504 730 572 q 785 358 785 435 q 757 212 785 280 q 682 92 730 143 q 567 12 633 41 q 423 -18 500 -18 q 279 12 345 -18 q 164 92 213 41 q 89 212 116 143 q 61 358 61 280 q 89 504 61 435 q 164 623 116 572 q 279 704 213 674 q 423 733 345 733 m 423 626 q 326 605 370 626 q 248 548 281 585 q 197 463 216 512 q 179 358 179 414 q 197 253 179 302 q 248 167 216 203 q 326 110 281 131 q 423 90 370 90 q 521 110 476 90 q 598 167 566 131 q 648 253 630 203 q 667 358 667 302 q 648 463 667 414 q 598 548 630 512 q 521 605 566 585 q 423 626 476 626 z "},"1":{"ha":515,"x_min":61,"x_max":363,"o":"m 61 626 l 304 734 l 363 705 l 363 0 l 245 0 l 245 593 l 102 532 l 61 626 z "},"2":{"ha":646,"x_min":75,"x_max":578,"o":"m 87 672 q 340 734 210 734 q 432 723 390 734 q 507 688 473 712 q 559 624 541 665 q 578 530 578 584 q 568 453 578 486 q 484 353 549 393 q 342 286 452 333 q 339 284 341 285 q 336 282 337 283 q 332 281 334 282 q 282 258 293 264 q 246 236 271 253 q 214 204 221 219 q 199 163 207 189 q 191 102 191 136 l 565 102 l 565 0 l 75 0 l 75 95 q 87 188 75 146 q 118 257 99 229 q 171 310 137 286 q 239 352 205 335 q 323 389 273 368 q 382 414 362 404 q 422 439 401 423 q 452 476 444 455 q 460 526 460 497 q 425 610 460 584 q 328 637 389 637 q 124 585 231 637 l 87 672 z "},"3":{"ha":663,"x_min":61,"x_max":602,"o":"m 376 611 l 269 611 q 172 616 208 611 q 73 642 117 625 l 112 739 q 202 715 159 720 q 341 709 245 709 l 520 709 l 520 632 l 348 419 q 442 410 399 423 q 514 373 485 397 q 563 314 543 348 q 592 242 583 280 q 602 165 602 205 q 315 -148 602 -63 q 61 -186 198 -182 l 61 -81 q 266 -52 187 -73 q 426 30 368 -23 q 484 171 484 83 q 442 287 484 247 q 328 327 400 327 q 222 306 279 327 l 189 370 l 376 611 z "},"4":{"ha":766,"x_min":47,"x_max":718,"o":"m 349 734 l 461 710 q 398 513 451 618 l 192 102 l 477 102 l 477 289 l 591 289 l 591 102 l 718 102 l 718 0 l 591 0 l 591 -186 l 477 -186 l 477 0 l 75 0 l 47 84 l 270 524 q 322 634 308 599 q 349 734 336 670 z "},"5":{"ha":663,"x_min":61,"x_max":602,"o":"m 61 -186 l 61 -82 q 266 -52 187 -74 q 426 29 368 -24 q 484 171 484 82 q 440 288 484 247 q 327 327 399 327 q 170 289 250 327 l 111 330 l 133 709 l 292 709 q 431 715 387 709 q 521 739 473 720 l 559 642 q 461 616 515 625 q 364 611 425 611 l 237 611 l 225 401 q 351 421 288 421 q 529 358 468 421 q 583 271 565 322 q 602 165 602 220 q 315 -148 602 -63 q 61 -186 198 -182 z "},"6":{"ha":722,"x_min":64,"x_max":665,"o":"m 589 898 l 589 806 q 325 745 420 813 q 203 524 230 676 q 301 571 246 553 q 403 588 355 588 q 594 514 524 588 q 665 295 665 435 q 647 179 665 234 q 593 80 629 125 q 499 10 558 36 q 365 -16 440 -16 q 191 30 260 -16 q 91 156 121 76 q 64 349 61 237 q 111 624 68 500 q 187 760 138 703 q 300 848 236 817 q 435 890 364 878 q 589 898 507 903 m 190 412 q 182 322 182 372 q 191 229 182 271 q 221 153 201 186 q 278 100 242 119 q 365 81 315 81 q 499 138 452 81 q 547 292 547 195 q 500 446 547 398 q 379 490 456 490 q 284 468 335 490 q 190 412 233 446 z "},"7":{"ha":673,"x_min":61,"x_max":618,"o":"m 61 709 l 363 709 q 491 715 441 709 q 585 734 538 722 l 618 636 q 431 332 487 444 q 356 106 373 216 q 342 -130 342 20 l 342 -180 l 224 -180 q 240 113 224 7 q 312 342 255 220 q 467 608 355 434 l 61 608 l 61 709 z "},"8":{"ha":722,"x_min":54,"x_max":668,"o":"m 528 477 q 586 441 559 461 q 630 393 612 420 q 658 332 648 366 q 668 252 668 297 q 645 138 668 188 q 580 54 621 88 q 483 2 538 20 q 361 -16 427 -16 q 239 2 295 -16 q 141 55 182 20 q 77 140 100 90 q 54 256 54 191 q 64 330 54 296 q 95 393 75 364 q 141 444 114 421 q 201 485 168 467 q 163 517 181 499 q 133 557 146 534 q 112 609 119 580 q 104 675 104 638 q 125 768 104 728 q 182 835 146 808 q 265 877 218 863 q 364 891 312 891 q 465 877 417 891 q 548 835 512 863 q 605 767 584 808 q 626 675 626 727 q 600 566 626 615 q 528 477 574 516 m 364 795 q 304 788 332 795 q 256 765 277 780 q 224 726 236 749 q 212 673 212 703 q 235 599 212 627 q 293 554 258 571 q 368 529 328 538 q 444 511 408 519 q 479 548 465 530 q 502 586 493 566 q 514 626 511 605 q 518 673 518 648 q 506 727 518 704 q 472 765 493 750 q 423 788 451 781 q 364 795 395 795 m 361 79 q 441 92 406 79 q 502 126 477 104 q 540 180 527 149 q 553 252 553 212 q 542 312 553 286 q 509 356 530 338 q 462 387 489 374 q 405 409 435 399 q 343 425 375 418 q 283 438 312 431 q 197 361 227 406 q 168 256 168 316 q 181 182 168 215 q 219 126 195 149 q 280 92 244 104 q 361 79 316 79 z "},"9":{"ha":722,"x_min":60,"x_max":661,"o":"m 136 -180 l 136 -87 q 400 -26 305 -95 q 522 194 495 42 q 424 148 479 165 q 322 130 370 130 q 131 204 201 130 q 60 423 60 283 q 78 539 60 484 q 132 638 96 593 q 226 708 167 682 q 360 734 285 734 q 534 688 465 734 q 634 562 604 642 q 661 370 664 481 q 614 94 657 218 q 538 -42 587 15 q 425 -130 489 -99 q 290 -172 361 -160 q 136 -180 218 -184 m 535 307 q 543 396 543 347 q 534 490 543 448 q 504 566 524 532 q 447 618 483 600 q 360 637 410 637 q 225 580 273 637 q 178 426 178 523 q 225 272 178 320 q 346 228 269 228 q 441 250 390 228 q 535 307 492 272 z "},"\u0000":{"ha":1389,"x_min":0,"x_max":0,"o":""},"\r":{"ha":1389,"x_min":0,"x_max":0,"o":""}," ":{"ha":393,"x_min":0,"x_max":0,"o":""},"!":{"ha":437,"x_min":102,"x_max":302,"o":"m 102 924 q 152 976 125 961 q 207 990 178 990 q 246 981 230 990 q 273 955 262 971 q 288 918 283 939 q 292 871 292 896 l 264 286 l 184 263 l 157 811 l 102 924 m 219 152 q 251 145 236 152 q 278 128 267 139 q 295 101 289 117 q 302 69 302 86 q 295 38 302 53 q 278 12 289 23 q 251 -7 267 0 q 219 -14 236 -14 q 188 -7 203 -14 q 161 11 172 -1 q 142 37 149 22 q 136 69 136 52 q 142 101 136 86 q 160 128 149 117 q 187 145 172 139 q 219 152 202 152 z "},"\"":{"ha":626,"x_min":65,"x_max":548,"o":"m 85 956 q 135 983 114 976 q 176 991 155 991 q 236 977 214 991 q 269 940 259 962 q 277 888 279 917 q 262 829 275 859 q 241 783 254 810 q 213 729 228 757 q 182 674 197 701 q 156 628 167 648 l 65 628 l 124 824 l 85 956 m 357 956 q 406 983 386 976 q 448 991 427 991 q 507 977 484 991 q 539 939 529 962 q 548 887 549 916 q 534 829 547 858 q 513 783 526 810 q 484 729 499 757 q 453 674 469 701 q 427 628 438 648 l 336 628 l 395 824 l 357 956 z "},"#":{"ha":876,"x_min":75,"x_max":801,"o":"m 619 642 l 694 642 l 641 497 l 801 497 l 774 426 l 617 426 l 565 286 l 724 286 l 699 214 l 538 214 l 486 71 l 412 71 l 459 214 l 311 214 l 256 71 l 177 71 l 231 214 l 75 214 l 100 286 l 256 286 l 309 426 l 146 426 l 174 497 l 336 497 l 389 642 l 462 642 l 409 497 l 566 497 l 619 642 m 487 286 l 540 426 l 384 426 l 336 286 l 487 286 z "},"$":{"ha":793,"x_min":81,"x_max":712,"o":"m 444 883 l 444 561 q 532 532 495 547 q 605 494 568 517 q 663 443 641 471 q 699 371 685 414 q 712 274 712 328 q 640 79 712 151 q 444 -11 568 7 l 444 -89 l 345 -89 l 345 -16 q 81 41 208 -14 l 123 140 q 345 88 237 93 l 345 466 q 259 494 295 479 q 191 530 224 509 q 137 580 157 552 q 103 647 116 608 q 88 738 90 687 q 158 909 88 842 q 345 988 228 977 l 345 1065 l 444 1065 l 444 987 q 657 932 555 977 l 616 833 q 444 883 518 875 m 345 589 l 345 882 q 247 837 284 873 q 210 738 210 802 q 242 643 210 675 q 345 589 274 612 m 444 438 l 444 97 q 552 159 513 113 q 591 274 591 204 q 555 378 591 342 q 444 438 519 414 z "},"%":{"ha":825,"x_min":87,"x_max":739,"o":"m 240 899 q 297 890 269 899 q 345 859 324 882 q 379 797 366 838 q 392 699 392 756 q 386 636 392 661 q 370 589 380 611 q 345 553 359 568 q 314 530 331 538 q 278 517 297 521 q 240 514 260 514 q 183 523 210 514 q 134 553 156 531 q 100 612 113 574 q 87 706 87 650 q 100 800 87 763 q 134 859 113 838 q 183 890 156 882 q 240 899 210 899 m 240 844 q 202 837 218 844 q 174 811 185 829 q 157 768 163 793 q 151 706 151 742 q 157 644 151 669 q 174 601 163 618 q 202 576 185 584 q 240 568 218 568 q 277 576 260 568 q 304 601 294 584 q 321 644 315 618 q 328 706 328 669 q 321 768 328 742 q 304 811 315 793 q 277 837 294 829 q 240 844 260 844 m 718 722 l 718 637 l 107 180 l 107 265 l 718 722 m 587 394 q 643 385 616 394 q 691 354 671 376 q 725 295 712 332 q 739 201 739 258 q 733 134 739 163 q 717 84 727 106 q 692 48 706 62 q 661 24 677 33 q 625 12 644 16 q 587 9 606 9 q 530 17 557 9 q 481 47 503 26 q 447 107 460 69 q 433 201 433 144 q 447 295 433 258 q 481 354 460 332 q 530 385 503 376 q 587 394 557 394 m 587 339 q 548 331 565 339 q 521 306 532 323 q 504 262 510 288 q 498 201 498 237 q 504 139 498 164 q 521 96 510 113 q 548 71 532 79 q 587 62 565 62 q 624 71 607 62 q 651 96 640 79 q 668 139 662 113 q 674 201 674 164 q 668 262 674 237 q 651 306 662 288 q 624 331 640 323 q 587 339 607 339 z "},"&":{"ha":1021,"x_min":68,"x_max":983,"o":"m 917 202 l 983 151 q 956 99 966 118 q 927 55 945 80 q 892 17 909 31 q 853 -5 876 4 q 804 -15 830 -15 q 720 6 758 -15 q 633 89 683 27 q 352 -16 512 -16 q 277 -9 313 -16 q 123 74 178 8 q 68 238 68 140 q 78 323 68 286 q 116 397 89 360 q 180 468 144 435 q 278 551 216 502 q 196 679 216 632 q 176 772 176 725 q 237 928 176 866 q 412 990 298 990 q 623 961 500 990 l 595 869 q 561 877 587 871 q 526 884 534 883 q 500 889 518 886 q 468 893 481 892 q 441 894 455 894 q 333 861 366 894 q 300 774 300 827 q 316 711 300 745 q 372 621 332 677 l 650 262 q 719 446 702 344 l 630 446 l 630 538 l 934 538 l 934 446 l 810 446 q 712 182 781 288 q 770 111 749 133 q 810 90 791 90 q 858 116 833 90 q 917 202 882 142 m 570 171 l 336 475 q 228 372 266 424 q 189 254 189 320 q 237 136 189 181 q 363 92 285 92 q 465 112 410 92 q 570 171 520 132 z "},"'":{"ha":378,"x_min":77,"x_max":289,"o":"m 98 956 q 147 983 127 976 q 189 991 168 991 q 248 977 225 991 q 280 939 270 962 q 289 887 290 916 q 275 829 287 858 q 254 783 267 810 q 225 729 240 757 q 194 674 210 701 q 168 628 179 648 l 77 628 l 136 824 l 98 956 z "},"(":{"ha":530,"x_min":130,"x_max":420,"o":"m 420 897 q 347 781 378 836 q 296 666 316 725 q 266 542 275 608 q 256 396 256 477 q 266 250 256 315 q 296 126 275 184 q 347 12 316 67 q 420 -105 378 -44 l 385 -142 q 280 -41 327 -98 q 199 84 233 16 q 148 231 166 153 q 130 396 130 309 q 148 561 130 483 q 199 708 166 640 q 280 833 233 776 q 385 934 327 890 l 420 897 z "},")":{"ha":530,"x_min":109,"x_max":400,"o":"m 109 -105 q 183 12 152 -44 q 234 126 214 67 q 264 250 254 184 q 273 396 273 315 q 264 542 273 477 q 234 666 254 608 q 183 781 214 725 q 109 897 152 836 l 144 934 q 250 833 202 890 q 330 708 297 776 q 382 561 363 640 q 400 396 400 483 q 382 231 400 309 q 330 84 363 153 q 250 -41 297 16 q 144 -142 202 -98 l 109 -105 z "},"*":{"ha":745,"x_min":147,"x_max":600,"o":"m 340 976 l 408 976 l 416 806 l 578 849 l 600 785 l 441 726 l 535 585 l 481 546 l 374 678 l 268 546 l 214 585 l 307 727 l 147 787 l 169 850 l 332 806 l 340 976 z "},"+":{"ha":766,"x_min":102,"x_max":664,"o":"m 664 412 l 664 319 l 429 319 l 429 85 l 336 85 l 336 319 l 102 319 l 102 412 l 337 412 l 337 647 l 430 647 l 430 412 l 664 412 z "},",":{"ha":473,"x_min":120,"x_max":312,"o":"m 139 120 q 183 145 165 138 q 221 152 202 152 q 275 139 254 152 q 304 105 295 125 q 312 58 313 84 q 300 5 311 31 q 280 -37 292 -13 q 254 -86 268 -60 q 227 -136 241 -111 q 203 -178 213 -160 l 120 -178 l 174 0 l 139 120 z "},"-":{"ha":789,"x_min":138,"x_max":651,"o":"m 138 429 l 651 429 l 651 328 l 138 328 l 138 429 z "},".":{"ha":437,"x_min":136,"x_max":302,"o":"m 219 152 q 251 146 236 152 q 278 128 267 140 q 302 69 302 104 q 278 11 302 35 q 251 -7 267 -1 q 219 -14 236 -14 q 187 -7 202 -14 q 161 11 172 -1 q 143 37 149 22 q 136 69 136 52 q 143 101 136 86 q 161 128 149 117 q 219 152 184 152 z "},"/":{"ha":778,"x_min":94,"x_max":684,"o":"m 576 975 l 684 975 l 202 0 l 94 0 l 576 975 z "},":":{"ha":454,"x_min":136,"x_max":318,"o":"m 227 602 q 263 594 246 602 q 292 575 279 587 q 311 546 304 563 q 318 511 318 530 q 311 476 318 492 q 292 447 304 459 q 263 427 279 434 q 227 420 246 420 q 192 427 208 420 q 163 447 175 434 q 143 476 151 459 q 136 511 136 492 q 143 546 136 530 q 163 575 151 563 q 192 594 175 587 q 227 602 208 602 m 227 168 q 263 161 246 168 q 292 142 279 154 q 311 113 304 130 q 318 77 318 96 q 311 42 318 59 q 292 14 304 26 q 263 -6 279 1 q 227 -14 246 -14 q 192 -6 208 -14 q 163 14 175 1 q 143 42 151 26 q 136 77 136 59 q 143 113 136 96 q 163 142 151 130 q 192 161 175 154 q 227 168 208 168 z "},";":{"ha":491,"x_min":157,"x_max":357,"o":"m 267 602 q 302 594 286 602 q 331 575 319 587 q 350 546 343 563 q 357 511 357 530 q 350 476 357 492 q 331 447 343 459 q 302 427 319 434 q 267 420 286 420 q 231 427 248 420 q 202 447 214 434 q 183 476 190 459 q 176 511 176 492 q 183 546 176 530 q 202 575 190 563 q 231 594 214 587 q 267 602 248 602 m 176 120 q 221 145 202 138 q 258 152 239 152 q 312 139 292 152 q 341 105 332 125 q 349 58 351 84 q 337 5 348 31 q 317 -37 330 -13 q 292 -86 305 -60 q 264 -136 278 -111 q 240 -178 250 -160 l 157 -178 l 211 0 l 176 120 z "},"<":{"ha":649,"x_min":44,"x_max":605,"o":"m 605 161 l 605 66 l 44 311 l 44 390 l 605 634 l 605 539 l 169 351 l 605 161 z "},"=":{"ha":766,"x_min":102,"x_max":664,"o":"m 102 451 l 102 544 l 664 544 l 664 451 l 102 451 m 102 191 l 102 284 l 664 284 l 664 191 l 102 191 z "},">":{"ha":650,"x_min":45,"x_max":606,"o":"m 606 311 l 45 66 l 45 161 l 481 351 l 45 539 l 45 634 l 606 390 l 606 311 z "},"?":{"ha":743,"x_min":81,"x_max":621,"o":"m 81 924 q 161 958 121 944 q 245 981 202 972 q 296 987 270 985 q 347 990 321 990 q 414 985 381 990 q 479 968 447 980 q 582 887 543 942 q 621 745 621 832 q 600 636 621 680 q 541 558 579 591 q 448 499 503 525 q 326 448 393 474 l 326 286 l 232 259 l 191 496 q 320 552 263 528 q 417 603 377 576 q 478 664 456 630 q 499 751 499 699 q 484 817 499 789 q 444 860 469 844 q 397 879 422 873 q 342 884 371 884 q 225 866 283 884 q 121 823 168 847 l 81 924 m 278 152 q 310 145 295 152 q 337 128 326 139 q 354 101 348 117 q 361 69 361 86 q 354 38 361 53 q 337 12 348 23 q 310 -7 326 0 q 278 -14 295 -14 q 247 -7 262 -14 q 220 11 231 -1 q 201 37 208 22 q 195 69 195 52 q 201 101 195 86 q 219 128 208 117 q 246 145 231 139 q 278 152 261 152 z "},"@":{"ha":1153,"x_min":87,"x_max":1065,"o":"m 576 -144 q 446 -126 508 -144 q 329 -77 383 -109 q 230 -1 275 -45 q 154 99 186 44 q 105 216 122 153 q 87 346 87 278 q 105 476 87 414 q 154 593 122 538 q 230 692 186 648 q 329 769 275 737 q 446 818 383 800 q 576 836 508 836 q 705 818 643 836 q 822 768 768 800 q 922 692 877 736 q 998 592 966 647 q 1048 475 1030 538 q 1065 346 1065 413 q 996 145 1065 212 q 781 79 926 79 q 733 80 758 79 q 683 85 709 82 q 675 121 677 106 q 673 132 673 126 q 672 142 673 137 q 671 156 671 147 q 671 178 671 165 q 672 220 671 201 q 672 251 672 239 l 665 252 q 640 185 655 216 q 604 131 625 155 q 557 95 583 108 q 498 81 530 81 q 443 94 467 81 q 403 127 420 106 q 376 176 387 149 q 361 233 366 203 q 356 272 357 252 q 354 314 354 292 q 366 418 354 366 q 407 511 378 470 q 483 578 435 553 q 601 604 530 604 q 770 581 673 604 l 762 399 q 761 355 762 382 q 759 298 760 328 q 758 241 758 269 q 757 194 757 213 q 757 180 757 186 q 758 170 757 174 q 758 163 758 167 q 758 157 758 160 q 784 154 772 155 q 808 154 795 154 q 884 168 851 154 q 938 208 916 182 q 970 269 960 233 q 981 346 981 304 q 967 453 981 401 q 926 550 952 505 q 862 632 899 595 q 780 696 825 669 q 683 737 734 722 q 576 751 631 751 q 469 737 520 751 q 372 696 417 722 q 290 632 327 669 q 226 550 252 595 q 185 453 199 505 q 170 346 170 401 q 185 239 170 290 q 226 142 199 187 q 290 60 252 97 q 372 -4 327 22 q 469 -45 417 -31 q 576 -60 520 -60 l 595 -60 l 595 -144 l 576 -144 m 682 523 q 647 528 665 526 q 612 530 630 530 q 525 510 559 530 q 471 459 490 490 q 444 389 452 428 q 437 313 437 351 q 443 238 437 271 q 464 183 449 205 q 509 161 479 161 q 543 169 526 161 q 571 192 559 177 q 604 234 588 210 q 632 284 619 258 q 656 337 646 311 q 673 385 666 363 l 682 523 z "},"A":{"ha":928,"x_min":14,"x_max":915,"o":"m 785 0 l 657 332 l 271 332 l 143 0 l 14 0 l 400 975 l 528 975 l 915 0 l 785 0 m 311 436 l 617 436 l 464 833 l 311 436 z "},"B":{"ha":880,"x_min":121,"x_max":816,"o":"m 428 975 q 558 965 497 975 q 664 928 618 954 q 736 856 709 901 q 762 740 762 810 q 753 665 762 698 q 726 608 743 633 q 684 565 709 583 q 628 534 659 547 l 628 533 q 700 504 665 524 q 760 454 734 484 q 801 381 785 423 q 816 287 816 340 q 789 156 816 210 q 714 67 762 102 q 601 16 666 33 q 461 0 536 0 l 121 0 l 121 975 l 428 975 m 426 574 q 513 583 475 574 q 579 610 552 591 q 620 662 606 629 q 635 741 635 694 q 618 808 635 782 q 572 850 601 835 q 505 870 543 865 q 426 876 467 876 l 248 876 l 248 574 l 426 574 m 461 99 q 550 111 509 99 q 623 147 592 123 q 671 206 653 171 q 688 288 688 241 q 671 369 688 334 q 623 427 653 404 q 550 463 592 451 q 461 475 509 475 l 248 475 l 248 99 l 461 99 z "},"C":{"ha":840,"x_min":78,"x_max":785,"o":"m 785 28 q 651 -4 722 8 q 497 -16 581 -16 q 184 108 290 -16 q 78 473 78 232 q 184 860 78 730 q 497 990 290 990 q 638 977 576 990 q 760 941 701 963 l 724 841 q 669 859 696 851 q 615 873 642 867 q 558 881 587 878 q 497 884 529 884 q 368 857 422 884 q 278 779 313 830 q 226 654 243 728 q 209 487 209 581 q 226 317 209 391 q 278 192 243 243 q 368 116 313 142 q 497 90 422 90 q 629 102 566 90 q 753 132 691 113 l 785 28 z "},"D":{"ha":933,"x_min":123,"x_max":863,"o":"m 123 0 l 123 975 l 330 975 q 485 967 413 975 q 616 937 556 958 q 721 881 675 916 q 798 792 766 846 q 846 663 830 738 q 863 488 863 589 q 846 312 863 387 q 798 183 830 237 q 721 94 766 129 q 616 38 675 59 q 485 8 556 17 q 330 0 413 0 l 123 0 m 351 104 q 527 125 454 104 q 645 193 599 146 q 711 312 690 239 q 732 488 732 384 q 711 664 732 591 q 645 783 690 736 q 527 850 599 829 q 351 871 454 871 l 251 871 l 251 104 l 351 104 z "},"E":{"ha":767,"x_min":123,"x_max":680,"o":"m 123 975 l 665 975 l 665 871 l 251 871 l 251 602 l 544 602 l 544 497 l 251 497 l 251 104 l 680 104 l 680 0 l 123 0 l 123 975 z "},"F":{"ha":712,"x_min":123,"x_max":665,"o":"m 123 975 l 665 975 l 665 871 l 251 871 l 251 602 l 544 602 l 544 497 l 251 497 l 251 0 l 123 0 l 123 975 z "},"G":{"ha":949,"x_min":79,"x_max":852,"o":"m 852 52 q 685 1 772 19 q 517 -16 599 -16 q 330 14 412 -16 q 193 104 248 43 q 108 258 137 165 q 79 476 79 351 q 109 710 79 612 q 195 870 138 808 q 333 961 251 932 q 522 990 416 990 q 660 977 587 990 q 809 939 732 964 l 773 838 q 645 872 705 861 q 524 884 585 884 q 386 861 445 884 q 288 789 327 838 q 230 667 249 741 q 210 489 210 592 q 228 312 210 387 q 283 188 246 237 q 378 114 321 138 q 515 90 436 90 q 627 102 570 90 q 730 129 683 113 l 730 399 l 566 399 l 566 501 l 852 501 l 852 52 z "},"H":{"ha":1025,"x_min":123,"x_max":902,"o":"m 774 975 l 902 975 l 902 0 l 774 0 l 774 484 l 251 484 l 251 0 l 123 0 l 123 975 l 251 975 l 251 588 l 774 588 l 774 975 z "},"I":{"ha":404,"x_min":138,"x_max":266,"o":"m 138 975 l 266 975 l 266 0 l 138 0 l 138 975 z "},"J":{"ha":486,"x_min":84,"x_max":370,"o":"m 242 975 l 370 975 l 370 291 q 361 132 370 195 q 331 19 353 68 q 134 -154 281 -88 l 84 -81 q 173 0 152 -24 q 201 39 190 19 q 242 237 242 107 l 242 975 z "},"K":{"ha":890,"x_min":125,"x_max":806,"o":"m 688 990 l 774 921 l 399 477 l 806 0 l 653 0 l 252 471 l 252 0 l 125 0 l 125 975 l 252 975 l 252 473 l 688 990 z "},"L":{"ha":707,"x_min":132,"x_max":659,"o":"m 132 975 l 260 975 l 260 104 l 659 104 l 659 0 l 132 0 l 132 975 z "},"M":{"ha":1284,"x_min":64,"x_max":1220,"o":"m 913 975 l 1103 975 l 1220 0 l 1096 0 l 994 821 l 987 821 l 718 0 l 566 0 l 297 821 l 290 821 l 189 0 l 64 0 l 182 975 l 371 975 l 642 130 l 913 975 z "},"N":{"ha":1037,"x_min":121,"x_max":916,"o":"m 916 -7 l 767 -7 l 248 808 l 248 0 l 121 0 l 121 975 l 270 975 l 789 160 l 789 975 l 916 975 l 916 -7 z "},"O":{"ha":1005,"x_min":75,"x_max":930,"o":"m 930 488 q 820 113 930 243 q 503 -16 709 -16 q 186 113 298 -16 q 75 488 75 242 q 186 861 75 732 q 503 990 298 990 q 820 860 709 990 q 930 488 930 730 m 800 488 q 725 780 800 676 q 502 884 651 884 q 279 779 352 884 q 205 488 205 674 q 223 324 205 396 q 276 199 240 252 q 369 118 311 146 q 502 90 426 90 q 725 194 651 90 q 800 488 800 298 z "},"P":{"ha":827,"x_min":125,"x_max":750,"o":"m 431 975 q 556 961 498 975 q 657 913 614 946 q 725 827 701 880 q 750 699 750 774 q 722 560 750 614 q 645 475 693 507 q 532 433 596 444 q 397 421 468 421 q 321 424 358 421 q 252 430 284 427 l 252 0 l 125 0 l 125 975 l 431 975 m 252 532 q 320 525 284 528 q 391 523 355 523 q 486 529 443 523 q 559 555 529 536 q 607 608 590 574 q 624 699 624 643 q 610 783 624 749 q 570 837 595 817 q 509 865 545 857 q 431 873 473 873 l 252 873 l 252 532 z "},"Q":{"ha":1019,"x_min":79,"x_max":935,"o":"m 507 990 q 691 957 611 990 q 825 860 770 924 q 907 703 879 796 q 935 488 935 609 q 865 170 935 291 q 660 5 794 48 q 717 -37 693 -19 q 765 -70 741 -56 q 815 -95 788 -83 q 881 -117 842 -106 q 862 -171 873 -145 q 840 -223 852 -197 q 791 -208 814 -216 q 747 -190 769 -200 q 701 -164 724 -179 q 649 -129 677 -149 q 586 -80 621 -108 q 507 -16 551 -53 q 327 16 406 -16 q 192 112 247 48 q 108 269 137 175 q 79 488 79 363 q 108 705 79 611 q 192 862 137 799 q 327 958 247 926 q 507 990 406 990 m 507 884 q 373 856 429 884 q 281 775 317 827 q 228 650 245 724 q 210 488 210 577 q 228 324 210 397 q 281 198 245 250 q 373 118 317 146 q 507 90 429 90 q 639 118 583 90 q 732 197 695 145 q 786 322 768 248 q 804 488 804 395 q 786 653 804 579 q 732 778 768 726 q 639 856 695 829 q 507 884 583 884 z "},"R":{"ha":865,"x_min":125,"x_max":827,"o":"m 431 975 q 552 960 495 975 q 654 913 610 945 q 724 829 699 880 q 749 709 749 778 q 724 589 749 640 q 654 505 699 538 q 577 465 619 479 q 486 445 534 450 l 486 444 q 529 407 505 431 q 578 352 553 384 q 631 283 604 320 q 686 205 659 246 l 827 0 l 678 0 l 525 237 q 453 342 484 302 q 396 406 423 382 q 342 437 370 429 q 277 445 314 445 l 252 445 l 252 0 l 125 0 l 125 975 l 431 975 m 431 544 q 509 553 473 544 q 569 583 544 563 q 609 634 595 603 q 623 709 623 665 q 609 783 623 752 q 569 834 595 814 q 509 864 544 854 q 431 873 473 873 l 252 873 l 252 544 l 431 544 z "},"S":{"ha":811,"x_min":78,"x_max":736,"o":"m 119 142 q 177 121 146 131 q 240 105 208 112 q 305 94 273 98 q 369 90 338 90 q 466 102 422 90 q 541 138 509 115 q 589 196 572 161 q 606 274 606 230 q 590 346 606 318 q 544 393 574 374 q 469 426 513 412 q 369 453 425 439 q 254 489 307 469 q 163 541 201 509 q 103 620 125 573 q 81 738 81 667 q 104 842 81 795 q 170 922 127 889 q 271 972 212 955 q 401 990 330 990 q 471 986 435 990 q 543 974 507 981 q 612 956 578 966 q 675 932 646 945 l 635 831 q 585 850 610 841 q 531 867 559 860 q 470 879 503 875 q 401 884 438 884 q 330 876 363 884 q 270 850 296 867 q 228 805 243 833 q 212 738 212 777 q 228 666 212 694 q 274 618 244 637 q 349 586 304 600 q 449 559 393 573 q 564 523 511 543 q 655 471 616 503 q 715 391 693 439 q 736 274 736 344 q 709 145 736 200 q 632 55 682 91 q 516 1 583 19 q 369 -16 448 -16 q 78 41 219 -16 l 119 142 z "},"T":{"ha":839,"x_min":54,"x_max":785,"o":"m 54 975 l 785 975 l 785 871 l 485 871 l 485 0 l 357 0 l 357 871 l 54 871 l 54 975 z "},"U":{"ha":1008,"x_min":115,"x_max":892,"o":"m 765 975 l 892 975 l 892 412 q 797 91 892 199 q 503 -16 701 -16 q 115 412 115 -16 l 115 975 l 243 975 l 243 411 q 256 280 243 336 q 298 179 269 223 q 378 113 327 136 q 503 90 430 90 q 609 105 563 90 q 684 148 654 121 q 731 216 713 175 q 758 304 750 257 q 765 411 765 351 l 765 975 z "},"V":{"ha":996,"x_min":77,"x_max":919,"o":"m 785 975 l 919 975 l 555 -1 l 441 -1 l 77 975 l 210 975 l 498 155 l 785 975 z "},"W":{"ha":1255,"x_min":50,"x_max":1205,"o":"m 1205 975 l 1088 0 l 899 0 l 627 844 l 356 0 l 167 0 l 50 975 l 174 975 l 275 154 l 282 154 l 551 975 l 703 975 l 972 154 l 979 154 l 1081 975 l 1205 975 z "},"X":{"ha":960,"x_min":75,"x_max":885,"o":"m 80 921 l 179 992 l 474 580 l 736 975 l 885 975 l 549 483 l 859 58 l 756 -16 l 475 380 l 222 0 l 75 0 l 399 477 l 80 921 z "},"Y":{"ha":920,"x_min":44,"x_max":876,"o":"m 731 975 l 876 975 l 524 439 l 524 0 l 397 0 l 397 439 l 44 975 l 189 975 l 460 544 l 731 975 z "},"Z":{"ha":837,"x_min":100,"x_max":737,"o":"m 116 975 l 733 975 l 733 884 l 258 104 l 737 104 l 737 0 l 100 0 l 100 90 l 576 871 l 116 871 l 116 975 z "},"[":{"ha":482,"x_min":136,"x_max":360,"o":"m 136 1065 l 360 1065 l 360 975 l 246 975 l 246 0 l 360 0 l 360 -90 l 136 -90 l 136 1065 z "},"\\":{"ha":772,"x_min":92,"x_max":681,"o":"m 573 0 l 92 975 l 199 975 l 681 0 l 573 0 z "},"]":{"ha":482,"x_min":122,"x_max":347,"o":"m 122 1065 l 347 1065 l 347 -90 l 122 -90 l 122 0 l 236 0 l 236 975 l 122 975 l 122 1065 z "},"^":{"ha":524,"x_min":18,"x_max":511,"o":"m 227 755 l 300 755 l 511 290 l 431 290 l 264 667 l 96 290 l 18 290 l 227 755 z "},"_":{"ha":734,"x_min":109,"x_max":627,"o":"m 109 98 l 627 98 l 627 0 l 109 0 l 109 98 z "},"`":{"ha":390,"x_min":111,"x_max":303,"o":"m 303 801 l 220 801 q 123 983 142 938 q 111 1053 111 1020 q 136 1108 112 1086 q 202 1131 160 1131 q 284 1099 240 1131 l 250 979 l 303 801 z "},"a":{"ha":706,"x_min":50,"x_max":619,"o":"m 155 581 l 125 675 q 364 721 239 721 q 531 684 473 721 q 597 541 597 642 l 597 264 q 598 150 597 208 q 605 78 599 115 q 619 11 610 43 l 508 -14 q 488 88 492 32 l 475 90 q 260 -16 391 -16 q 108 36 165 -16 q 50 184 50 89 q 82 301 50 256 q 171 378 113 347 q 425 427 262 427 q 484 426 447 427 l 484 529 q 454 600 484 578 q 360 621 424 621 q 155 581 267 621 m 484 198 l 484 340 q 430 342 465 342 q 320 332 370 342 q 204 284 245 317 q 163 192 163 252 q 281 83 163 83 q 395 116 342 83 q 484 198 439 143 z "},"b":{"ha":749,"x_min":119,"x_max":696,"o":"m 119 977 l 236 977 l 236 570 l 250 569 q 326 676 282 640 q 447 721 376 721 q 637 616 571 721 q 696 366 696 519 q 607 79 696 180 q 356 -16 522 -16 q 119 5 265 -16 l 119 977 m 229 416 l 229 96 q 356 83 292 83 q 521 148 466 83 q 578 345 578 214 q 552 528 578 464 q 437 613 518 613 q 311 553 366 613 q 229 416 273 513 z "},"c":{"ha":660,"x_min":64,"x_max":607,"o":"m 607 25 q 494 -5 554 7 q 380 -16 434 -16 q 239 7 299 -16 q 141 77 180 31 q 83 188 102 122 q 64 339 64 254 q 87 503 64 431 q 155 622 111 574 q 263 696 199 671 q 409 721 328 721 q 493 712 450 721 q 580 691 536 704 l 551 596 q 485 614 515 608 q 422 621 455 621 q 244 554 307 621 q 182 353 182 488 q 191 240 182 290 q 223 155 200 190 q 287 102 247 120 q 390 83 328 83 q 478 94 431 83 q 578 120 525 104 l 607 25 z "},"d":{"ha":762,"x_min":68,"x_max":662,"o":"m 526 977 l 643 977 l 643 267 q 646 110 643 147 q 662 11 650 64 l 549 -14 q 532 62 538 24 q 525 136 526 110 l 515 136 q 437 28 479 62 q 309 -16 385 -16 q 195 13 243 -16 q 120 93 146 41 q 80 206 93 144 q 68 342 68 268 q 85 494 68 427 q 138 613 102 561 q 235 693 174 665 q 376 721 295 721 q 526 704 440 721 l 526 977 m 526 286 l 526 601 q 385 621 450 621 q 291 601 330 621 q 229 545 251 581 q 196 464 206 509 q 186 363 186 419 q 188 297 186 326 q 194 234 189 268 q 208 177 198 201 q 231 133 217 153 q 268 102 245 113 q 321 92 291 92 q 446 149 393 92 q 526 286 484 191 z "},"e":{"ha":747,"x_min":63,"x_max":680,"o":"m 642 39 q 500 -3 566 9 q 382 -16 434 -16 q 242 9 302 -16 q 143 81 182 35 q 83 191 103 127 q 63 332 63 255 q 70 427 63 380 q 92 518 77 475 q 131 598 106 561 q 189 663 155 635 q 270 705 224 690 q 375 721 316 721 q 603 626 526 721 q 680 355 680 532 l 680 318 l 183 318 q 195 217 183 261 q 233 143 208 174 q 297 98 258 113 q 390 82 336 82 q 449 86 420 82 q 507 98 479 91 q 560 114 534 105 q 608 131 585 123 l 642 39 m 562 412 q 510 572 557 522 q 375 623 463 623 q 242 572 288 623 q 186 412 196 522 l 562 412 z "},"f":{"ha":621,"x_min":70,"x_max":621,"o":"m 188 705 l 188 782 q 197 869 188 832 q 231 937 207 905 q 300 984 254 968 q 413 1000 346 1000 q 621 970 500 1000 l 600 875 q 427 899 486 899 q 377 896 397 899 q 344 883 357 892 q 323 864 330 874 q 312 833 315 854 q 307 795 308 813 q 306 744 306 777 l 306 705 l 532 705 l 532 607 l 306 607 l 306 98 l 532 98 l 532 0 l 70 0 l 70 98 l 188 98 l 188 607 l 70 607 l 70 705 l 188 705 z "},"g":{"ha":758,"x_min":66,"x_max":734,"o":"m 517 705 q 568 706 546 705 q 610 709 590 707 q 651 716 631 711 q 700 730 672 721 q 717 681 709 704 q 734 633 726 658 q 694 621 713 625 q 658 613 676 616 q 622 609 640 610 q 584 607 604 608 q 613 538 603 576 q 623 456 623 500 q 604 342 623 391 q 547 260 584 294 q 459 209 511 226 q 345 191 408 191 q 283 195 312 191 q 227 208 254 199 q 217 175 221 192 q 213 143 212 158 q 218 115 213 127 q 237 95 224 102 q 252 89 244 91 q 270 84 259 86 q 295 82 280 83 q 331 81 310 81 q 379 80 351 80 q 443 80 406 80 q 603 36 549 80 q 657 -102 657 -9 q 645 -170 657 -140 q 611 -221 633 -199 q 561 -257 590 -243 q 498 -281 532 -272 q 427 -294 464 -290 q 353 -298 390 -298 q 278 -294 315 -298 q 204 -283 240 -290 q 137 -270 168 -277 q 81 -254 105 -262 q 102 -208 90 -231 q 127 -165 114 -185 q 229 -189 170 -177 q 360 -200 288 -200 q 424 -196 393 -200 q 481 -181 456 -192 q 522 -151 507 -170 q 538 -102 538 -132 q 527 -54 538 -71 q 496 -29 515 -37 q 452 -20 477 -21 q 397 -18 426 -18 l 309 -18 q 233 -12 269 -18 q 172 8 198 -6 q 130 47 145 23 q 115 105 115 71 q 127 174 115 138 q 159 246 139 210 q 90 332 114 279 q 66 456 66 386 q 86 569 66 519 q 142 652 106 618 q 230 704 179 687 q 345 721 281 721 q 454 705 404 721 l 517 705 m 345 627 q 271 614 302 627 q 221 579 241 602 q 193 525 202 556 q 184 456 184 493 q 193 387 184 418 q 222 333 202 355 q 272 297 241 310 q 345 285 302 285 q 418 297 387 285 q 468 333 448 310 q 496 387 487 355 q 505 456 505 418 q 496 525 505 493 q 468 579 487 556 q 418 614 448 602 q 345 627 387 627 z "},"h":{"ha":786,"x_min":119,"x_max":699,"o":"m 119 977 l 235 977 l 235 551 q 338 672 281 629 q 469 721 404 721 q 621 672 567 721 q 686 545 668 630 q 699 372 699 481 l 699 0 l 583 0 l 583 404 q 581 472 583 446 q 571 529 578 499 q 548 575 563 558 q 508 602 534 591 q 444 613 481 613 q 320 552 380 613 q 235 434 282 513 l 235 0 l 119 0 l 119 977 z "},"i":{"ha":368,"x_min":104,"x_max":259,"o":"m 182 979 q 237 957 214 979 q 259 901 259 933 q 237 846 259 869 q 182 823 214 823 q 127 846 150 823 q 104 901 104 868 q 127 957 104 934 q 182 979 150 979 m 123 705 l 239 705 l 239 0 l 123 0 l 123 705 z "},"j":{"ha":448,"x_min":67,"x_max":328,"o":"m 251 979 q 305 957 282 979 q 328 901 328 933 q 305 846 328 869 q 251 823 282 823 q 195 846 218 823 q 172 901 172 868 q 195 957 172 934 q 251 979 218 979 m 192 705 l 309 705 l 309 98 q 283 -91 309 -26 q 184 -237 260 -153 l 145 -279 l 67 -215 q 141 -117 123 -148 q 157 -87 142 -115 q 192 89 192 -14 l 192 705 z "},"k":{"ha":704,"x_min":115,"x_max":697,"o":"m 115 977 l 231 977 l 231 389 l 549 721 l 625 646 l 351 363 l 697 0 l 552 0 l 231 339 l 231 0 l 115 0 l 115 977 z "},"l":{"ha":322,"x_min":95,"x_max":234,"o":"m 212 274 q 213 181 212 218 q 216 115 214 143 q 223 63 218 86 q 234 12 227 40 q 177 -2 205 5 q 120 -13 149 -8 q 101 68 106 31 q 95 140 95 104 l 95 975 l 212 975 l 212 274 z "},"m":{"ha":1181,"x_min":92,"x_max":1097,"o":"m 114 0 l 114 436 q 109 593 114 541 q 92 694 106 635 l 203 720 q 221 641 216 679 q 228 567 224 627 l 242 567 q 329 675 277 636 q 457 721 385 721 q 536 706 498 721 q 600 665 574 692 q 654 553 638 627 l 663 553 q 758 673 703 631 q 890 721 817 721 q 1027 671 979 721 q 1085 545 1068 630 q 1097 373 1097 484 l 1097 0 l 981 0 l 981 406 q 975 494 981 459 q 941 577 965 547 q 855 613 910 613 q 740 553 793 613 q 664 442 708 517 q 665 408 665 431 l 665 0 l 549 0 l 549 406 q 532 538 549 492 q 424 613 503 613 q 308 552 363 613 q 231 435 276 517 l 231 0 l 114 0 z "},"n":{"ha":778,"x_min":92,"x_max":692,"o":"m 92 693 l 204 718 q 222 640 217 677 q 229 567 225 621 l 243 567 q 336 676 281 635 q 463 721 396 721 q 617 672 564 721 q 680 545 663 631 q 692 372 692 487 l 692 0 l 575 0 l 575 404 q 555 549 575 505 q 438 613 526 613 q 316 553 376 613 q 231 436 276 513 l 231 0 l 114 0 l 114 434 q 109 592 114 526 q 92 693 106 633 z "},"o":{"ha":755,"x_min":68,"x_max":687,"o":"m 376 721 q 446 716 410 721 q 516 696 481 711 q 582 656 551 682 q 636 590 612 631 q 673 491 660 549 q 687 353 687 433 q 673 215 687 273 q 636 116 660 157 q 582 49 612 75 q 516 9 551 23 q 446 -11 481 -6 q 376 -16 410 -16 q 308 -11 344 -16 q 238 9 273 -6 q 173 49 203 23 q 119 116 142 75 q 81 215 95 157 q 68 353 68 273 q 81 491 68 433 q 119 590 95 549 q 173 656 142 631 q 238 696 203 682 q 308 716 273 711 q 376 721 343 721 m 376 625 q 303 613 338 625 q 243 570 269 601 q 201 487 217 539 q 186 353 186 435 q 201 219 186 271 q 243 136 217 166 q 303 93 269 104 q 376 81 338 81 q 451 93 416 81 q 512 136 486 104 q 554 219 538 166 q 569 353 569 271 q 554 487 569 435 q 512 570 538 539 q 451 613 486 601 q 376 625 416 625 z "},"p":{"ha":755,"x_min":94,"x_max":688,"o":"m 229 -271 l 113 -271 l 113 439 q 109 595 113 557 q 94 694 106 641 l 206 719 q 223 642 218 681 q 231 569 230 595 l 241 569 q 319 677 276 642 q 446 721 370 721 q 561 692 513 721 q 636 612 609 663 q 675 498 663 560 q 688 362 688 437 q 670 211 688 278 q 617 92 653 144 q 521 12 581 40 q 379 -16 460 -16 q 229 1 315 -16 l 229 -271 m 229 419 l 229 104 q 370 83 306 83 q 465 103 425 83 q 527 160 505 123 q 559 241 549 196 q 570 341 570 286 q 568 408 570 379 q 562 470 566 437 q 548 528 557 504 q 524 572 538 551 q 487 603 510 592 q 435 613 465 613 q 310 555 363 613 q 229 419 272 513 z "},"q":{"ha":763,"x_min":68,"x_max":644,"o":"m 644 -271 l 528 -271 l 528 134 l 513 136 q 438 28 481 65 q 317 -16 388 -16 q 127 88 193 -16 q 68 338 68 184 q 157 626 68 525 q 408 721 241 721 q 644 699 498 721 l 644 -271 m 534 288 l 534 608 q 408 621 472 621 q 243 557 298 621 q 186 359 186 490 q 212 176 186 241 q 327 92 245 92 q 452 151 398 92 q 534 288 490 192 z "},"r":{"ha":565,"x_min":90,"x_max":536,"o":"m 241 542 q 286 618 262 584 q 339 675 310 652 q 397 710 366 699 q 470 721 429 721 q 502 720 484 721 q 536 715 519 718 q 529 651 533 681 q 519 591 526 621 q 457 600 486 597 q 404 598 429 602 q 352 578 374 593 q 312 539 330 564 q 275 482 293 515 q 237 405 258 448 l 237 0 l 120 0 l 120 435 q 119 510 120 477 q 115 572 118 543 q 106 630 112 602 q 90 694 100 659 q 145 708 118 702 q 201 720 173 714 q 217 671 211 692 q 226 630 222 650 q 231 590 229 610 q 235 542 233 569 l 241 542 z "},"s":{"ha":648,"x_min":62,"x_max":580,"o":"m 323 721 q 435 709 379 721 q 539 677 491 698 q 519 635 530 656 q 497 593 509 614 q 459 607 480 600 q 416 618 439 614 q 369 626 393 623 q 322 629 345 629 q 274 624 297 629 q 232 608 250 619 q 203 577 214 596 q 193 531 193 559 q 205 483 193 503 q 238 451 217 464 q 287 429 259 438 q 347 413 315 420 q 439 386 397 401 q 513 346 482 370 q 562 286 545 321 q 580 197 580 250 q 558 101 580 141 q 498 35 536 61 q 410 -4 460 9 q 303 -16 360 -16 q 242 -13 273 -16 q 179 -2 210 -9 q 119 16 149 5 q 62 38 89 26 q 82 80 72 60 q 104 121 93 101 q 152 103 127 112 q 203 89 177 95 q 256 79 230 83 q 305 75 281 75 q 363 82 335 75 q 413 103 391 89 q 449 141 435 118 q 462 197 462 164 q 449 247 462 227 q 416 280 437 267 q 367 301 395 293 q 307 317 338 310 q 217 344 260 329 q 143 383 175 359 q 93 443 112 407 q 75 531 75 478 q 95 616 75 581 q 150 675 115 652 q 229 710 184 699 q 323 721 274 721 z "},"t":{"ha":584,"x_min":75,"x_max":530,"o":"m 176 867 l 293 867 l 293 705 l 530 705 l 530 607 l 293 607 l 293 202 q 295 140 293 161 q 307 106 298 119 q 378 82 325 82 q 436 88 408 82 q 488 102 465 94 q 523 11 507 60 q 361 -16 443 -16 q 267 -3 302 -16 q 211 40 231 10 q 183 115 190 71 q 176 235 176 158 l 176 607 l 75 607 l 75 705 l 176 705 l 176 867 z "},"u":{"ha":785,"x_min":97,"x_max":697,"o":"m 697 12 l 585 -13 q 566 66 572 28 q 559 138 564 83 l 545 138 q 453 28 508 69 q 326 -16 393 -16 q 172 33 224 -16 q 109 159 126 74 q 97 333 97 218 l 97 705 l 214 705 l 214 300 q 233 156 214 199 q 351 92 262 92 q 473 151 413 92 q 558 269 513 191 l 558 705 l 675 705 l 675 270 q 680 113 675 180 q 697 12 682 72 z "},"v":{"ha":693,"x_min":34,"x_max":659,"o":"m 659 705 l 425 0 l 269 0 l 34 705 l 160 705 l 347 90 l 533 705 l 659 705 z "},"w":{"ha":1011,"x_min":44,"x_max":943,"o":"m 754 0 l 599 0 l 514 328 l 378 0 l 224 0 l 44 706 l 161 706 l 309 85 l 473 492 l 418 706 l 535 706 l 688 85 q 790 340 761 254 q 825 518 825 444 q 793 694 825 583 q 905 719 855 709 q 941 568 934 649 q 943 527 943 548 q 881 268 943 416 q 843 183 864 229 q 792 79 821 138 q 754 0 764 20 z "},"x":{"ha":765,"x_min":63,"x_max":702,"o":"m 69 654 l 155 721 l 378 438 l 568 705 l 702 705 l 446 351 l 683 51 l 597 -16 l 382 258 l 198 1 l 63 1 l 313 345 l 69 654 z "},"y":{"ha":804,"x_min":107,"x_max":685,"o":"m 685 705 l 685 -16 q 663 -132 685 -83 q 602 -212 641 -180 q 509 -259 563 -244 q 393 -275 456 -275 q 278 -265 336 -275 q 168 -237 220 -255 q 186 -191 177 -214 q 205 -146 196 -169 q 244 -158 222 -152 q 293 -169 267 -164 q 345 -177 318 -174 q 397 -180 372 -180 q 468 -170 436 -180 q 522 -138 500 -159 q 556 -86 545 -117 q 568 -16 568 -56 l 568 138 l 555 138 q 515 78 538 106 q 464 28 492 50 q 404 -4 436 7 q 336 -16 372 -16 q 250 -5 286 -16 q 187 28 213 6 q 144 83 161 50 q 119 159 127 116 q 109 242 111 198 q 107 333 107 286 l 107 705 l 224 705 l 224 300 q 228 218 224 256 q 246 152 232 180 q 287 107 260 123 q 361 92 314 92 q 426 108 395 92 q 482 151 456 125 q 529 208 508 176 q 568 269 551 239 l 568 705 l 685 705 z "},"z":{"ha":672,"x_min":85,"x_max":593,"o":"m 271 607 q 220 608 243 607 q 176 611 197 608 q 133 618 155 613 q 85 633 111 624 q 102 681 94 658 q 119 730 111 704 q 168 716 146 721 q 209 709 189 711 q 251 706 229 707 q 302 705 273 705 l 587 705 l 587 624 l 233 98 l 593 98 l 593 0 l 87 0 l 87 82 l 441 607 l 271 607 z "},"{":{"ha":482,"x_min":80,"x_max":372,"o":"m 146 624 l 146 886 q 194 1009 146 966 q 372 1061 250 1061 l 372 977 q 267 947 293 977 q 245 858 245 922 l 245 624 q 228 541 245 578 q 194 490 215 515 q 228 439 216 464 q 245 357 245 402 l 245 113 q 267 24 245 47 q 372 -6 294 -6 l 372 -90 q 194 -38 250 -90 q 146 85 146 5 l 146 357 q 113 450 146 400 q 80 490 97 473 q 136 572 115 523 q 146 624 146 596 z "},"|":{"ha":417,"x_min":156,"x_max":261,"o":"m 156 1065 l 261 1065 l 261 -89 l 156 -89 l 156 1065 z "},"}":{"ha":482,"x_min":121,"x_max":413,"o":"m 121 977 l 121 1061 q 300 1009 243 1061 q 347 886 347 965 l 347 624 q 380 529 347 578 q 413 490 395 505 q 357 408 378 456 q 347 357 347 384 l 347 85 q 300 -38 347 6 q 121 -90 243 -90 l 121 -6 q 227 24 200 -6 q 248 113 248 46 l 248 357 q 266 439 248 403 q 299 490 277 464 q 266 541 278 515 q 248 624 248 577 l 248 858 q 227 947 248 923 q 121 977 201 977 z "},"~":{"ha":777,"x_min":90,"x_max":687,"o":"m 119 309 l 90 372 q 252 443 182 443 q 346 424 293 443 q 446 385 399 404 q 518 366 493 366 q 657 427 585 366 l 687 365 q 524 294 595 294 q 431 313 484 294 q 332 351 379 332 q 258 370 286 370 q 119 309 191 370 z "}," ":{"ha":407,"x_min":0,"x_max":0,"o":""},"¡":{"ha":404,"x_min":102,"x_max":302,"o":"m 184 721 q 216 714 201 721 q 243 697 231 708 q 261 670 254 686 q 268 638 268 655 q 261 606 268 621 q 243 579 254 591 q 217 562 232 568 q 184 555 201 555 q 152 562 168 555 q 126 579 137 568 q 108 606 115 591 q 102 638 102 621 q 108 669 102 654 q 126 696 115 684 q 152 714 137 707 q 184 721 168 721 m 302 -217 q 252 -268 278 -254 q 197 -283 225 -283 q 157 -275 174 -283 q 131 -254 141 -267 q 116 -222 121 -241 q 111 -182 111 -204 l 139 421 l 220 444 l 247 -104 l 302 -217 z "},"¢":{"ha":660,"x_min":64,"x_max":607,"o":"m 578 120 l 607 25 q 380 -16 488 -16 q 319 -12 348 -16 l 288 -149 l 210 -149 l 245 5 q 142 78 183 30 q 64 339 64 169 q 165 631 64 529 q 409 721 256 721 l 414 721 l 450 878 l 528 878 l 490 713 q 580 691 530 705 l 551 596 q 467 618 503 612 l 342 87 q 390 83 368 83 q 578 120 456 83 m 271 111 l 390 620 q 249 555 302 610 q 182 353 182 486 q 222 157 182 218 q 271 111 240 129 z "},"£":{"ha":776,"x_min":81,"x_max":694,"o":"m 199 607 l 199 722 q 245 922 199 861 q 428 990 298 990 q 636 961 515 990 l 615 867 q 450 889 512 889 q 338 853 362 889 q 324 811 327 836 q 321 738 321 785 l 321 607 l 553 607 l 553 503 l 321 503 l 321 104 l 694 104 l 694 0 l 199 0 l 199 503 l 81 503 l 81 607 l 199 607 z "},"¥":{"ha":881,"x_min":44,"x_max":837,"o":"m 837 975 l 550 517 l 674 517 l 674 418 l 501 418 l 501 298 l 674 298 l 674 199 l 501 199 l 501 0 l 380 0 l 380 199 l 207 199 l 207 298 l 380 298 l 380 418 l 207 418 l 207 517 l 331 517 l 44 975 l 182 975 l 440 544 l 699 975 l 837 975 z "},"¦":{"ha":407,"x_min":156,"x_max":261,"o":"m 156 1065 l 261 1065 l 261 611 l 156 611 l 156 1065 m 156 366 l 261 366 l 261 -89 l 156 -89 l 156 366 z "},"§":{"ha":653,"x_min":68,"x_max":585,"o":"m 545 933 l 503 849 q 328 885 416 885 q 230 862 267 885 q 192 787 192 838 q 201 747 192 764 q 223 718 210 729 q 260 697 237 707 q 303 681 283 687 q 353 669 322 675 q 429 648 397 659 q 492 620 460 637 q 542 581 523 603 q 573 526 562 559 q 585 452 585 494 q 510 295 585 351 q 585 139 585 243 q 547 19 585 68 q 448 -52 509 -31 q 309 -74 387 -74 q 68 -20 183 -74 l 110 64 q 311 18 216 18 q 427 47 381 18 q 473 139 473 77 q 464 181 473 163 q 441 212 455 200 q 405 233 428 224 q 362 248 382 243 q 313 260 342 254 q 222 285 261 270 q 150 325 183 300 q 98 387 116 349 q 80 473 80 424 q 167 625 80 574 q 80 787 80 682 q 151 928 80 880 q 329 977 222 977 q 545 933 443 977 m 192 473 q 201 433 192 451 q 223 405 210 416 q 260 384 237 393 q 303 368 283 374 q 353 355 322 362 q 395 345 380 349 q 473 452 473 374 q 465 494 473 475 q 443 524 456 512 q 408 545 430 536 q 367 560 387 555 q 319 572 347 566 q 192 473 192 568 z "},"¨":{"ha":669,"x_min":102,"x_max":567,"o":"m 185 962 q 216 955 201 962 q 242 938 231 949 q 259 912 253 927 q 266 881 266 897 q 259 848 266 863 q 242 823 253 833 q 216 805 231 812 q 185 799 201 799 q 153 805 168 799 q 126 823 138 812 q 102 881 102 845 q 108 912 102 897 q 126 938 115 927 q 153 955 138 949 q 185 962 168 962 m 485 962 q 517 955 502 962 q 543 938 532 949 q 561 912 555 927 q 567 881 567 897 q 543 823 567 845 q 517 805 532 812 q 485 799 502 799 q 454 805 469 799 q 428 823 439 812 q 410 848 416 833 q 403 881 403 863 q 410 912 403 897 q 428 938 416 927 q 454 955 439 949 q 485 962 469 962 z "},"©":{"ha":1118,"x_min":73,"x_max":1046,"o":"m 559 833 q 687 816 625 833 q 804 767 749 798 q 902 690 858 735 q 979 592 947 646 q 1028 476 1010 538 q 1046 347 1046 414 q 1028 219 1046 281 q 979 103 1010 157 q 902 4 947 49 q 804 -72 858 -40 q 687 -121 749 -104 q 559 -138 625 -138 q 430 -121 492 -138 q 314 -72 368 -104 q 216 3 260 -41 q 139 101 171 47 q 90 218 108 155 q 73 347 73 280 q 90 476 73 414 q 139 592 108 538 q 216 690 171 646 q 314 767 260 735 q 430 816 368 798 q 559 833 492 833 m 559 755 q 399 723 473 755 q 269 636 324 691 q 182 506 214 581 q 151 347 151 432 q 165 239 151 292 q 206 142 180 187 q 269 59 232 96 q 352 -6 307 21 q 449 -48 397 -33 q 559 -63 502 -63 q 668 -48 616 -63 q 766 -6 721 -33 q 849 59 812 21 q 912 142 886 96 q 953 239 939 187 q 968 347 968 292 q 936 505 968 431 q 849 635 904 579 q 719 723 793 690 q 559 755 644 755 m 686 526 q 634 543 661 536 q 579 550 608 550 q 502 533 534 550 q 448 490 469 517 q 419 426 428 463 q 410 348 410 389 q 416 264 410 302 q 441 199 423 227 q 499 154 463 167 q 576 142 536 142 q 641 148 608 142 q 701 163 673 154 l 723 98 q 651 81 691 89 q 569 74 612 74 q 462 89 509 74 q 380 142 415 103 q 335 223 351 175 q 320 335 320 272 q 339 463 320 410 q 391 550 358 515 q 470 602 424 585 q 571 618 515 618 q 644 611 609 618 q 715 590 678 604 l 686 526 z "},"«":{"ha":922,"x_min":115,"x_max":807,"o":"m 115 351 l 416 650 l 484 583 l 253 351 l 484 118 l 416 51 l 115 351 m 438 351 l 739 650 l 806 583 l 576 351 l 807 118 l 739 51 l 438 351 z "},"¬":{"ha":869,"x_min":125,"x_max":743,"o":"m 125 415 l 743 415 l 743 104 l 644 104 l 644 315 l 125 315 l 125 415 z "},"­":{"ha":789,"x_min":138,"x_max":651,"o":"m 138 429 l 651 429 l 651 328 l 138 328 l 138 429 z "},"®":{"ha":1118,"x_min":73,"x_max":1046,"o":"m 559 833 q 687 816 625 833 q 804 767 749 798 q 902 690 858 735 q 979 592 947 646 q 1028 476 1010 538 q 1046 347 1046 414 q 1028 219 1046 281 q 979 103 1010 157 q 902 4 947 49 q 804 -72 858 -40 q 687 -121 749 -104 q 559 -138 625 -138 q 430 -121 492 -138 q 314 -72 368 -104 q 216 3 260 -41 q 139 101 171 47 q 90 218 108 155 q 73 347 73 280 q 90 476 73 414 q 139 592 108 538 q 216 690 171 646 q 314 767 260 735 q 430 816 368 798 q 559 833 492 833 m 559 755 q 399 723 473 755 q 269 636 324 691 q 182 506 214 581 q 151 347 151 432 q 165 239 151 292 q 206 142 180 187 q 269 59 232 96 q 352 -6 307 21 q 449 -48 397 -33 q 559 -63 502 -63 q 668 -48 616 -63 q 766 -6 721 -33 q 849 59 812 21 q 912 142 886 96 q 953 239 939 187 q 968 347 968 292 q 936 505 968 431 q 849 635 904 579 q 719 723 793 690 q 559 755 644 755 m 610 210 q 571 263 587 243 q 541 295 555 283 q 513 311 526 307 q 481 315 499 315 l 473 315 l 473 85 l 387 85 l 387 607 l 572 607 q 643 598 610 607 q 701 573 676 590 q 739 528 725 555 q 753 463 753 500 q 741 405 753 431 q 710 361 730 379 q 664 331 690 342 q 608 317 637 320 q 631 300 620 310 q 656 273 642 290 q 686 236 671 256 q 716 195 701 216 l 797 85 l 696 85 l 610 210 m 558 378 q 601 382 581 378 q 635 395 621 386 q 657 421 649 405 q 665 460 665 437 q 657 501 665 485 q 635 526 649 517 q 601 540 621 536 q 558 544 581 544 l 473 544 l 473 378 l 558 378 z "},"¯":{"ha":422,"x_min":37,"x_max":385,"o":"m 37 1159 l 385 1159 l 385 1077 l 37 1077 l 37 1159 z "},"°":{"ha":523,"x_min":68,"x_max":455,"o":"m 261 1020 q 337 1005 302 1020 q 399 964 373 990 q 440 902 425 938 q 455 826 455 867 q 440 750 455 785 q 399 689 425 715 q 337 648 373 663 q 261 633 302 633 q 185 648 220 633 q 124 689 150 663 q 83 750 98 715 q 68 826 68 785 q 83 902 68 867 q 124 964 98 938 q 185 1005 150 990 q 261 1020 220 1020 m 261 925 q 222 918 240 925 q 191 897 204 910 q 170 865 178 884 q 162 826 162 847 q 170 787 162 805 q 191 756 178 769 q 222 735 204 743 q 261 727 240 727 q 300 735 282 727 q 332 756 319 743 q 353 787 345 769 q 360 826 360 805 q 353 865 360 847 q 332 897 345 884 q 300 918 319 910 q 261 925 282 925 z "},"±":{"ha":769,"x_min":102,"x_max":664,"o":"m 664 505 l 664 412 l 429 412 l 429 178 l 336 178 l 336 412 l 102 412 l 102 505 l 337 505 l 337 740 l 430 740 l 430 505 l 664 505 m 102 0 l 102 93 l 664 93 l 664 0 l 102 0 z "},"´":{"ha":390,"x_min":102,"x_max":294,"o":"m 155 979 l 121 1099 q 203 1131 165 1131 q 269 1108 245 1131 q 294 1053 293 1086 q 281 983 294 1020 q 184 801 262 938 l 102 801 l 155 979 z "},"¶":{"ha":407,"x_min":0,"x_max":0,"o":""},"·":{"ha":396,"x_min":115,"x_max":281,"o":"m 198 479 q 232 472 216 479 q 258 455 247 466 q 275 428 269 444 q 281 396 281 413 q 274 364 281 379 q 257 337 268 349 q 230 320 245 326 q 198 313 215 313 q 166 320 181 313 q 139 337 151 326 q 122 364 128 349 q 115 396 115 379 q 122 429 115 414 q 140 455 129 444 q 166 473 151 467 q 198 479 182 479 z "},"¸":{"ha":513,"x_min":101,"x_max":365,"o":"m 245 0 l 328 0 l 267 -76 q 342 -116 319 -92 q 365 -178 365 -140 q 326 -262 365 -234 q 220 -290 286 -290 q 101 -269 169 -290 l 135 -206 q 224 -235 182 -235 q 266 -220 252 -235 q 280 -184 280 -205 q 256 -144 280 -161 q 178 -111 231 -127 l 245 0 z "},"»":{"ha":922,"x_min":115,"x_max":807,"o":"m 116 583 l 184 650 l 484 351 l 184 51 l 115 118 l 347 351 l 116 583 m 439 583 l 507 650 l 807 351 l 507 51 l 438 118 l 669 351 l 439 583 z "},"¿":{"ha":686,"x_min":88,"x_max":598,"o":"m 431 721 q 463 714 448 721 q 490 697 478 708 q 508 670 501 686 q 515 638 515 655 q 508 606 515 621 q 490 579 501 591 q 464 562 479 568 q 431 555 448 555 q 399 562 414 555 q 373 579 384 568 q 355 606 361 591 q 349 638 349 621 q 355 669 349 654 q 373 696 361 684 q 399 714 384 707 q 431 721 414 721 m 518 201 q 382 144 439 167 q 286 97 324 121 q 229 41 248 73 q 210 -43 210 9 q 222 -110 210 -84 q 255 -151 234 -136 q 304 -171 276 -165 q 367 -177 333 -177 q 423 -172 395 -177 q 478 -160 451 -168 q 530 -142 505 -153 q 578 -121 556 -132 q 590 -176 585 -149 q 598 -231 595 -203 q 478 -270 536 -256 q 362 -283 420 -283 q 263 -273 312 -283 q 175 -236 214 -262 q 112 -162 136 -209 q 88 -43 88 -116 q 108 64 88 20 q 166 141 128 108 q 258 202 203 174 q 383 259 313 229 l 383 421 l 477 448 l 518 201 z "},"À":{"ha":928,"x_min":14,"x_max":915,"o":"m 500 1065 l 417 1065 q 320 1248 339 1202 q 308 1317 307 1284 q 333 1373 309 1350 q 399 1395 357 1395 q 481 1363 437 1395 l 446 1243 l 500 1065 m 785 0 l 657 332 l 271 332 l 143 0 l 14 0 l 400 975 l 528 975 l 915 0 l 785 0 m 311 436 l 617 436 l 464 833 l 311 436 z "},"Á":{"ha":928,"x_min":14,"x_max":915,"o":"m 481 1243 l 446 1363 q 528 1395 490 1395 q 594 1373 570 1395 q 619 1317 618 1350 q 607 1248 620 1284 q 510 1065 588 1202 l 427 1065 l 481 1243 m 785 0 l 657 332 l 271 332 l 143 0 l 14 0 l 400 975 l 528 975 l 915 0 l 785 0 m 311 436 l 617 436 l 464 833 l 311 436 z "},"Â":{"ha":928,"x_min":14,"x_max":915,"o":"m 249 1118 l 464 1290 l 676 1118 l 628 1059 l 464 1154 l 297 1059 l 249 1118 m 785 0 l 657 332 l 271 332 l 143 0 l 14 0 l 400 975 l 528 975 l 915 0 l 785 0 m 311 436 l 617 436 l 464 833 l 311 436 z "},"Ã":{"ha":928,"x_min":14,"x_max":915,"o":"m 609 1206 l 677 1206 q 637 1107 667 1141 q 542 1065 602 1065 q 454 1088 515 1065 q 367 1112 393 1112 q 331 1095 346 1112 q 316 1060 316 1078 l 246 1060 q 286 1153 254 1114 q 373 1199 321 1199 q 464 1175 406 1199 q 548 1152 522 1152 q 609 1206 594 1152 m 785 0 l 657 332 l 271 332 l 143 0 l 14 0 l 400 975 l 528 975 l 915 0 l 785 0 m 311 436 l 617 436 l 464 833 l 311 436 z "},"Ä":{"ha":928,"x_min":14,"x_max":915,"o":"m 315 1219 q 346 1213 331 1219 q 372 1196 361 1206 q 389 1170 382 1185 q 395 1139 395 1155 q 389 1106 395 1121 q 372 1080 382 1091 q 346 1063 361 1069 q 315 1057 331 1057 q 282 1063 297 1057 q 256 1080 267 1069 q 231 1139 231 1103 q 238 1170 231 1155 q 256 1196 244 1185 q 282 1213 267 1206 q 315 1219 297 1219 m 614 1219 q 646 1213 631 1219 q 673 1196 661 1206 q 690 1170 684 1185 q 696 1139 696 1155 q 673 1080 696 1103 q 646 1063 661 1069 q 614 1057 631 1057 q 584 1063 598 1057 q 557 1080 569 1069 q 539 1106 546 1091 q 532 1139 532 1121 q 539 1170 532 1155 q 557 1196 546 1185 q 584 1213 569 1206 q 614 1219 598 1219 m 657 332 l 271 332 l 143 0 l 14 0 l 400 975 l 528 975 l 915 0 l 785 0 l 657 332 m 617 436 l 464 833 l 311 436 l 617 436 z "},"Å":{"ha":928,"x_min":14,"x_max":915,"o":"m 465 1303 q 512 1294 490 1303 q 550 1269 534 1285 q 575 1231 566 1253 q 585 1183 585 1208 q 575 1136 585 1158 q 550 1098 566 1114 q 512 1073 534 1082 q 465 1063 490 1063 q 417 1073 439 1063 q 379 1098 395 1082 q 354 1136 363 1114 q 345 1183 345 1158 q 354 1231 345 1208 q 379 1269 363 1253 q 417 1294 395 1285 q 465 1303 439 1303 m 465 1240 q 425 1223 441 1240 q 408 1183 408 1207 q 425 1143 408 1160 q 465 1127 441 1127 q 505 1143 488 1127 q 521 1183 521 1160 q 505 1223 521 1207 q 465 1240 488 1240 m 657 332 l 271 332 l 143 0 l 14 0 l 400 975 l 528 975 l 915 0 l 785 0 l 657 332 m 617 436 l 464 833 l 311 436 l 617 436 z "},"Æ":{"ha":1263,"x_min":0,"x_max":1176,"o":"m 747 104 l 1176 104 l 1176 0 l 620 0 l 620 332 l 338 332 l 155 0 l 0 0 l 566 975 l 1161 975 l 1161 871 l 747 871 l 747 602 l 1040 602 l 1040 497 l 747 497 l 747 104 m 396 436 l 620 436 l 620 841 l 396 436 z "},"Ç":{"ha":840,"x_min":78,"x_max":785,"o":"m 489 -76 q 564 -116 542 -92 q 587 -178 587 -140 q 576 -228 587 -207 q 546 -263 565 -249 q 500 -283 526 -277 q 442 -290 473 -290 q 384 -284 414 -290 q 323 -269 354 -278 l 357 -206 q 405 -228 384 -220 q 446 -235 427 -235 q 488 -220 475 -235 q 502 -184 502 -204 q 476 -143 502 -160 q 400 -111 451 -127 l 458 -15 q 173 120 269 -3 q 78 473 78 243 q 184 860 78 730 q 497 990 290 990 q 638 977 576 990 q 760 941 701 963 l 724 841 q 669 859 696 851 q 615 873 642 867 q 558 881 587 878 q 497 884 529 884 q 368 857 422 884 q 278 779 313 830 q 226 654 243 728 q 209 487 209 581 q 226 317 209 391 q 278 192 243 243 q 368 116 313 142 q 497 90 422 90 q 629 102 566 90 q 753 132 691 113 l 785 28 q 669 -1 730 10 q 537 -16 608 -12 l 489 -76 z "},"È":{"ha":767,"x_min":123,"x_max":680,"o":"m 452 1065 l 370 1065 q 273 1248 292 1202 q 260 1317 260 1284 q 285 1373 261 1350 q 351 1395 309 1395 q 433 1363 389 1395 l 399 1243 l 452 1065 m 123 975 l 665 975 l 665 871 l 251 871 l 251 602 l 544 602 l 544 497 l 251 497 l 251 104 l 680 104 l 680 0 l 123 0 l 123 975 z "},"É":{"ha":767,"x_min":123,"x_max":680,"o":"m 406 1243 l 371 1363 q 453 1395 415 1395 q 519 1373 495 1395 q 544 1317 543 1350 q 532 1248 545 1284 q 435 1065 513 1202 l 352 1065 l 406 1243 m 123 975 l 665 975 l 665 871 l 251 871 l 251 602 l 544 602 l 544 497 l 251 497 l 251 104 l 680 104 l 680 0 l 123 0 l 123 975 z "},"Ê":{"ha":767,"x_min":123,"x_max":680,"o":"m 186 1118 l 401 1290 l 613 1118 l 565 1059 l 401 1154 l 234 1059 l 186 1118 m 123 975 l 665 975 l 665 871 l 251 871 l 251 602 l 544 602 l 544 497 l 251 497 l 251 104 l 680 104 l 680 0 l 123 0 l 123 975 z "},"Ë":{"ha":767,"x_min":123,"x_max":680,"o":"m 245 1219 q 276 1213 261 1219 q 302 1196 291 1206 q 319 1170 313 1185 q 326 1139 326 1155 q 319 1106 326 1121 q 302 1080 313 1091 q 276 1063 291 1069 q 245 1057 261 1057 q 212 1063 227 1057 q 186 1080 197 1069 q 161 1139 161 1103 q 168 1170 161 1155 q 186 1196 174 1185 q 212 1213 197 1206 q 245 1219 227 1219 m 545 1219 q 576 1213 562 1219 q 603 1196 591 1206 q 621 1170 614 1185 q 627 1139 627 1155 q 603 1080 627 1103 q 576 1063 591 1069 q 545 1057 562 1057 q 514 1063 528 1057 q 488 1080 499 1069 q 469 1106 476 1091 q 463 1139 463 1121 q 469 1170 463 1155 q 488 1196 476 1185 q 514 1213 499 1206 q 545 1219 528 1219 m 665 975 l 665 871 l 251 871 l 251 602 l 544 602 l 544 497 l 251 497 l 251 104 l 680 104 l 680 0 l 123 0 l 123 975 l 665 975 z "},"Ì":{"ha":404,"x_min":57,"x_max":267,"o":"m 249 1065 l 166 1065 q 69 1248 88 1202 q 57 1317 56 1284 q 82 1373 58 1350 q 148 1395 106 1395 q 230 1363 186 1395 l 195 1243 l 249 1065 m 139 975 l 267 975 l 267 0 l 139 0 l 139 975 z "},"Í":{"ha":404,"x_min":138,"x_max":369,"o":"m 231 1243 l 196 1363 q 278 1395 240 1395 q 344 1373 320 1395 q 369 1317 368 1350 q 357 1248 370 1284 q 260 1065 338 1202 l 177 1065 l 231 1243 m 138 975 l 266 975 l 266 0 l 138 0 l 138 975 z "},"Î":{"ha":404,"x_min":-11,"x_max":416,"o":"m -11 1118 l 204 1290 l 416 1118 l 368 1059 l 204 1154 l 37 1059 l -11 1118 m 138 975 l 266 975 l 266 0 l 138 0 l 138 975 z "},"Ï":{"ha":404,"x_min":-32,"x_max":433,"o":"m 52 1219 q 83 1213 68 1219 q 109 1196 98 1206 q 126 1170 119 1185 q 132 1139 132 1155 q 126 1106 132 1121 q 109 1080 119 1091 q 83 1063 98 1069 q 52 1057 68 1057 q 19 1063 34 1057 q -7 1080 4 1069 q -32 1139 -32 1103 q -25 1170 -32 1155 q -7 1196 -19 1185 q 19 1213 4 1206 q 52 1219 34 1219 m 351 1219 q 383 1213 368 1219 q 410 1196 398 1206 q 427 1170 421 1185 q 433 1139 433 1155 q 410 1080 433 1103 q 383 1063 398 1069 q 351 1057 368 1057 q 320 1063 335 1057 q 294 1080 306 1069 q 276 1106 283 1091 q 269 1139 269 1121 q 276 1170 269 1155 q 294 1196 283 1185 q 320 1213 306 1206 q 351 1219 335 1219 m 266 975 l 266 0 l 138 0 l 138 975 l 266 975 z "},"Ð":{"ha":933,"x_min":-69,"x_max":863,"o":"m 330 975 q 485 967 413 975 q 616 937 556 958 q 721 881 675 916 q 798 792 766 846 q 846 663 830 738 q 863 488 863 589 q 846 312 863 387 q 798 183 830 237 q 721 94 766 129 q 616 38 675 59 q 485 8 556 17 q 330 0 413 0 l 123 0 l 123 441 l -69 441 l -69 541 l 123 541 l 123 975 l 330 975 m 351 104 q 527 125 454 104 q 645 193 599 146 q 711 312 690 239 q 732 488 732 384 q 711 664 732 591 q 645 783 690 736 q 527 850 599 829 q 351 871 454 871 l 251 871 l 251 541 l 444 541 l 444 441 l 251 441 l 251 104 l 351 104 z "},"Ñ":{"ha":1037,"x_min":121,"x_max":916,"o":"m 691 1206 l 759 1206 q 720 1107 749 1141 q 624 1065 684 1065 q 536 1088 597 1065 q 449 1112 475 1112 q 413 1095 428 1112 q 398 1060 398 1078 l 328 1060 q 368 1153 336 1114 q 455 1199 404 1199 q 546 1175 488 1199 q 630 1152 604 1152 q 691 1206 676 1152 m 916 -7 l 767 -7 l 248 808 l 248 0 l 121 0 l 121 975 l 270 975 l 789 160 l 789 975 l 916 975 l 916 -7 z "},"Ò":{"ha":1005,"x_min":75,"x_max":930,"o":"m 561 1065 l 478 1065 q 381 1248 400 1202 q 369 1317 368 1284 q 394 1373 370 1350 q 460 1395 418 1395 q 542 1363 498 1395 l 507 1243 l 561 1065 m 930 488 q 820 113 930 243 q 503 -16 709 -16 q 186 113 298 -16 q 75 488 75 242 q 186 861 75 732 q 503 990 298 990 q 820 860 709 990 q 930 488 930 730 m 800 488 q 725 780 800 676 q 502 884 651 884 q 279 779 352 884 q 205 488 205 674 q 223 324 205 396 q 276 199 240 252 q 369 118 311 146 q 502 90 426 90 q 725 194 651 90 q 800 488 800 298 z "},"Ó":{"ha":1005,"x_min":75,"x_max":930,"o":"m 513 1243 l 479 1363 q 561 1395 523 1395 q 627 1373 603 1395 q 652 1317 651 1350 q 640 1248 652 1284 q 543 1065 621 1202 l 460 1065 l 513 1243 m 930 488 q 820 113 930 243 q 503 -16 709 -16 q 186 113 298 -16 q 75 488 75 242 q 186 861 75 732 q 503 990 298 990 q 820 860 709 990 q 930 488 930 730 m 800 488 q 725 780 800 676 q 502 884 651 884 q 279 779 352 884 q 205 488 205 674 q 223 324 205 396 q 276 199 240 252 q 369 118 311 146 q 502 90 426 90 q 725 194 651 90 q 800 488 800 298 z "},"Ô":{"ha":1005,"x_min":75,"x_max":930,"o":"m 292 1118 l 507 1290 l 719 1118 l 671 1059 l 507 1154 l 340 1059 l 292 1118 m 930 488 q 820 113 930 243 q 503 -16 709 -16 q 186 113 298 -16 q 75 488 75 242 q 186 861 75 732 q 503 990 298 990 q 820 860 709 990 q 930 488 930 730 m 800 488 q 725 780 800 676 q 502 884 651 884 q 279 779 352 884 q 205 488 205 674 q 223 324 205 396 q 276 199 240 252 q 369 118 311 146 q 502 90 426 90 q 725 194 651 90 q 800 488 800 298 z "},"Õ":{"ha":1005,"x_min":75,"x_max":930,"o":"m 640 1206 l 707 1206 q 668 1107 697 1141 q 572 1065 632 1065 q 484 1088 545 1065 q 397 1112 423 1112 q 361 1095 376 1112 q 347 1060 347 1078 l 277 1060 q 316 1153 285 1114 q 404 1199 352 1199 q 494 1175 436 1199 q 578 1152 553 1152 q 640 1206 625 1152 m 930 488 q 820 113 930 243 q 503 -16 709 -16 q 186 113 298 -16 q 75 488 75 242 q 186 861 75 732 q 503 990 298 990 q 820 860 709 990 q 930 488 930 730 m 800 488 q 725 780 800 676 q 502 884 651 884 q 279 779 352 884 q 205 488 205 674 q 223 324 205 396 q 276 199 240 252 q 369 118 311 146 q 502 90 426 90 q 725 194 651 90 q 800 488 800 298 z "},"Ö":{"ha":1005,"x_min":75,"x_max":930,"o":"m 353 1219 q 384 1213 369 1219 q 410 1196 399 1206 q 427 1170 420 1185 q 433 1139 433 1155 q 427 1106 433 1121 q 410 1080 420 1091 q 384 1063 399 1069 q 353 1057 369 1057 q 320 1063 335 1057 q 294 1080 305 1069 q 269 1139 269 1103 q 276 1170 269 1155 q 294 1196 282 1185 q 320 1213 305 1206 q 353 1219 335 1219 m 652 1219 q 684 1213 669 1219 q 711 1196 699 1206 q 728 1170 722 1185 q 734 1139 734 1155 q 711 1080 734 1103 q 684 1063 699 1069 q 652 1057 669 1057 q 622 1063 636 1057 q 595 1080 607 1069 q 577 1106 584 1091 q 570 1139 570 1121 q 577 1170 570 1155 q 595 1196 584 1185 q 622 1213 607 1206 q 652 1219 636 1219 m 930 488 q 902 271 930 365 q 820 113 874 176 q 685 16 765 49 q 503 -16 606 -16 q 322 16 401 -16 q 187 112 242 48 q 103 269 132 175 q 75 488 75 363 q 103 705 75 611 q 187 862 132 799 q 322 958 242 926 q 503 990 401 990 q 686 957 606 990 q 820 860 766 924 q 902 703 874 796 q 930 488 930 609 m 800 488 q 782 653 800 579 q 727 778 764 726 q 634 856 690 829 q 502 884 578 884 q 368 856 425 884 q 276 775 312 827 q 223 650 240 724 q 205 488 205 577 q 223 324 205 397 q 276 198 240 250 q 368 118 312 146 q 502 90 425 90 q 634 118 578 90 q 727 197 690 145 q 782 322 764 248 q 800 488 800 395 z "},"×":{"ha":667,"x_min":102,"x_max":565,"o":"m 565 196 l 499 130 l 333 296 l 168 131 l 102 197 l 268 362 l 102 528 l 168 593 l 334 427 l 500 593 l 565 528 l 399 362 l 565 196 z "},"Ø":{"ha":1005,"x_min":75,"x_max":930,"o":"m 808 975 l 774 905 q 930 488 930 779 q 820 113 930 243 q 503 -16 709 -16 q 333 12 408 -16 l 327 0 l 219 0 l 247 57 q 75 488 75 181 q 186 861 75 732 q 503 990 298 990 q 690 955 608 990 l 701 975 l 808 975 m 302 168 l 640 853 q 502 884 581 884 q 279 779 352 884 q 205 488 205 674 q 302 168 205 268 m 717 790 l 382 112 q 502 90 434 90 q 725 194 651 90 q 800 488 800 298 q 717 790 800 690 z "},"Ù":{"ha":1008,"x_min":115,"x_max":892,"o":"m 547 1065 l 465 1065 q 368 1248 387 1202 q 355 1317 355 1284 q 380 1373 356 1350 q 446 1395 404 1395 q 528 1363 484 1395 l 494 1243 l 547 1065 m 765 975 l 892 975 l 892 412 q 797 91 892 199 q 503 -16 701 -16 q 115 412 115 -16 l 115 975 l 243 975 l 243 411 q 256 280 243 336 q 298 179 269 223 q 378 113 327 136 q 503 90 430 90 q 609 105 563 90 q 684 148 654 121 q 731 216 713 175 q 758 304 750 257 q 765 411 765 351 l 765 975 z "},"Ú":{"ha":1008,"x_min":115,"x_max":892,"o":"m 504 1243 l 469 1363 q 551 1395 513 1395 q 617 1373 593 1395 q 642 1317 642 1350 q 630 1248 643 1284 q 533 1065 611 1202 l 450 1065 l 504 1243 m 765 975 l 892 975 l 892 412 q 797 91 892 199 q 503 -16 701 -16 q 115 412 115 -16 l 115 975 l 243 975 l 243 411 q 256 280 243 336 q 298 179 269 223 q 378 113 327 136 q 503 90 430 90 q 609 105 563 90 q 684 148 654 121 q 731 216 713 175 q 758 304 750 257 q 765 411 765 351 l 765 975 z "},"Û":{"ha":1008,"x_min":115,"x_max":892,"o":"m 289 1118 l 504 1290 l 716 1118 l 668 1059 l 504 1154 l 337 1059 l 289 1118 m 765 975 l 892 975 l 892 412 q 797 91 892 199 q 503 -16 701 -16 q 115 412 115 -16 l 115 975 l 243 975 l 243 411 q 256 280 243 336 q 298 179 269 223 q 378 113 327 136 q 503 90 430 90 q 609 105 563 90 q 684 148 654 121 q 731 216 713 175 q 758 304 750 257 q 765 411 765 351 l 765 975 z "},"Ü":{"ha":1008,"x_min":115,"x_max":892,"o":"m 354 1219 q 385 1213 370 1219 q 411 1196 400 1206 q 428 1170 422 1185 q 435 1139 435 1155 q 428 1106 435 1121 q 411 1080 422 1091 q 385 1063 400 1069 q 354 1057 370 1057 q 321 1063 336 1057 q 295 1080 307 1069 q 271 1139 271 1103 q 277 1170 271 1155 q 295 1196 283 1185 q 321 1213 307 1206 q 354 1219 336 1219 m 654 1219 q 686 1213 671 1219 q 712 1196 701 1206 q 730 1170 724 1185 q 736 1139 736 1155 q 712 1080 736 1103 q 686 1063 701 1069 q 654 1057 671 1057 q 623 1063 637 1057 q 597 1080 608 1069 q 578 1106 585 1091 q 572 1139 572 1121 q 578 1170 572 1155 q 597 1196 585 1185 q 623 1213 608 1206 q 654 1219 637 1219 m 892 975 l 892 412 q 798 92 892 201 q 503 -16 703 -16 q 330 12 403 -16 q 209 94 257 39 q 138 228 161 148 q 115 412 115 307 l 115 975 l 243 975 l 243 411 q 255 280 243 339 q 298 179 268 221 q 378 113 328 136 q 503 90 429 90 q 630 114 580 90 q 711 179 681 137 q 753 281 741 222 q 765 411 765 340 l 765 975 l 892 975 z "},"Ý":{"ha":920,"x_min":44,"x_max":876,"o":"m 467 1243 l 432 1363 q 514 1395 476 1395 q 580 1373 556 1395 q 605 1317 604 1350 q 593 1248 606 1284 q 496 1065 574 1202 l 413 1065 l 467 1243 m 731 975 l 876 975 l 524 439 l 524 0 l 397 0 l 397 439 l 44 975 l 189 975 l 460 544 l 731 975 z "},"Þ":{"ha":845,"x_min":125,"x_max":768,"o":"m 254 808 l 451 808 q 684 731 601 808 q 768 513 768 655 q 667 291 768 367 q 390 216 566 216 q 253 227 328 216 l 253 0 l 125 0 l 125 975 l 254 975 l 254 808 m 253 703 l 253 331 q 385 319 328 319 q 485 329 440 319 q 565 362 530 340 q 621 422 601 384 q 640 512 640 460 q 587 656 640 609 q 436 703 534 703 l 253 703 z "},"ß":{"ha":841,"x_min":126,"x_max":753,"o":"m 126 0 l 126 749 q 217 929 126 866 q 416 987 298 987 q 612 932 534 987 q 679 851 656 900 q 701 746 701 802 q 674 630 701 682 q 592 530 647 578 q 710 442 667 503 q 753 296 753 381 q 661 63 753 142 q 411 -17 570 -17 q 325 -9 369 -17 l 358 94 q 413 88 387 88 q 574 142 515 88 q 633 286 633 195 q 618 364 633 330 q 583 416 604 397 q 529 449 562 435 q 469 468 495 463 q 406 477 443 473 l 429 570 q 493 562 434 569 q 561 642 536 595 q 585 739 585 689 q 545 840 585 802 q 416 885 498 885 q 292 849 340 885 q 243 747 243 814 l 243 0 l 126 0 z "},"à":{"ha":706,"x_min":50,"x_max":619,"o":"m 416 821 l 333 821 q 236 1004 255 958 q 224 1073 223 1040 q 249 1128 224 1106 q 315 1151 273 1151 q 397 1119 353 1151 l 362 999 l 416 821 m 155 581 l 125 675 q 364 721 239 721 q 531 684 473 721 q 597 541 597 642 l 597 264 q 598 150 597 208 q 605 78 599 115 q 619 11 610 43 l 508 -14 q 488 88 492 32 l 475 90 q 260 -16 391 -16 q 108 36 165 -16 q 50 184 50 89 q 82 301 50 256 q 171 378 113 347 q 425 427 262 427 q 484 426 447 427 l 484 529 q 454 600 484 578 q 360 621 424 621 q 155 581 267 621 m 484 198 l 484 340 q 430 342 465 342 q 320 332 370 342 q 204 284 245 317 q 163 192 163 252 q 281 83 163 83 q 395 116 342 83 q 484 198 439 143 z "},"á":{"ha":706,"x_min":50,"x_max":619,"o":"m 373 999 l 338 1119 q 420 1151 382 1151 q 487 1128 463 1151 q 511 1073 511 1106 q 499 1004 512 1040 q 402 821 480 958 l 319 821 l 373 999 m 155 581 l 125 675 q 364 721 239 721 q 531 684 473 721 q 597 541 597 642 l 597 264 q 598 150 597 208 q 605 78 599 115 q 619 11 610 43 l 508 -14 q 488 88 492 32 l 475 90 q 260 -16 391 -16 q 108 36 165 -16 q 50 184 50 89 q 82 301 50 256 q 171 378 113 347 q 425 427 262 427 q 484 426 447 427 l 484 529 q 454 600 484 578 q 360 621 424 621 q 155 581 267 621 m 484 198 l 484 340 q 430 342 465 342 q 320 332 370 342 q 204 284 245 317 q 163 192 163 252 q 281 83 163 83 q 395 116 342 83 q 484 198 439 143 z "},"â":{"ha":706,"x_min":50,"x_max":619,"o":"m 138 867 l 353 1039 l 566 867 l 517 808 l 353 903 l 186 808 l 138 867 m 155 581 l 125 675 q 364 721 239 721 q 531 684 473 721 q 597 541 597 642 l 597 264 q 598 150 597 208 q 605 78 599 115 q 619 11 610 43 l 508 -14 q 488 88 492 32 l 475 90 q 260 -16 391 -16 q 108 36 165 -16 q 50 184 50 89 q 82 301 50 256 q 171 378 113 347 q 425 427 262 427 q 484 426 447 427 l 484 529 q 454 600 484 578 q 360 621 424 621 q 155 581 267 621 m 484 198 l 484 340 q 430 342 465 342 q 320 332 370 342 q 204 284 245 317 q 163 192 163 252 q 281 83 163 83 q 395 116 342 83 q 484 198 439 143 z "},"ã":{"ha":706,"x_min":50,"x_max":619,"o":"m 479 955 l 547 955 q 507 856 536 890 q 412 814 471 814 q 323 838 385 814 q 237 861 262 861 q 201 844 216 861 q 186 809 186 827 l 116 809 q 155 902 124 863 q 243 948 191 948 q 334 924 275 948 q 418 901 392 901 q 479 955 464 901 m 155 581 l 125 675 q 364 721 239 721 q 531 684 473 721 q 597 541 597 642 l 597 264 q 598 150 597 208 q 605 78 599 115 q 619 11 610 43 l 508 -14 q 488 88 492 32 l 475 90 q 260 -16 391 -16 q 108 36 165 -16 q 50 184 50 89 q 82 301 50 256 q 171 378 113 347 q 425 427 262 427 q 484 426 447 427 l 484 529 q 454 600 484 578 q 360 621 424 621 q 155 581 267 621 m 484 198 l 484 340 q 430 342 465 342 q 320 332 370 342 q 204 284 245 317 q 163 192 163 252 q 281 83 163 83 q 395 116 342 83 q 484 198 439 143 z "},"ä":{"ha":706,"x_min":50,"x_max":619,"o":"m 192 968 q 223 962 208 968 q 249 945 238 956 q 266 919 260 934 q 273 888 273 904 q 266 855 273 870 q 249 829 260 840 q 223 812 238 819 q 192 806 208 806 q 159 812 174 806 q 133 829 144 819 q 109 888 109 852 q 115 919 109 904 q 133 945 121 934 q 159 962 144 956 q 192 968 174 968 m 492 968 q 524 962 509 968 q 550 945 538 956 q 568 919 562 934 q 574 888 574 904 q 550 829 574 852 q 524 812 538 819 q 492 806 509 806 q 461 812 475 806 q 435 829 446 819 q 416 855 423 840 q 410 888 410 870 q 416 919 410 904 q 435 945 423 934 q 461 962 446 956 q 492 968 475 968 m 125 675 q 241 709 180 697 q 364 721 301 721 q 457 713 415 721 q 531 684 498 705 q 580 629 564 664 q 597 541 597 594 l 597 264 q 597 199 597 227 q 598 150 597 172 q 601 111 599 127 q 605 78 602 94 q 611 46 608 62 q 619 11 614 31 l 508 -14 q 495 35 500 10 q 488 88 490 60 l 475 90 q 425 40 451 60 q 371 7 399 20 q 316 -11 344 -5 q 260 -16 288 -16 q 176 -3 214 -16 q 109 35 137 9 q 66 98 81 60 q 50 184 50 136 q 59 252 50 222 q 84 305 68 281 q 122 346 100 328 q 171 378 144 363 q 290 417 224 406 q 425 427 355 427 q 454 427 439 427 q 484 426 470 427 l 484 529 q 454 600 484 578 q 360 621 424 621 q 251 609 302 621 q 155 581 200 597 l 125 675 m 484 340 q 457 342 470 342 q 430 342 444 342 q 379 340 408 342 q 320 332 351 338 q 257 314 286 325 q 208 287 229 304 q 175 248 187 271 q 163 192 163 224 q 195 109 163 134 q 281 83 227 83 q 342 92 314 83 q 395 116 370 100 q 441 152 420 132 q 484 198 463 173 l 484 340 z "},"å":{"ha":706,"x_min":50,"x_max":619,"o":"m 349 1053 q 396 1043 374 1053 q 434 1018 418 1034 q 459 980 450 1002 q 469 932 469 958 q 459 885 469 907 q 434 847 450 863 q 396 822 418 831 q 349 812 374 812 q 301 822 323 812 q 263 847 279 831 q 238 885 247 863 q 229 932 229 907 q 238 980 229 958 q 263 1018 247 1002 q 301 1043 279 1034 q 349 1053 323 1053 m 349 989 q 309 972 325 989 q 292 932 292 956 q 309 892 292 909 q 349 876 325 876 q 389 892 372 876 q 405 932 405 909 q 389 972 405 956 q 349 989 372 989 m 125 675 q 241 709 180 697 q 364 721 301 721 q 457 713 415 721 q 531 684 498 705 q 580 629 564 664 q 597 541 597 594 l 597 264 q 597 199 597 227 q 598 150 597 172 q 601 111 599 127 q 605 78 602 94 q 611 46 608 62 q 619 11 614 31 l 508 -14 q 495 35 500 10 q 488 88 490 60 l 475 90 q 425 40 451 60 q 371 7 399 20 q 316 -11 344 -5 q 260 -16 288 -16 q 176 -3 214 -16 q 109 35 137 9 q 66 98 81 60 q 50 184 50 136 q 59 252 50 222 q 84 305 68 281 q 122 346 100 328 q 171 378 144 363 q 290 417 224 406 q 425 427 355 427 q 454 427 439 427 q 484 426 470 427 l 484 529 q 454 600 484 578 q 360 621 424 621 q 251 609 302 621 q 155 581 200 597 l 125 675 m 484 340 q 457 342 470 342 q 430 342 444 342 q 379 340 408 342 q 320 332 351 338 q 257 314 286 325 q 208 287 229 304 q 175 248 187 271 q 163 192 163 224 q 195 109 163 134 q 281 83 227 83 q 342 92 314 83 q 395 116 370 100 q 441 152 420 132 q 484 198 463 173 l 484 340 z "},"æ":{"ha":1156,"x_min":50,"x_max":1093,"o":"m 1093 355 l 1093 318 l 594 318 q 804 82 597 82 q 945 105 859 82 q 1021 131 978 114 l 1055 39 q 845 -14 941 -6 q 795 -16 823 -16 q 556 81 640 -16 q 527 121 541 98 q 455 46 491 75 q 383 4 419 16 q 321 -13 347 -9 q 260 -16 296 -16 q 108 36 165 -16 q 50 184 50 89 q 82 301 50 256 q 171 378 113 347 q 425 427 262 427 l 484 427 l 484 529 q 454 600 484 578 q 360 621 424 621 q 155 581 267 621 l 125 675 q 364 721 239 721 q 497 701 453 721 q 570 626 541 682 q 657 696 606 671 q 789 721 708 721 q 1001 644 924 721 q 1093 355 1093 550 m 600 412 l 976 412 q 924 571 970 519 q 789 623 877 623 q 655 572 701 623 q 600 412 610 521 m 395 116 q 492 206 447 149 q 477 332 477 264 l 477 341 q 430 342 461 342 q 320 332 370 342 q 204 284 245 317 q 163 192 163 252 q 281 83 163 83 q 395 116 342 83 z "},"ç":{"ha":660,"x_min":64,"x_max":607,"o":"m 363 -76 q 438 -116 416 -92 q 460 -178 460 -140 q 450 -228 460 -207 q 419 -263 439 -249 q 374 -283 400 -277 q 316 -290 347 -290 q 258 -284 288 -290 q 197 -269 228 -278 l 231 -206 q 279 -228 258 -220 q 320 -235 300 -235 q 362 -220 349 -235 q 376 -184 376 -204 q 350 -143 376 -160 q 274 -111 325 -127 l 332 -14 q 213 19 263 -7 q 129 91 162 46 q 80 198 96 136 q 64 339 64 260 q 87 503 64 431 q 155 622 111 574 q 263 696 199 671 q 409 721 328 721 q 493 712 450 721 q 580 691 536 704 l 551 596 q 485 614 515 608 q 422 621 455 621 q 244 554 307 621 q 182 353 182 488 q 191 240 182 290 q 223 155 200 190 q 287 102 247 120 q 390 83 328 83 q 478 94 431 83 q 578 120 525 104 l 607 25 q 511 -1 562 9 q 411 -16 460 -12 l 363 -76 z "},"è":{"ha":747,"x_min":63,"x_max":680,"o":"m 335 801 q 311 843 325 819 q 283 893 297 867 q 257 942 270 918 q 238 983 245 966 q 226 1036 227 1010 q 234 1083 224 1063 q 263 1117 243 1104 q 317 1131 283 1131 q 354 1124 336 1131 q 399 1099 373 1117 l 364 979 l 418 801 l 335 801 m 642 39 q 500 -3 566 9 q 382 -16 434 -16 q 242 9 302 -16 q 143 81 182 35 q 83 191 103 127 q 63 332 63 255 q 70 427 63 380 q 92 518 77 475 q 131 598 106 561 q 189 663 155 635 q 270 705 224 690 q 375 721 316 721 q 603 626 526 721 q 680 355 680 532 l 680 318 l 183 318 q 195 217 183 261 q 233 143 208 174 q 297 98 258 113 q 390 82 336 82 q 449 86 420 82 q 507 98 479 91 q 560 114 534 105 q 608 131 585 123 l 642 39 m 562 412 q 510 572 557 522 q 375 623 463 623 q 242 572 288 623 q 186 412 196 522 l 562 412 z "},"é":{"ha":747,"x_min":63,"x_max":680,"o":"m 352 1099 q 396 1124 378 1117 q 434 1131 415 1131 q 488 1117 467 1131 q 517 1083 508 1104 q 525 1036 526 1063 q 513 983 524 1010 q 493 942 505 966 q 467 893 481 918 q 440 843 454 867 q 416 801 426 819 l 333 801 l 387 979 l 352 1099 m 642 39 q 500 -3 566 9 q 382 -16 434 -16 q 242 9 302 -16 q 143 81 182 35 q 83 191 103 127 q 63 332 63 255 q 70 427 63 380 q 92 518 77 475 q 131 598 106 561 q 189 663 155 635 q 270 705 224 690 q 375 721 316 721 q 603 626 526 721 q 680 355 680 532 l 680 318 l 183 318 q 195 217 183 261 q 233 143 208 174 q 297 98 258 113 q 390 82 336 82 q 449 86 420 82 q 507 98 479 91 q 560 114 534 105 q 608 131 585 123 l 642 39 m 562 412 q 510 572 557 522 q 375 623 463 623 q 242 572 288 623 q 186 412 196 522 l 562 412 z "},"ê":{"ha":747,"x_min":63,"x_max":680,"o":"m 376 1032 l 588 860 l 540 801 l 376 897 l 209 801 l 161 860 l 376 1032 m 642 39 q 500 -3 566 9 q 382 -16 434 -16 q 242 9 302 -16 q 143 81 182 35 q 83 191 103 127 q 63 332 63 255 q 70 427 63 380 q 92 518 77 475 q 131 598 106 561 q 189 663 155 635 q 270 705 224 690 q 375 721 316 721 q 603 626 526 721 q 680 355 680 532 l 680 318 l 183 318 q 195 217 183 261 q 233 143 208 174 q 297 98 258 113 q 390 82 336 82 q 449 86 420 82 q 507 98 479 91 q 560 114 534 105 q 608 131 585 123 l 642 39 m 562 412 q 510 572 557 522 q 375 623 463 623 q 242 572 288 623 q 186 412 196 522 l 562 412 z "},"ë":{"ha":747,"x_min":63,"x_max":680,"o":"m 227 962 q 257 955 243 962 q 283 938 272 949 q 301 912 294 926 q 307 881 307 897 q 301 848 307 863 q 283 823 294 833 q 258 805 273 812 q 227 799 243 799 q 194 805 209 799 q 168 823 179 812 q 150 848 156 833 q 143 881 143 863 q 150 912 143 898 q 168 938 156 927 q 194 955 179 949 q 227 962 209 962 m 526 962 q 558 955 543 962 q 584 938 573 949 q 602 912 595 927 q 608 881 608 898 q 602 847 608 863 q 584 822 595 832 q 557 805 572 811 q 526 799 543 799 q 495 805 510 799 q 469 823 480 812 q 451 849 458 834 q 444 881 444 864 q 451 912 444 898 q 470 938 458 927 q 496 955 481 949 q 526 962 511 962 m 642 39 q 500 -3 566 9 q 382 -16 434 -16 q 242 9 302 -16 q 143 81 182 35 q 83 191 103 127 q 63 332 63 255 q 70 427 63 380 q 92 518 77 475 q 131 598 106 561 q 189 663 155 635 q 270 705 224 690 q 375 721 316 721 q 603 626 526 721 q 680 355 680 532 l 680 318 l 183 318 q 195 217 183 261 q 233 143 208 174 q 297 98 258 113 q 390 82 336 82 q 449 86 420 82 q 507 98 479 91 q 560 114 534 105 q 608 131 585 123 l 642 39 m 562 412 q 510 572 557 522 q 375 623 463 623 q 242 572 288 623 q 186 412 196 522 l 562 412 z "},"ì":{"ha":362,"x_min":28,"x_max":240,"o":"m 220 821 l 138 821 q 41 1004 60 958 q 28 1073 28 1040 q 53 1128 29 1106 q 119 1151 77 1151 q 201 1119 157 1151 l 167 999 l 220 821 m 123 705 l 240 705 l 240 0 l 123 0 l 123 705 z "},"í":{"ha":407,"x_min":123,"x_max":341,"o":"m 203 999 l 168 1119 q 250 1151 212 1151 q 316 1128 292 1151 q 341 1073 340 1106 q 329 1004 342 1040 q 232 821 310 958 l 149 821 l 203 999 m 123 705 l 239 705 l 239 0 l 123 0 l 123 705 z "},"î":{"ha":407,"x_min":-11,"x_max":416,"o":"m -11 867 l 204 1039 l 416 867 l 368 808 l 204 903 l 37 808 l -11 867 m 144 705 l 260 705 l 260 0 l 144 0 l 144 705 z "},"ï":{"ha":362,"x_min":-52,"x_max":414,"o":"m 32 968 q 63 962 48 968 q 89 945 78 956 q 106 919 100 934 q 113 888 113 904 q 106 855 113 870 q 89 829 100 840 q 63 812 78 819 q 32 806 48 806 q -1 812 14 806 q -27 829 -16 819 q -52 888 -52 852 q -45 919 -52 904 q -27 945 -39 934 q -1 962 -16 956 q 32 968 14 968 m 332 968 q 363 962 349 968 q 390 945 378 956 q 408 919 401 934 q 414 888 414 904 q 390 829 414 852 q 363 812 378 819 q 332 806 349 806 q 301 812 315 806 q 275 829 286 819 q 256 855 263 840 q 250 888 250 870 q 256 919 250 904 q 275 945 263 934 q 301 962 286 956 q 332 968 315 968 m 239 705 l 239 0 l 123 0 l 123 705 l 239 705 z "},"ð":{"ha":766,"x_min":61,"x_max":705,"o":"m 522 953 l 480 919 q 647 706 589 848 q 705 382 700 575 q 690 219 708 292 q 633 94 671 146 q 531 12 594 41 q 382 -16 467 -16 q 238 12 302 -16 q 137 89 175 41 q 80 197 100 138 q 61 324 61 257 q 138 564 61 477 q 342 644 211 644 q 555 574 452 644 q 390 846 521 773 l 193 685 l 193 787 l 304 878 q 143 890 233 895 l 143 990 q 402 958 292 1000 l 522 1055 l 522 953 m 382 90 q 460 104 426 90 q 517 141 494 117 q 554 199 539 165 q 574 271 568 233 q 581 354 581 309 q 571 452 581 410 q 470 513 526 489 q 368 538 414 538 q 237 490 285 538 q 186 321 186 437 q 236 152 186 214 q 382 90 287 90 z "},"ñ":{"ha":778,"x_min":92,"x_max":692,"o":"m 549 955 l 617 955 q 578 856 607 890 q 482 814 542 814 q 394 838 455 814 q 307 861 333 861 q 271 844 286 861 q 256 809 256 827 l 186 809 q 226 902 195 863 q 313 948 262 948 q 404 924 346 948 q 488 901 463 901 q 549 955 534 901 m 92 693 l 204 718 q 222 640 217 677 q 229 567 225 621 l 243 567 q 336 676 281 635 q 463 721 396 721 q 617 672 564 721 q 680 545 663 631 q 692 372 692 487 l 692 0 l 575 0 l 575 404 q 555 549 575 505 q 438 613 526 613 q 316 553 376 613 q 231 436 276 513 l 231 0 l 114 0 l 114 434 q 109 592 114 526 q 92 693 106 633 z "},"ò":{"ha":755,"x_min":68,"x_max":687,"o":"m 336 821 q 312 863 326 839 q 285 913 298 888 q 259 962 271 939 q 239 1004 246 986 q 227 1057 229 1030 q 235 1104 226 1083 q 264 1138 244 1124 q 318 1151 285 1151 q 356 1144 337 1151 q 400 1119 374 1137 l 366 999 l 419 821 l 336 821 m 376 721 q 446 716 410 721 q 516 696 481 711 q 582 656 551 682 q 636 590 612 631 q 673 491 660 549 q 687 353 687 433 q 673 215 687 273 q 636 116 660 157 q 582 49 612 75 q 516 9 551 23 q 446 -11 481 -6 q 376 -16 410 -16 q 308 -11 344 -16 q 238 9 273 -6 q 173 49 203 23 q 119 116 142 75 q 81 215 95 157 q 68 353 68 273 q 81 491 68 433 q 119 590 95 549 q 173 656 142 631 q 238 696 203 682 q 308 716 273 711 q 376 721 343 721 m 376 625 q 303 613 338 625 q 243 570 269 601 q 201 487 217 539 q 186 353 186 435 q 201 219 186 271 q 243 136 217 166 q 303 93 269 104 q 376 81 338 81 q 451 93 416 81 q 512 136 486 104 q 554 219 538 166 q 569 353 569 271 q 554 487 569 435 q 512 570 538 539 q 451 613 486 601 q 376 625 416 625 z "},"ó":{"ha":755,"x_min":68,"x_max":687,"o":"m 351 1119 q 395 1144 376 1137 q 433 1151 414 1151 q 486 1138 466 1151 q 516 1104 507 1124 q 524 1057 525 1083 q 511 1004 522 1030 q 492 962 504 986 q 466 913 479 939 q 438 863 452 888 q 414 821 425 839 l 332 821 l 385 999 l 351 1119 m 376 721 q 446 716 410 721 q 516 696 481 711 q 582 656 551 682 q 636 590 612 631 q 673 491 660 549 q 687 353 687 433 q 673 215 687 273 q 636 116 660 157 q 582 49 612 75 q 516 9 551 23 q 446 -11 481 -6 q 376 -16 410 -16 q 308 -11 344 -16 q 238 9 273 -6 q 173 49 203 23 q 119 116 142 75 q 81 215 95 157 q 68 353 68 273 q 81 491 68 433 q 119 590 95 549 q 173 656 142 631 q 238 696 203 682 q 308 716 273 711 q 376 721 343 721 m 376 625 q 303 613 338 625 q 243 570 269 601 q 201 487 217 539 q 186 353 186 435 q 201 219 186 271 q 243 136 217 166 q 303 93 269 104 q 376 81 338 81 q 451 93 416 81 q 512 136 486 104 q 554 219 538 166 q 569 353 569 271 q 554 487 569 435 q 512 570 538 539 q 451 613 486 601 q 376 625 416 625 z "},"ô":{"ha":755,"x_min":68,"x_max":687,"o":"m 380 1039 l 593 867 l 545 808 l 380 903 l 214 808 l 165 867 l 380 1039 m 376 721 q 446 716 410 721 q 516 696 481 711 q 582 656 551 682 q 636 590 612 631 q 673 491 660 549 q 687 353 687 433 q 673 215 687 273 q 636 116 660 157 q 582 49 612 75 q 516 9 551 23 q 446 -11 481 -6 q 376 -16 410 -16 q 308 -11 344 -16 q 238 9 273 -6 q 173 49 203 23 q 119 116 142 75 q 81 215 95 157 q 68 353 68 273 q 81 491 68 433 q 119 590 95 549 q 173 656 142 631 q 238 696 203 682 q 308 716 273 711 q 376 721 343 721 m 376 625 q 303 613 338 625 q 243 570 269 601 q 201 487 217 539 q 186 353 186 435 q 201 219 186 271 q 243 136 217 166 q 303 93 269 104 q 376 81 338 81 q 451 93 416 81 q 512 136 486 104 q 554 219 538 166 q 569 353 569 271 q 554 487 569 435 q 512 570 538 539 q 451 613 486 601 q 376 625 416 625 z "},"õ":{"ha":755,"x_min":68,"x_max":687,"o":"m 593 955 q 578 901 588 926 q 553 856 569 875 q 514 826 537 837 q 458 814 490 814 q 415 822 438 814 q 370 838 393 829 q 324 853 347 846 q 283 861 302 861 q 263 856 273 861 q 247 844 254 851 q 236 827 240 836 q 232 809 232 818 l 162 809 q 175 857 165 832 q 201 902 185 882 q 239 935 217 922 q 289 948 260 948 q 336 941 314 948 q 380 924 358 933 q 422 908 401 916 q 464 901 442 901 q 504 916 490 901 q 525 955 518 931 l 593 955 m 376 721 q 446 716 410 721 q 516 696 481 711 q 582 656 551 682 q 636 590 612 631 q 673 491 660 549 q 687 353 687 433 q 673 215 687 273 q 636 116 660 157 q 582 49 612 75 q 516 9 551 23 q 446 -11 481 -6 q 376 -16 410 -16 q 308 -11 344 -16 q 238 9 273 -6 q 173 49 203 23 q 119 116 142 75 q 81 215 95 157 q 68 353 68 273 q 81 491 68 433 q 119 590 95 549 q 173 656 142 631 q 238 696 203 682 q 308 716 273 711 q 376 721 343 721 m 376 625 q 303 613 338 625 q 243 570 269 601 q 201 487 217 539 q 186 353 186 435 q 201 219 186 271 q 243 136 217 166 q 303 93 269 104 q 376 81 338 81 q 451 93 416 81 q 512 136 486 104 q 554 219 538 166 q 569 353 569 271 q 554 487 569 435 q 512 570 538 539 q 451 613 486 601 q 376 625 416 625 z "},"ö":{"ha":755,"x_min":68,"x_max":687,"o":"m 231 968 q 262 962 248 968 q 288 945 277 956 q 306 919 299 934 q 312 888 312 904 q 306 855 312 870 q 288 829 299 840 q 262 812 277 819 q 231 806 248 806 q 199 812 214 806 q 172 829 184 819 q 148 888 148 852 q 154 919 148 904 q 172 945 161 934 q 199 962 184 956 q 231 968 214 968 m 531 968 q 563 962 548 968 q 589 945 578 956 q 607 919 601 934 q 613 888 613 904 q 589 829 613 852 q 563 812 578 819 q 531 806 548 806 q 500 812 515 806 q 474 829 486 819 q 456 855 463 840 q 449 888 449 870 q 456 919 449 904 q 474 945 463 934 q 500 962 486 956 q 531 968 515 968 m 376 721 q 446 716 410 721 q 516 696 481 711 q 582 656 551 682 q 636 590 612 631 q 673 491 660 549 q 687 353 687 433 q 673 215 687 273 q 636 116 660 157 q 582 49 612 75 q 516 9 551 23 q 446 -11 481 -6 q 376 -16 410 -16 q 308 -11 344 -16 q 238 9 273 -6 q 173 49 203 23 q 119 116 142 75 q 81 215 95 157 q 68 353 68 273 q 81 491 68 433 q 119 590 95 549 q 173 656 142 631 q 238 696 203 682 q 308 716 273 711 q 376 721 343 721 m 376 625 q 303 613 338 625 q 243 570 269 601 q 201 487 217 539 q 186 353 186 435 q 201 219 186 271 q 243 136 217 166 q 303 93 269 104 q 376 81 338 81 q 451 93 416 81 q 512 136 486 104 q 554 219 538 166 q 569 353 569 271 q 554 487 569 435 q 512 570 538 539 q 451 613 486 601 q 376 625 416 625 z "},"÷":{"ha":766,"x_min":102,"x_max":664,"o":"m 383 522 q 355 527 368 522 q 333 543 342 533 q 317 566 323 553 q 311 594 311 579 q 317 622 311 609 q 333 645 323 635 q 355 660 342 654 q 383 666 368 666 q 411 660 398 666 q 434 645 425 654 q 450 622 444 635 q 456 594 456 609 q 450 566 456 579 q 434 543 444 553 q 411 527 425 533 q 383 522 398 522 m 102 319 l 102 412 l 664 412 l 664 319 l 102 319 m 383 210 q 411 204 398 210 q 434 189 425 199 q 450 166 444 179 q 456 138 456 153 q 450 110 456 123 q 434 87 444 97 q 411 72 425 77 q 383 66 398 66 q 355 72 368 66 q 333 87 342 77 q 317 110 323 97 q 311 138 311 123 q 317 166 311 153 q 333 189 323 179 q 355 204 342 199 q 383 210 368 210 z "},"ø":{"ha":755,"x_min":68,"x_max":687,"o":"m 581 656 q 636 590 613 630 q 673 491 660 549 q 687 353 687 433 q 673 215 687 273 q 636 116 660 157 q 582 49 612 75 q 516 9 551 23 q 446 -11 481 -6 q 376 -16 410 -16 q 318 -13 348 -16 q 257 1 288 -9 l 190 -135 l 82 -135 l 173 49 q 144 79 157 62 q 119 116 130 95 q 81 215 95 157 q 68 353 68 273 q 81 491 68 433 q 119 590 95 549 q 173 656 142 631 q 238 696 203 682 q 308 716 273 711 q 376 721 343 721 q 435 717 405 721 q 496 704 466 713 l 564 840 l 671 840 l 581 656 m 451 613 q 415 623 433 620 q 376 625 396 625 q 303 613 338 625 q 243 570 269 601 q 201 487 217 539 q 186 353 186 435 q 197 237 186 285 q 227 159 208 190 l 451 613 m 302 93 q 338 83 320 86 q 376 81 357 81 q 451 93 416 81 q 512 136 486 104 q 554 219 538 166 q 569 353 569 271 q 558 469 569 422 q 528 549 547 517 l 302 93 z "},"ù":{"ha":785,"x_min":97,"x_max":697,"o":"m 428 821 l 345 821 q 248 1004 267 958 q 236 1073 235 1040 q 261 1128 237 1106 q 327 1151 285 1151 q 409 1119 365 1151 l 374 999 l 428 821 m 697 12 l 585 -13 q 566 66 572 28 q 559 138 564 83 l 545 138 q 453 28 508 69 q 326 -16 393 -16 q 172 33 224 -16 q 109 159 126 74 q 97 333 97 218 l 97 705 l 214 705 l 214 300 q 233 156 214 199 q 351 92 262 92 q 473 151 413 92 q 558 269 513 191 l 558 705 l 675 705 l 675 270 q 680 113 675 180 q 697 12 682 72 z "},"ú":{"ha":785,"x_min":97,"x_max":697,"o":"m 388 999 l 353 1119 q 435 1151 397 1151 q 502 1128 477 1151 q 526 1073 526 1106 q 514 1004 527 1040 q 417 821 495 958 l 334 821 l 388 999 m 697 12 l 585 -13 q 566 66 572 28 q 559 138 564 83 l 545 138 q 453 28 508 69 q 326 -16 393 -16 q 172 33 224 -16 q 109 159 126 74 q 97 333 97 218 l 97 705 l 214 705 l 214 300 q 233 156 214 199 q 351 92 262 92 q 473 151 413 92 q 558 269 513 191 l 558 705 l 675 705 l 675 270 q 680 113 675 180 q 697 12 682 72 z "},"û":{"ha":785,"x_min":97,"x_max":697,"o":"m 172 867 l 387 1039 l 600 867 l 551 808 l 387 903 l 220 808 l 172 867 m 697 12 l 585 -13 q 566 66 572 28 q 559 138 564 83 l 545 138 q 453 28 508 69 q 326 -16 393 -16 q 172 33 224 -16 q 109 159 126 74 q 97 333 97 218 l 97 705 l 214 705 l 214 300 q 233 156 214 199 q 351 92 262 92 q 473 151 413 92 q 558 269 513 191 l 558 705 l 675 705 l 675 270 q 680 113 675 180 q 697 12 682 72 z "},"ü":{"ha":785,"x_min":97,"x_max":697,"o":"m 234 968 q 265 962 250 968 q 291 945 280 956 q 308 919 302 934 q 315 888 315 904 q 308 855 315 870 q 291 829 302 840 q 265 812 280 819 q 234 806 250 806 q 201 812 216 806 q 175 829 186 819 q 151 888 151 852 q 157 919 151 904 q 175 945 163 934 q 201 962 186 956 q 234 968 216 968 m 534 968 q 566 962 551 968 q 592 945 581 956 q 610 919 604 934 q 616 888 616 904 q 592 829 616 852 q 566 812 581 819 q 534 806 551 806 q 503 812 517 806 q 477 829 488 819 q 458 855 465 840 q 452 888 452 870 q 458 919 452 904 q 477 945 465 934 q 503 962 488 956 q 534 968 517 968 m 585 -13 q 573 28 578 8 q 566 66 569 48 q 562 101 564 83 q 559 138 561 118 l 545 138 q 505 77 528 105 q 453 28 481 50 q 393 -4 425 7 q 326 -16 361 -16 q 235 -4 273 -16 q 172 33 197 9 q 131 89 146 56 q 109 159 117 121 q 99 242 101 198 q 97 333 97 286 l 97 705 l 214 705 l 214 300 q 217 222 214 260 q 233 156 220 185 q 274 109 247 127 q 351 92 302 92 q 416 109 386 92 q 473 151 447 125 q 520 209 499 178 q 558 269 541 240 l 558 705 l 675 705 l 675 270 q 676 178 675 215 q 680 113 677 142 q 686 62 682 85 q 697 12 690 39 l 585 -13 z "},"ý":{"ha":804,"x_min":107,"x_max":685,"o":"m 378 1099 q 423 1124 404 1117 q 460 1131 441 1131 q 514 1117 494 1131 q 544 1083 534 1104 q 551 1036 553 1063 q 539 983 550 1010 q 519 942 532 966 q 494 893 507 918 q 466 843 480 867 q 442 801 452 819 l 359 801 l 413 979 l 378 1099 m 685 705 l 685 -16 q 663 -132 685 -83 q 602 -212 641 -180 q 509 -259 563 -244 q 393 -275 456 -275 q 278 -265 336 -275 q 168 -237 220 -255 q 186 -191 177 -214 q 205 -146 196 -169 q 244 -158 222 -152 q 293 -169 267 -164 q 345 -177 318 -174 q 397 -180 372 -180 q 468 -170 436 -180 q 522 -138 500 -159 q 556 -86 545 -117 q 568 -16 568 -56 l 568 138 l 555 138 q 515 78 538 106 q 464 28 492 50 q 404 -4 436 7 q 336 -16 372 -16 q 250 -5 286 -16 q 187 28 213 6 q 144 83 161 50 q 119 159 127 116 q 109 242 111 198 q 107 333 107 286 l 107 705 l 224 705 l 224 300 q 228 218 224 256 q 246 152 232 180 q 287 107 260 123 q 361 92 314 92 q 426 108 395 92 q 482 151 456 125 q 529 208 508 176 q 568 269 551 239 l 568 705 l 685 705 z "},"þ":{"ha":728,"x_min":95,"x_max":667,"o":"m 212 568 l 222 568 q 300 677 258 642 q 428 720 353 720 q 522 701 481 720 q 590 649 564 682 q 635 569 617 616 q 660 471 652 522 q 667 361 667 420 q 657 239 667 295 q 623 135 646 182 q 564 54 600 87 q 477 2 529 20 q 361 -17 425 -17 q 211 0 297 -17 l 211 -272 l 95 -272 l 95 977 l 210 977 l 210 566 l 212 568 m 211 418 l 211 102 q 352 82 288 82 q 447 102 407 82 q 509 158 486 122 q 541 239 531 195 q 551 340 551 284 q 550 407 551 378 q 544 470 548 436 q 530 527 539 503 q 506 571 520 551 q 469 602 492 591 q 416 612 446 612 q 292 555 345 612 q 211 418 254 513 z "},"ÿ":{"ha":804,"x_min":107,"x_max":685,"o":"m 253 962 q 284 955 269 962 q 310 938 298 949 q 327 912 321 926 q 334 881 334 897 q 327 848 334 863 q 310 823 321 833 q 284 805 299 812 q 253 799 270 799 q 220 805 235 799 q 194 823 205 812 q 176 848 182 833 q 170 881 170 863 q 176 912 170 898 q 194 938 182 927 q 220 955 205 949 q 253 962 235 962 m 553 962 q 585 955 570 962 q 611 938 600 949 q 628 912 622 927 q 635 881 635 898 q 628 847 635 863 q 610 822 621 832 q 584 805 599 811 q 553 799 569 799 q 522 805 536 799 q 495 823 507 812 q 477 849 484 834 q 471 881 471 864 q 478 912 471 898 q 496 938 485 927 q 523 955 508 949 q 553 962 537 962 m 685 705 l 685 -16 q 663 -132 685 -83 q 602 -212 641 -180 q 509 -259 563 -244 q 393 -275 456 -275 q 278 -265 336 -275 q 168 -237 220 -255 q 186 -191 177 -214 q 205 -146 196 -169 q 244 -158 222 -152 q 293 -169 267 -164 q 345 -177 318 -174 q 397 -180 372 -180 q 468 -170 436 -180 q 522 -138 500 -159 q 556 -86 545 -117 q 568 -16 568 -56 l 568 138 l 555 138 q 515 78 538 106 q 464 28 492 50 q 404 -4 436 7 q 336 -16 372 -16 q 250 -5 286 -16 q 187 28 213 6 q 144 83 161 50 q 119 159 127 116 q 109 242 111 198 q 107 333 107 286 l 107 705 l 224 705 l 224 300 q 228 218 224 256 q 246 152 232 180 q 287 107 260 123 q 361 92 314 92 q 426 108 395 92 q 482 151 456 125 q 529 208 508 176 q 568 269 551 239 l 568 705 l 685 705 z "},"Ā":{"ha":928,"x_min":14,"x_max":915,"o":"m 290 1166 l 637 1166 l 637 1084 l 290 1084 l 290 1166 m 785 0 l 657 332 l 271 332 l 143 0 l 14 0 l 400 975 l 528 975 l 915 0 l 785 0 m 311 436 l 617 436 l 464 833 l 311 436 z "},"ā":{"ha":706,"x_min":50,"x_max":619,"o":"m 181 922 l 529 922 l 529 840 l 181 840 l 181 922 m 155 581 l 125 675 q 364 721 239 721 q 531 684 473 721 q 597 541 597 642 l 597 264 q 598 150 597 208 q 605 78 599 115 q 619 11 610 43 l 508 -14 q 488 88 492 32 l 475 90 q 260 -16 391 -16 q 108 36 165 -16 q 50 184 50 89 q 82 301 50 256 q 171 378 113 347 q 425 427 262 427 q 484 426 447 427 l 484 529 q 454 600 484 578 q 360 621 424 621 q 155 581 267 621 m 484 198 l 484 340 q 430 342 465 342 q 320 332 370 342 q 204 284 245 317 q 163 192 163 252 q 281 83 163 83 q 395 116 342 83 q 484 198 439 143 z "},"Ă":{"ha":928,"x_min":14,"x_max":915,"o":"m 606 1280 l 657 1280 q 634 1196 646 1224 q 599 1141 623 1168 q 538 1094 573 1110 q 465 1077 503 1077 q 341 1128 391 1077 q 271 1280 292 1180 l 322 1280 q 378 1200 343 1225 q 467 1176 413 1176 q 551 1200 517 1176 q 606 1280 585 1225 m 785 0 l 657 332 l 271 332 l 143 0 l 14 0 l 400 975 l 528 975 l 915 0 l 785 0 m 311 436 l 617 436 l 464 833 l 311 436 z "},"ă":{"ha":706,"x_min":50,"x_max":619,"o":"m 482 1029 l 534 1029 q 511 945 523 973 q 475 890 499 918 q 414 843 450 859 q 342 826 379 826 q 218 878 268 826 q 147 1029 168 929 l 199 1029 q 255 949 220 974 q 343 925 290 925 q 428 949 394 925 q 482 1029 461 974 m 155 581 l 125 675 q 364 721 239 721 q 531 684 473 721 q 597 541 597 642 l 597 264 q 598 150 597 208 q 605 78 599 115 q 619 11 610 43 l 508 -14 q 488 88 492 32 l 475 90 q 260 -16 391 -16 q 108 36 165 -16 q 50 184 50 89 q 82 301 50 256 q 171 378 113 347 q 425 427 262 427 q 484 426 447 427 l 484 529 q 454 600 484 578 q 360 621 424 621 q 155 581 267 621 m 484 198 l 484 340 q 430 342 465 342 q 320 332 370 342 q 204 284 245 317 q 163 192 163 252 q 281 83 163 83 q 395 116 342 83 q 484 198 439 143 z "},"Ą":{"ha":928,"x_min":14,"x_max":915,"o":"m 915 0 l 858 0 q 802 -77 819 -47 q 785 -138 785 -106 q 833 -201 785 -201 q 902 -184 858 -201 l 899 -245 q 798 -277 850 -277 q 726 -247 753 -277 q 698 -164 698 -216 q 703 -120 698 -140 q 723 -78 708 -100 q 748 -42 737 -56 q 785 0 759 -29 l 657 332 l 271 332 l 143 0 l 14 0 l 400 975 l 528 975 l 915 0 m 311 436 l 617 436 l 464 833 l 311 436 z "},"ą":{"ha":706,"x_min":50,"x_max":619,"o":"m 619 11 l 573 1 q 516 -77 533 -47 q 499 -138 499 -106 q 547 -201 499 -201 q 616 -184 572 -201 l 613 -245 q 512 -277 565 -277 q 440 -247 468 -277 q 412 -164 412 -216 q 417 -125 412 -144 q 428 -94 422 -106 q 448 -62 433 -82 q 471 -32 463 -41 q 503 3 479 -23 q 488 88 491 43 l 475 90 q 260 -16 391 -16 q 108 36 165 -16 q 50 184 50 89 q 82 301 50 256 q 171 378 113 347 q 425 427 262 427 q 484 426 447 427 l 484 529 q 454 600 484 578 q 360 621 424 621 q 155 581 267 621 l 125 675 q 364 721 239 721 q 531 684 473 721 q 597 541 597 642 l 597 264 q 598 150 597 208 q 605 78 599 115 q 619 11 610 43 m 484 198 l 484 340 q 430 342 465 342 q 320 332 370 342 q 204 284 245 317 q 163 192 163 252 q 281 83 163 83 q 395 116 342 83 q 484 198 439 143 z "},"Ć":{"ha":840,"x_min":78,"x_max":785,"o":"m 471 1368 q 516 1393 497 1386 q 553 1400 534 1400 q 607 1387 587 1400 q 636 1353 627 1373 q 644 1305 646 1332 q 632 1253 643 1279 q 612 1211 625 1235 q 587 1162 600 1187 q 559 1112 573 1137 q 535 1070 545 1088 l 452 1070 l 506 1248 l 471 1368 m 785 28 q 651 -4 722 8 q 497 -16 581 -16 q 184 108 290 -16 q 78 473 78 232 q 184 860 78 730 q 497 990 290 990 q 638 977 576 990 q 760 941 701 963 l 724 841 q 669 859 696 851 q 615 873 642 867 q 558 881 587 878 q 497 884 529 884 q 368 857 422 884 q 278 779 313 830 q 226 654 243 728 q 209 487 209 581 q 226 317 209 391 q 278 192 243 243 q 368 116 313 142 q 497 90 422 90 q 629 102 566 90 q 753 132 691 113 l 785 28 z "},"ć":{"ha":660,"x_min":64,"x_max":607,"o":"m 327 1099 q 371 1124 353 1117 q 409 1131 390 1131 q 463 1117 442 1131 q 492 1083 483 1104 q 500 1036 501 1063 q 488 983 498 1010 q 468 942 480 966 q 442 893 456 918 q 415 843 429 867 q 391 801 401 819 l 308 801 l 361 979 l 327 1099 m 607 25 q 494 -5 554 7 q 380 -16 434 -16 q 239 7 299 -16 q 141 77 180 31 q 83 188 102 122 q 64 339 64 254 q 87 503 64 431 q 155 622 111 574 q 263 696 199 671 q 409 721 328 721 q 493 712 450 721 q 580 691 536 704 l 551 596 q 485 614 515 608 q 422 621 455 621 q 244 554 307 621 q 182 353 182 488 q 191 240 182 290 q 223 155 200 190 q 287 102 247 120 q 390 83 328 83 q 478 94 431 83 q 578 120 525 104 l 607 25 z "},"Ċ":{"ha":840,"x_min":78,"x_max":785,"o":"m 495 1231 q 527 1224 512 1231 q 553 1207 542 1218 q 571 1182 564 1196 q 577 1150 577 1167 q 570 1117 577 1132 q 552 1091 564 1101 q 526 1074 541 1080 q 495 1068 511 1068 q 464 1075 479 1068 q 438 1092 449 1081 q 420 1118 427 1103 q 413 1150 413 1133 q 420 1182 413 1167 q 439 1207 427 1196 q 465 1224 450 1218 q 495 1231 479 1231 m 785 28 q 651 -4 722 8 q 497 -16 581 -16 q 184 108 290 -16 q 78 473 78 232 q 184 860 78 730 q 497 990 290 990 q 638 977 576 990 q 760 941 701 963 l 724 841 q 669 859 696 851 q 615 873 642 867 q 558 881 587 878 q 497 884 529 884 q 368 857 422 884 q 278 779 313 830 q 226 654 243 728 q 209 487 209 581 q 226 317 209 391 q 278 192 243 243 q 368 116 313 142 q 497 90 422 90 q 629 102 566 90 q 753 132 691 113 l 785 28 z "},"ċ":{"ha":660,"x_min":64,"x_max":607,"o":"m 351 962 q 382 955 368 962 q 409 938 397 949 q 426 912 420 927 q 433 881 433 898 q 426 847 433 863 q 408 822 419 832 q 382 805 397 811 q 351 799 367 799 q 319 805 334 799 q 293 823 304 812 q 275 849 282 834 q 269 881 269 864 q 276 912 269 898 q 294 938 283 927 q 320 955 306 949 q 351 962 335 962 m 607 25 q 494 -5 554 7 q 380 -16 434 -16 q 239 7 299 -16 q 141 77 180 31 q 83 188 102 122 q 64 339 64 254 q 87 503 64 431 q 155 622 111 574 q 263 696 199 671 q 409 721 328 721 q 493 712 450 721 q 580 691 536 704 l 551 596 q 485 614 515 608 q 422 621 455 621 q 244 554 307 621 q 182 353 182 488 q 191 240 182 290 q 223 155 200 190 q 287 102 247 120 q 390 83 328 83 q 478 94 431 83 q 578 120 525 104 l 607 25 z "},"Č":{"ha":840,"x_min":78,"x_max":785,"o":"m 659 1301 l 707 1242 l 495 1070 l 280 1242 l 328 1301 l 495 1206 l 659 1301 m 785 28 q 651 -4 722 8 q 497 -16 581 -16 q 184 108 290 -16 q 78 473 78 232 q 184 860 78 730 q 497 990 290 990 q 638 977 576 990 q 760 941 701 963 l 724 841 q 669 859 696 851 q 615 873 642 867 q 558 881 587 878 q 497 884 529 884 q 368 857 422 884 q 278 779 313 830 q 226 654 243 728 q 209 487 209 581 q 226 317 209 391 q 278 192 243 243 q 368 116 313 142 q 497 90 422 90 q 629 102 566 90 q 753 132 691 113 l 785 28 z "},"č":{"ha":660,"x_min":64,"x_max":607,"o":"m 515 1032 l 563 973 l 351 801 l 136 973 l 184 1032 l 351 937 l 515 1032 m 607 25 q 494 -5 554 7 q 380 -16 434 -16 q 239 7 299 -16 q 141 77 180 31 q 83 188 102 122 q 64 339 64 254 q 87 503 64 431 q 155 622 111 574 q 263 696 199 671 q 409 721 328 721 q 493 712 450 721 q 580 691 536 704 l 551 596 q 485 614 515 608 q 422 621 455 621 q 244 554 307 621 q 182 353 182 488 q 191 240 182 290 q 223 155 200 190 q 287 102 247 120 q 390 83 328 83 q 478 94 431 83 q 578 120 525 104 l 607 25 z "},"Ď":{"ha":933,"x_min":123,"x_max":863,"o":"m 575 1290 l 623 1231 l 411 1059 l 196 1231 l 244 1290 l 411 1194 l 575 1290 m 123 0 l 123 975 l 330 975 q 485 967 413 975 q 616 937 556 958 q 721 881 675 916 q 798 792 766 846 q 846 663 830 738 q 863 488 863 589 q 846 312 863 387 q 798 183 830 237 q 721 94 766 129 q 616 38 675 59 q 485 8 556 17 q 330 0 413 0 l 123 0 m 351 104 q 527 125 454 104 q 645 193 599 146 q 711 312 690 239 q 732 488 732 384 q 711 664 732 591 q 645 783 690 736 q 527 850 599 829 q 351 871 454 871 l 251 871 l 251 104 l 351 104 z "},"ď":{"ha":762,"x_min":68,"x_max":948,"o":"m 810 829 l 775 949 q 857 981 819 981 q 923 959 899 981 q 948 904 947 937 q 936 834 949 871 q 839 652 917 789 l 756 652 l 810 829 m 526 977 l 643 977 l 643 267 q 646 110 643 147 q 662 11 650 64 l 549 -14 q 532 62 538 24 q 525 136 526 110 l 515 136 q 437 28 479 62 q 309 -16 385 -16 q 195 13 243 -16 q 120 93 146 41 q 80 206 93 144 q 68 342 68 268 q 85 494 68 427 q 138 613 102 561 q 235 693 174 665 q 376 721 295 721 q 526 704 440 721 l 526 977 m 526 286 l 526 601 q 385 621 450 621 q 291 601 330 621 q 229 545 251 581 q 196 464 206 509 q 186 363 186 419 q 188 297 186 326 q 194 234 189 268 q 208 177 198 201 q 231 133 217 153 q 268 102 245 113 q 321 92 291 92 q 446 149 393 92 q 526 286 484 191 z "},"Đ":{"ha":933,"x_min":123,"x_max":863,"o":"m 548 1166 l 548 1084 l 200 1084 l 200 1166 l 548 1166 m 123 0 l 123 975 l 330 975 q 485 967 413 975 q 616 937 556 958 q 721 881 675 916 q 798 792 766 846 q 846 663 830 738 q 863 488 863 589 q 846 312 863 387 q 798 183 830 237 q 721 94 766 129 q 616 38 675 59 q 485 8 556 17 q 330 0 413 0 l 123 0 m 351 104 q 527 125 454 104 q 645 193 599 146 q 711 312 690 239 q 732 488 732 384 q 711 664 732 591 q 645 783 690 736 q 527 850 599 829 q 351 871 454 871 l 251 871 l 251 104 l 351 104 z "},"đ":{"ha":762,"x_min":68,"x_max":752,"o":"m 752 795 l 643 795 l 643 267 q 646 110 643 147 q 662 11 650 64 l 549 -14 q 532 62 538 24 q 525 136 526 110 l 515 136 q 437 28 479 62 q 309 -16 385 -16 q 195 13 243 -16 q 120 93 146 41 q 80 206 93 144 q 68 342 68 268 q 85 494 68 427 q 138 613 102 561 q 235 693 174 665 q 376 721 295 721 q 526 704 440 721 l 526 795 l 404 795 l 404 878 l 526 878 l 526 977 l 643 977 l 643 878 l 752 878 l 752 795 m 526 286 l 526 601 q 385 621 450 621 q 291 601 330 621 q 229 545 251 581 q 196 464 206 509 q 186 363 186 419 q 188 297 186 326 q 194 234 189 268 q 208 177 198 201 q 231 133 217 153 q 268 102 245 113 q 321 92 291 92 q 446 149 393 92 q 526 286 484 191 z "},"Ē":{"ha":767,"x_min":123,"x_max":680,"o":"m 220 1166 l 568 1166 l 568 1084 l 220 1084 l 220 1166 m 123 975 l 665 975 l 665 871 l 251 871 l 251 602 l 544 602 l 544 497 l 251 497 l 251 104 l 680 104 l 680 0 l 123 0 l 123 975 z "},"ē":{"ha":747,"x_min":63,"x_max":680,"o":"m 550 924 l 550 842 l 202 842 l 202 924 l 550 924 m 642 39 q 500 -3 566 9 q 382 -16 434 -16 q 242 9 302 -16 q 143 81 182 35 q 83 191 103 127 q 63 332 63 255 q 70 427 63 380 q 92 518 77 475 q 131 598 106 561 q 189 663 155 635 q 270 705 224 690 q 375 721 316 721 q 603 626 526 721 q 680 355 680 532 l 680 318 l 183 318 q 195 217 183 261 q 233 143 208 174 q 297 98 258 113 q 390 82 336 82 q 449 86 420 82 q 507 98 479 91 q 560 114 534 105 q 608 131 585 123 l 642 39 m 562 412 q 510 572 557 522 q 375 623 463 623 q 242 572 288 623 q 186 412 196 522 l 562 412 z "},"Ė":{"ha":767,"x_min":123,"x_max":680,"o":"m 403 1219 q 461 1196 436 1219 q 485 1139 485 1173 q 461 1080 485 1103 q 403 1057 436 1057 q 346 1080 371 1057 q 321 1139 321 1104 q 346 1196 321 1172 q 403 1219 371 1219 m 123 975 l 665 975 l 665 871 l 251 871 l 251 602 l 544 602 l 544 497 l 251 497 l 251 104 l 680 104 l 680 0 l 123 0 l 123 975 z "},"ė":{"ha":747,"x_min":63,"x_max":680,"o":"m 376 962 q 408 955 393 962 q 434 938 422 949 q 451 912 445 927 q 458 881 458 898 q 451 847 458 863 q 433 822 444 832 q 407 805 422 811 q 376 799 392 799 q 345 805 359 799 q 318 823 330 812 q 300 849 307 834 q 294 881 294 864 q 301 912 294 898 q 319 938 308 927 q 346 955 331 949 q 376 962 360 962 m 642 39 q 500 -3 566 9 q 382 -16 434 -16 q 242 9 302 -16 q 143 81 182 35 q 83 191 103 127 q 63 332 63 255 q 70 427 63 380 q 92 518 77 475 q 131 598 106 561 q 189 663 155 635 q 270 705 224 690 q 375 721 316 721 q 603 626 526 721 q 680 355 680 532 l 680 318 l 183 318 q 195 217 183 261 q 233 143 208 174 q 297 98 258 113 q 390 82 336 82 q 449 86 420 82 q 507 98 479 91 q 560 114 534 105 q 608 131 585 123 l 642 39 m 562 412 q 510 572 557 522 q 375 623 463 623 q 242 572 288 623 q 186 412 196 522 l 562 412 z "},"Ę":{"ha":767,"x_min":123,"x_max":680,"o":"m 680 0 l 569 0 q 513 -77 530 -47 q 496 -138 496 -106 q 544 -201 496 -201 q 613 -184 569 -201 l 610 -245 q 509 -277 562 -277 q 437 -247 465 -277 q 409 -164 409 -216 q 414 -120 409 -140 q 434 -78 419 -100 q 459 -42 448 -56 q 496 0 470 -29 l 123 0 l 123 975 l 665 975 l 665 871 l 251 871 l 251 602 l 544 602 l 544 497 l 251 497 l 251 104 l 680 104 l 680 0 z "},"ę":{"ha":747,"x_min":63,"x_max":680,"o":"m 680 318 l 183 318 q 195 217 183 261 q 233 143 208 174 q 297 98 258 113 q 390 82 336 82 q 449 86 420 82 q 507 98 479 91 q 560 114 534 105 q 608 131 585 123 l 642 39 q 578 17 609 26 q 517 1 547 7 q 486 -38 500 -20 q 463 -73 473 -56 q 449 -105 454 -89 q 444 -138 444 -121 q 456 -187 444 -173 q 492 -201 469 -201 q 524 -196 506 -201 q 561 -184 541 -191 l 557 -245 q 512 -268 535 -260 q 456 -277 489 -277 q 385 -247 413 -277 q 357 -164 357 -218 q 362 -122 357 -141 q 377 -85 368 -102 q 400 -51 387 -68 q 432 -14 414 -33 q 406 -16 418 -15 q 382 -16 393 -16 q 242 9 302 -16 q 143 81 182 35 q 83 191 103 127 q 63 332 63 255 q 70 427 63 380 q 92 518 77 475 q 131 598 106 561 q 189 663 155 635 q 270 705 224 690 q 375 721 316 721 q 603 626 526 721 q 680 355 680 532 l 680 318 m 562 412 q 510 572 557 522 q 375 623 463 623 q 242 572 288 623 q 186 412 196 522 l 562 412 z "},"Ě":{"ha":767,"x_min":123,"x_max":680,"o":"m 397 1194 l 562 1290 l 610 1231 l 397 1059 l 182 1231 l 231 1290 l 397 1194 m 123 975 l 665 975 l 665 871 l 251 871 l 251 602 l 544 602 l 544 497 l 251 497 l 251 104 l 680 104 l 680 0 l 123 0 l 123 975 z "},"ě":{"ha":747,"x_min":63,"x_max":680,"o":"m 540 1032 l 588 973 l 376 801 l 161 973 l 209 1032 l 376 937 l 540 1032 m 642 39 q 500 -3 566 9 q 382 -16 434 -16 q 242 9 302 -16 q 143 81 182 35 q 83 191 103 127 q 63 332 63 255 q 70 427 63 380 q 92 518 77 475 q 131 598 106 561 q 189 663 155 635 q 270 705 224 690 q 375 721 316 721 q 603 626 526 721 q 680 355 680 532 l 680 318 l 183 318 q 195 217 183 261 q 233 143 208 174 q 297 98 258 113 q 390 82 336 82 q 449 86 420 82 q 507 98 479 91 q 560 114 534 105 q 608 131 585 123 l 642 39 m 562 412 q 510 572 557 522 q 375 623 463 623 q 242 572 288 623 q 186 412 196 522 l 562 412 z "},"Ğ":{"ha":949,"x_min":79,"x_max":852,"o":"m 713 1291 q 694 1209 709 1246 q 654 1145 679 1172 q 597 1103 630 1118 q 523 1088 564 1088 q 448 1104 481 1088 q 391 1146 415 1119 q 352 1210 367 1173 q 332 1291 337 1247 l 384 1291 q 439 1211 406 1235 q 523 1187 473 1187 q 607 1211 573 1187 q 662 1291 640 1235 l 713 1291 m 852 52 q 685 1 772 19 q 517 -16 599 -16 q 330 14 412 -16 q 193 104 248 43 q 108 258 137 165 q 79 476 79 351 q 109 710 79 612 q 195 870 138 808 q 333 961 251 932 q 522 990 416 990 q 660 977 587 990 q 809 939 732 964 l 773 838 q 645 872 705 861 q 524 884 585 884 q 386 861 445 884 q 288 789 327 838 q 230 667 249 741 q 210 489 210 592 q 228 312 210 387 q 283 188 246 237 q 378 114 321 138 q 515 90 436 90 q 627 102 570 90 q 730 129 683 113 l 730 399 l 566 399 l 566 501 l 852 501 l 852 52 z "},"ğ":{"ha":758,"x_min":66,"x_max":734,"o":"m 533 1022 q 513 940 528 977 q 474 876 498 903 q 416 834 450 849 q 342 819 383 819 q 268 834 301 819 q 211 877 235 850 q 172 941 186 904 q 152 1022 157 978 l 203 1022 q 259 942 225 966 q 342 918 292 918 q 426 942 393 918 q 481 1022 460 966 l 533 1022 m 517 705 q 568 706 546 705 q 610 709 590 707 q 651 716 631 711 q 700 730 672 721 q 717 681 709 704 q 734 633 726 658 q 694 621 713 625 q 658 613 676 616 q 622 609 640 610 q 584 607 604 608 q 613 538 603 576 q 623 456 623 500 q 604 342 623 391 q 547 260 584 294 q 459 209 511 226 q 345 191 408 191 q 283 195 312 191 q 227 208 254 199 q 217 175 221 192 q 213 143 212 158 q 218 115 213 127 q 237 95 224 102 q 252 89 244 91 q 270 84 259 86 q 295 82 280 83 q 331 81 310 81 q 379 80 351 80 q 443 80 406 80 q 603 36 549 80 q 657 -102 657 -9 q 645 -170 657 -140 q 611 -221 633 -199 q 561 -257 590 -243 q 498 -281 532 -272 q 427 -294 464 -290 q 353 -298 390 -298 q 278 -294 315 -298 q 204 -283 240 -290 q 137 -270 168 -277 q 81 -254 105 -262 q 102 -208 90 -231 q 127 -165 114 -185 q 229 -189 170 -177 q 360 -200 288 -200 q 424 -196 393 -200 q 481 -181 456 -192 q 522 -151 507 -170 q 538 -102 538 -132 q 527 -54 538 -71 q 496 -29 515 -37 q 452 -20 477 -21 q 397 -18 426 -18 l 309 -18 q 233 -12 269 -18 q 172 8 198 -6 q 130 47 145 23 q 115 105 115 71 q 127 174 115 138 q 159 246 139 210 q 90 332 114 279 q 66 456 66 386 q 86 569 66 519 q 142 652 106 618 q 230 704 179 687 q 345 721 281 721 q 454 705 404 721 l 517 705 m 345 627 q 271 614 302 627 q 221 579 241 602 q 193 525 202 556 q 184 456 184 493 q 193 387 184 418 q 222 333 202 355 q 272 297 241 310 q 345 285 302 285 q 418 297 387 285 q 468 333 448 310 q 496 387 487 355 q 505 456 505 418 q 496 525 505 493 q 468 579 487 556 q 418 614 448 602 q 345 627 387 627 z "},"Ġ":{"ha":949,"x_min":79,"x_max":852,"o":"m 523 1231 q 555 1224 540 1231 q 581 1207 570 1218 q 598 1182 592 1196 q 605 1150 605 1167 q 598 1117 605 1132 q 580 1091 591 1101 q 554 1074 569 1080 q 523 1068 539 1068 q 492 1075 507 1068 q 466 1092 477 1081 q 448 1118 454 1103 q 441 1150 441 1133 q 448 1182 441 1167 q 467 1207 455 1196 q 493 1224 478 1218 q 523 1231 507 1231 m 852 52 q 685 1 772 19 q 517 -16 599 -16 q 330 14 412 -16 q 193 104 248 43 q 108 258 137 165 q 79 476 79 351 q 109 710 79 612 q 195 870 138 808 q 333 961 251 932 q 522 990 416 990 q 660 977 587 990 q 809 939 732 964 l 773 838 q 645 872 705 861 q 524 884 585 884 q 386 861 445 884 q 288 789 327 838 q 230 667 249 741 q 210 489 210 592 q 228 312 210 387 q 283 188 246 237 q 378 114 321 138 q 515 90 436 90 q 627 102 570 90 q 730 129 683 113 l 730 399 l 566 399 l 566 501 l 852 501 l 852 52 z "},"ġ":{"ha":758,"x_min":66,"x_max":734,"o":"m 342 962 q 374 955 359 962 q 400 938 389 949 q 418 912 412 927 q 425 881 425 898 q 418 847 425 863 q 400 822 411 832 q 374 805 389 811 q 342 799 359 799 q 311 805 326 799 q 285 823 296 812 q 267 849 274 834 q 260 881 260 864 q 268 912 260 898 q 286 938 275 927 q 312 955 298 949 q 342 962 327 962 m 517 705 q 568 706 546 705 q 610 709 590 707 q 651 716 631 711 q 700 730 672 721 q 717 681 709 704 q 734 633 726 658 q 694 621 713 625 q 658 613 676 616 q 622 609 640 610 q 584 607 604 608 q 613 538 603 576 q 623 456 623 500 q 604 342 623 391 q 547 260 584 294 q 459 209 511 226 q 345 191 408 191 q 283 195 312 191 q 227 208 254 199 q 217 175 221 192 q 213 143 212 158 q 218 115 213 127 q 237 95 224 102 q 252 89 244 91 q 270 84 259 86 q 295 82 280 83 q 331 81 310 81 q 379 80 351 80 q 443 80 406 80 q 603 36 549 80 q 657 -102 657 -9 q 645 -170 657 -140 q 611 -221 633 -199 q 561 -257 590 -243 q 498 -281 532 -272 q 427 -294 464 -290 q 353 -298 390 -298 q 278 -294 315 -298 q 204 -283 240 -290 q 137 -270 168 -277 q 81 -254 105 -262 q 102 -208 90 -231 q 127 -165 114 -185 q 229 -189 170 -177 q 360 -200 288 -200 q 424 -196 393 -200 q 481 -181 456 -192 q 522 -151 507 -170 q 538 -102 538 -132 q 527 -54 538 -71 q 496 -29 515 -37 q 452 -20 477 -21 q 397 -18 426 -18 l 309 -18 q 233 -12 269 -18 q 172 8 198 -6 q 130 47 145 23 q 115 105 115 71 q 127 174 115 138 q 159 246 139 210 q 90 332 114 279 q 66 456 66 386 q 86 569 66 519 q 142 652 106 618 q 230 704 179 687 q 345 721 281 721 q 454 705 404 721 l 517 705 m 345 627 q 271 614 302 627 q 221 579 241 602 q 193 525 202 556 q 184 456 184 493 q 193 387 184 418 q 222 333 202 355 q 272 297 241 310 q 345 285 302 285 q 418 297 387 285 q 468 333 448 310 q 496 387 487 355 q 505 456 505 418 q 496 525 505 493 q 468 579 487 556 q 418 614 448 602 q 345 627 387 627 z "},"Ģ":{"ha":949,"x_min":79,"x_max":852,"o":"m 852 52 q 685 1 772 19 q 517 -16 599 -16 q 330 14 412 -16 q 193 104 248 43 q 108 258 137 165 q 79 476 79 351 q 109 710 79 612 q 195 870 138 808 q 333 961 251 932 q 522 990 416 990 q 660 977 587 990 q 809 939 732 964 l 773 838 q 645 872 705 861 q 524 884 585 884 q 386 861 445 884 q 288 789 327 838 q 230 667 249 741 q 210 489 210 592 q 228 312 210 387 q 283 188 246 237 q 378 114 321 138 q 515 90 436 90 q 627 102 570 90 q 730 129 683 113 l 730 399 l 566 399 l 566 501 l 852 501 l 852 52 m 435 -118 q 479 -93 460 -100 q 517 -86 498 -86 q 570 -99 550 -86 q 600 -133 591 -113 q 608 -180 609 -154 q 595 -233 606 -207 q 576 -275 588 -251 q 550 -324 564 -298 q 523 -374 536 -349 q 498 -416 509 -398 l 416 -416 l 469 -238 l 435 -118 z "},"ģ":{"ha":744,"x_min":66,"x_max":734,"o":"m 460 1151 l 407 973 l 441 853 q 397 828 416 835 q 359 821 378 821 q 306 834 326 821 q 276 868 286 848 q 269 916 267 889 q 281 968 270 942 q 300 1009 288 985 q 326 1059 313 1034 q 354 1109 340 1084 q 378 1151 368 1133 l 460 1151 m 517 705 q 568 706 546 705 q 610 709 590 707 q 651 716 631 711 q 700 730 672 721 q 717 681 709 704 q 734 633 726 658 q 694 621 713 625 q 658 613 676 616 q 622 609 640 610 q 584 607 604 608 q 613 538 603 576 q 623 456 623 500 q 604 342 623 391 q 547 260 584 294 q 459 209 511 226 q 345 191 408 191 q 283 195 312 191 q 227 208 254 199 q 217 175 221 192 q 213 143 212 158 q 218 115 213 127 q 237 95 224 102 q 252 89 244 91 q 270 84 259 86 q 295 82 280 83 q 331 81 310 81 q 379 80 351 80 q 443 80 406 80 q 603 36 549 80 q 657 -102 657 -9 q 645 -170 657 -140 q 611 -221 633 -199 q 561 -257 590 -243 q 498 -281 532 -272 q 427 -294 464 -290 q 353 -298 390 -298 q 278 -294 315 -298 q 204 -283 240 -290 q 137 -270 168 -277 q 81 -254 105 -262 q 102 -208 90 -231 q 127 -165 114 -185 q 229 -189 170 -177 q 360 -200 288 -200 q 424 -196 393 -200 q 481 -181 456 -192 q 522 -151 507 -170 q 538 -102 538 -132 q 527 -54 538 -71 q 496 -29 515 -37 q 452 -20 477 -21 q 397 -18 426 -18 l 309 -18 q 233 -12 269 -18 q 172 8 198 -6 q 130 47 145 23 q 115 105 115 71 q 127 174 115 138 q 159 246 139 210 q 90 332 114 279 q 66 456 66 386 q 86 569 66 519 q 142 652 106 618 q 230 704 179 687 q 345 721 281 721 q 454 705 404 721 l 517 705 m 345 627 q 271 614 302 627 q 221 579 241 602 q 193 525 202 556 q 184 456 184 493 q 193 387 184 418 q 222 333 202 355 q 272 297 241 310 q 345 285 302 285 q 418 297 387 285 q 468 333 448 310 q 496 387 487 355 q 505 456 505 418 q 496 525 505 493 q 468 579 487 556 q 418 614 448 602 q 345 627 387 627 z "},"Ħ":{"ha":1165,"x_min":68,"x_max":1097,"o":"m 850 975 l 978 975 l 978 812 l 1097 812 l 1097 730 l 978 730 l 978 0 l 850 0 l 850 482 l 326 482 l 326 0 l 199 0 l 199 730 l 68 730 l 68 812 l 199 812 l 199 975 l 326 975 l 326 812 l 850 812 l 850 975 m 850 588 l 850 730 l 326 730 l 326 588 l 850 588 z "},"ħ":{"ha":786,"x_min":1,"x_max":699,"o":"m 235 745 l 235 553 q 338 673 281 630 q 469 722 404 722 q 621 673 567 722 q 686 547 668 631 q 699 373 699 482 l 699 0 l 577 0 l 577 404 q 557 549 577 505 q 441 613 528 613 q 320 552 380 613 q 235 434 282 513 l 235 0 l 119 0 l 119 745 l 1 745 l 1 826 l 119 826 l 119 977 l 235 977 l 235 826 l 358 826 l 358 745 l 235 745 z "},"Ī":{"ha":404,"x_min":27,"x_max":375,"o":"m 27 1166 l 375 1166 l 375 1084 l 27 1084 l 27 1166 m 138 975 l 266 975 l 266 0 l 138 0 l 138 975 z "},"ī":{"ha":362,"x_min":7,"x_max":355,"o":"m 7 903 l 355 903 l 355 821 l 7 821 l 7 903 m 123 705 l 239 705 l 239 0 l 123 0 l 123 705 z "},"Į":{"ha":404,"x_min":52,"x_max":266,"o":"m 266 0 l 212 0 q 156 -77 173 -47 q 139 -138 139 -106 q 187 -201 139 -201 q 256 -184 212 -201 l 253 -245 q 152 -277 205 -277 q 80 -247 108 -277 q 52 -164 52 -216 q 57 -120 52 -140 q 77 -78 62 -100 q 102 -42 92 -56 q 140 0 113 -29 l 138 0 l 138 975 l 266 975 l 266 0 z "},"į":{"ha":362,"x_min":39,"x_max":263,"o":"m 181 806 q 124 829 149 806 q 99 888 99 853 q 124 945 99 921 q 181 968 149 968 q 239 945 214 968 q 263 888 263 922 q 239 829 263 852 q 181 806 214 806 m 239 0 l 199 0 q 143 -77 160 -47 q 126 -138 126 -106 q 174 -201 126 -201 q 243 -184 199 -201 l 240 -245 q 139 -277 192 -277 q 67 -247 95 -277 q 39 -164 39 -216 q 44 -120 39 -140 q 64 -78 50 -100 q 90 -42 79 -56 q 127 0 100 -29 l 123 0 l 123 705 l 239 705 l 239 0 z "},"İ":{"ha":404,"x_min":119,"x_max":283,"o":"m 201 1226 q 260 1202 235 1226 q 283 1145 283 1180 q 260 1087 283 1109 q 201 1063 235 1063 q 144 1087 170 1063 q 119 1145 119 1111 q 144 1202 119 1179 q 201 1226 170 1226 m 138 975 l 266 975 l 266 0 l 138 0 l 138 975 z "},"ı":{"ha":362,"x_min":123,"x_max":239,"o":"m 123 705 l 239 705 l 239 0 l 123 0 l 123 705 z "},"Ĳ":{"ha":768,"x_min":122,"x_max":646,"o":"m 122 975 l 250 975 l 250 0 l 122 0 l 122 975 m 646 240 q 637 105 646 161 q 609 6 629 50 q 556 -74 589 -37 q 475 -151 523 -110 q 434 -115 456 -134 q 392 -74 413 -96 q 453 -10 429 -37 q 491 49 477 18 q 512 121 506 80 q 519 224 519 161 l 519 975 l 646 975 l 646 240 z "},"ĳ":{"ha":673,"x_min":88,"x_max":585,"o":"m 167 979 q 197 972 183 979 q 221 956 211 966 q 237 932 231 946 q 243 901 243 918 q 237 871 243 886 q 221 846 231 857 q 196 829 210 836 q 167 823 182 823 q 136 829 151 823 q 111 846 122 836 q 94 871 100 857 q 88 901 88 885 q 94 932 88 918 q 111 956 100 946 q 136 972 122 966 q 167 979 151 979 m 509 979 q 539 972 525 979 q 563 956 553 966 q 579 932 573 946 q 585 901 585 918 q 579 871 585 886 q 563 846 573 857 q 538 829 552 836 q 509 823 524 823 q 478 829 492 823 q 453 846 464 836 q 436 871 442 857 q 430 901 430 885 q 436 932 430 918 q 453 956 442 946 q 478 972 464 966 q 509 979 492 979 m 107 705 l 224 705 l 224 0 l 107 0 l 107 705 m 566 78 q 558 -47 566 4 q 532 -139 551 -99 q 483 -212 513 -178 q 410 -283 453 -245 q 371 -250 391 -267 q 332 -213 351 -233 q 388 -153 365 -178 q 424 -98 410 -127 q 444 -32 437 -69 q 450 63 450 6 l 450 705 l 566 705 l 566 78 z "},"Ķ":{"ha":890,"x_min":125,"x_max":806,"o":"m 688 990 l 774 921 l 399 477 l 806 0 l 653 0 l 252 471 l 252 0 l 125 0 l 125 975 l 252 975 l 252 473 l 688 990 m 368 -118 q 413 -93 394 -100 q 450 -86 431 -86 q 504 -99 484 -86 q 533 -133 524 -113 q 541 -180 543 -154 q 529 -233 540 -207 q 509 -275 522 -251 q 484 -324 497 -298 q 456 -374 470 -349 q 432 -416 442 -398 l 349 -416 l 403 -238 l 368 -118 z "},"ķ":{"ha":704,"x_min":115,"x_max":697,"o":"m 115 977 l 231 977 l 231 389 l 549 721 l 625 646 l 351 363 l 697 0 l 552 0 l 231 339 l 231 0 l 115 0 l 115 977 m 326 -244 l 291 -124 q 373 -92 335 -92 q 439 -115 415 -92 q 464 -170 463 -137 q 452 -239 465 -203 q 355 -422 433 -285 l 272 -422 l 326 -244 z "},"Ĺ":{"ha":707,"x_min":132,"x_max":659,"o":"m 225 1243 l 191 1363 q 273 1395 235 1395 q 339 1373 315 1395 q 363 1317 363 1350 q 351 1248 364 1284 q 254 1065 332 1202 l 172 1065 l 225 1243 m 132 975 l 260 975 l 260 104 l 659 104 l 659 0 l 132 0 l 132 975 z "},"ĺ":{"ha":322,"x_min":95,"x_max":325,"o":"m 152 1370 q 196 1395 178 1388 q 234 1402 215 1402 q 288 1389 267 1402 q 317 1355 308 1375 q 325 1308 326 1334 q 313 1255 323 1281 q 293 1213 305 1237 q 267 1164 281 1190 q 240 1114 254 1139 q 216 1072 226 1090 l 133 1072 l 186 1250 l 152 1370 m 212 274 q 213 181 212 218 q 216 115 214 143 q 223 63 218 86 q 234 12 227 40 q 177 -2 205 5 q 120 -13 149 -8 q 101 68 106 31 q 95 140 95 104 l 95 975 l 212 975 l 212 274 z "},"Ļ":{"ha":707,"x_min":132,"x_max":659,"o":"m 132 975 l 260 975 l 260 104 l 659 104 l 659 0 l 132 0 l 132 975 m 338 -244 l 304 -124 q 386 -92 348 -92 q 452 -115 428 -92 q 477 -170 476 -137 q 465 -239 477 -203 q 368 -422 446 -285 l 285 -422 l 338 -244 z "},"ļ":{"ha":322,"x_min":68,"x_max":260,"o":"m 212 274 q 213 181 212 218 q 216 115 214 143 q 223 63 218 86 q 234 12 227 40 q 177 -2 205 5 q 120 -13 149 -8 q 101 68 106 31 q 95 140 95 104 l 95 975 l 212 975 l 212 274 m 87 -118 q 131 -93 113 -100 q 169 -86 150 -86 q 222 -99 202 -86 q 252 -133 243 -113 q 260 -180 261 -154 q 248 -233 258 -207 q 228 -275 240 -251 q 202 -324 216 -298 q 175 -374 189 -349 q 151 -416 161 -398 l 68 -416 l 121 -238 l 87 -118 z "},"Ľ":{"ha":707,"x_min":132,"x_max":684,"o":"m 546 838 l 511 958 q 593 990 555 990 q 660 968 635 990 q 684 912 684 945 q 672 843 685 880 q 575 661 653 798 l 492 661 l 546 838 m 132 975 l 260 975 l 260 104 l 659 104 l 659 0 l 132 0 l 132 975 z "},"ľ":{"ha":322,"x_min":95,"x_max":530,"o":"m 338 1059 q 388 1086 367 1079 q 429 1094 408 1094 q 489 1080 467 1094 q 522 1043 512 1065 q 530 991 532 1020 q 515 932 528 962 q 494 886 507 913 q 466 832 481 860 q 435 778 450 804 q 409 731 420 751 l 318 731 l 377 927 l 338 1059 m 212 274 q 213 181 212 218 q 216 115 214 143 q 223 63 218 86 q 234 12 227 40 q 177 -2 205 5 q 120 -13 149 -8 q 101 68 106 31 q 95 140 95 104 l 95 975 l 212 975 l 212 274 z "},"Ŀ":{"ha":700,"x_min":102,"x_max":629,"o":"m 629 0 l 102 0 l 102 975 l 229 975 l 229 104 l 629 104 l 629 0 m 465 626 q 496 620 481 626 q 523 602 511 613 q 540 577 534 591 q 547 545 547 562 q 540 512 547 527 q 522 486 533 496 q 496 469 511 475 q 465 463 481 463 q 433 470 448 463 q 407 487 418 476 q 389 513 396 498 q 382 545 382 528 q 390 577 382 562 q 408 602 397 591 q 434 620 420 613 q 465 626 449 626 z "},"ŀ":{"ha":469,"x_min":95,"x_max":456,"o":"m 212 274 q 213 181 212 218 q 216 115 214 143 q 223 63 218 86 q 234 12 227 40 q 177 -2 205 5 q 120 -13 149 -8 q 101 68 106 31 q 95 140 95 104 l 95 975 l 212 975 l 212 274 m 374 590 q 406 584 391 590 q 432 566 420 577 q 449 541 443 555 q 456 509 456 526 q 449 476 456 491 q 431 450 442 460 q 405 433 420 439 q 374 427 390 427 q 342 434 357 427 q 316 451 328 440 q 298 477 305 463 q 292 509 292 492 q 299 541 292 526 q 317 566 306 555 q 343 584 329 577 q 374 590 358 590 z "},"Ł":{"ha":730,"x_min":0,"x_max":667,"o":"m 267 106 l 667 106 l 667 0 l 140 0 l 140 433 l 0 358 l 0 460 l 140 536 l 140 975 l 267 975 l 267 604 l 500 728 l 500 626 l 267 501 l 267 106 z "},"ł":{"ha":309,"x_min":-31,"x_max":324,"o":"m 324 659 l 324 557 l 205 490 l 205 274 q 206 181 205 218 q 210 115 208 143 q 216 63 212 86 q 227 12 220 40 q 170 -2 199 5 q 113 -13 142 -8 q 94 68 100 31 q 88 140 88 104 l 88 424 l -31 357 l -31 459 l 88 526 l 88 975 l 205 975 l 205 592 l 324 659 z "},"Ń":{"ha":1037,"x_min":121,"x_max":916,"o":"m 537 1243 l 503 1363 q 585 1395 547 1395 q 651 1373 627 1395 q 675 1317 675 1350 q 663 1248 676 1284 q 566 1065 644 1202 l 484 1065 l 537 1243 m 916 -7 l 767 -7 l 248 808 l 248 0 l 121 0 l 121 975 l 270 975 l 789 160 l 789 975 l 916 975 l 916 -7 z "},"ń":{"ha":778,"x_min":92,"x_max":692,"o":"m 408 999 l 373 1119 q 455 1151 417 1151 q 521 1128 497 1151 q 546 1073 545 1106 q 534 1004 547 1040 q 437 821 515 958 l 354 821 l 408 999 m 92 693 l 204 718 q 222 640 217 677 q 229 567 225 621 l 243 567 q 336 676 281 635 q 463 721 396 721 q 617 672 564 721 q 680 545 663 631 q 692 372 692 487 l 692 0 l 575 0 l 575 404 q 555 549 575 505 q 438 613 526 613 q 316 553 376 613 q 231 436 276 513 l 231 0 l 114 0 l 114 434 q 109 592 114 526 q 92 693 106 633 z "},"Ņ":{"ha":1037,"x_min":121,"x_max":916,"o":"m 916 -7 l 767 -7 l 248 808 l 248 0 l 121 0 l 121 975 l 270 975 l 789 160 l 789 975 l 916 975 l 916 -7 m 453 -244 l 418 -124 q 500 -92 463 -92 q 567 -115 543 -92 q 591 -170 591 -137 q 579 -239 592 -203 q 482 -422 560 -285 l 399 -422 l 453 -244 z "},"ņ":{"ha":778,"x_min":92,"x_max":692,"o":"m 92 693 l 204 718 q 222 640 217 677 q 229 567 225 621 l 243 567 q 336 676 281 635 q 463 721 396 721 q 617 672 564 721 q 680 545 663 631 q 692 372 692 487 l 692 0 l 575 0 l 575 404 q 555 549 575 505 q 438 613 526 613 q 316 553 376 613 q 231 436 276 513 l 231 0 l 114 0 l 114 434 q 109 592 114 526 q 92 693 106 633 m 344 -244 l 309 -124 q 391 -92 353 -92 q 457 -115 433 -92 q 482 -170 481 -137 q 470 -239 483 -203 q 373 -422 451 -285 l 290 -422 l 344 -244 z "},"Ň":{"ha":1037,"x_min":121,"x_max":916,"o":"m 521 1194 l 685 1290 l 733 1231 l 521 1059 l 306 1231 l 354 1290 l 521 1194 m 916 -7 l 767 -7 l 248 808 l 248 0 l 121 0 l 121 975 l 270 975 l 789 160 l 789 975 l 916 975 l 916 -7 z "},"ň":{"ha":778,"x_min":92,"x_max":692,"o":"m 385 943 l 549 1039 l 597 980 l 385 808 l 170 980 l 218 1039 l 385 943 m 92 693 l 204 718 q 222 640 217 677 q 229 567 225 621 l 243 567 q 336 676 281 635 q 463 721 396 721 q 617 672 564 721 q 680 545 663 631 q 692 372 692 487 l 692 0 l 575 0 l 575 404 q 555 549 575 505 q 438 613 526 613 q 316 553 376 613 q 231 436 276 513 l 231 0 l 114 0 l 114 434 q 109 592 114 526 q 92 693 106 633 z "},"Ŋ":{"ha":1031,"x_min":122,"x_max":916,"o":"m 789 975 l 916 975 l 916 -7 q 880 -184 916 -104 q 686 -357 830 -292 l 629 -284 q 649 -267 632 -281 q 670 -249 667 -252 q 687 -234 674 -246 q 706 -217 701 -222 q 720 -201 711 -212 q 735 -183 729 -191 q 747 -165 741 -174 q 787 -6 781 -107 l 249 810 l 249 0 l 122 0 l 122 975 l 271 975 l 789 192 l 789 975 z "},"ŋ":{"ha":807,"x_min":92,"x_max":692,"o":"m 229 567 l 243 567 q 336 676 281 635 q 463 721 396 721 q 617 672 564 721 q 680 545 663 631 q 692 372 692 487 l 692 98 q 667 -91 692 -26 q 567 -237 643 -153 l 528 -279 l 450 -215 q 524 -117 506 -148 q 540 -87 525 -115 q 575 89 575 -14 l 575 404 q 555 549 575 505 q 438 613 526 613 q 316 553 376 613 q 231 436 276 513 l 231 0 l 114 0 l 114 434 q 109 592 114 526 q 92 693 106 633 l 204 718 q 222 640 217 677 q 229 567 225 621 z "},"Ō":{"ha":1005,"x_min":75,"x_max":930,"o":"m 328 1166 l 676 1166 l 676 1084 l 328 1084 l 328 1166 m 930 488 q 820 113 930 243 q 503 -16 709 -16 q 186 113 298 -16 q 75 488 75 242 q 186 861 75 732 q 503 990 298 990 q 820 860 709 990 q 930 488 930 730 m 800 488 q 725 780 800 676 q 502 884 651 884 q 279 779 352 884 q 205 488 205 674 q 223 324 205 396 q 276 199 240 252 q 369 118 311 146 q 502 90 426 90 q 725 194 651 90 q 800 488 800 298 z "},"ō":{"ha":755,"x_min":68,"x_max":687,"o":"m 551 903 l 551 821 l 203 821 l 203 903 l 551 903 m 376 721 q 446 716 410 721 q 516 696 481 711 q 582 656 551 682 q 636 590 612 631 q 673 491 660 549 q 687 353 687 433 q 673 215 687 273 q 636 116 660 157 q 582 49 612 75 q 516 9 551 23 q 446 -11 481 -6 q 376 -16 410 -16 q 308 -11 344 -16 q 238 9 273 -6 q 173 49 203 23 q 119 116 142 75 q 81 215 95 157 q 68 353 68 273 q 81 491 68 433 q 119 590 95 549 q 173 656 142 631 q 238 696 203 682 q 308 716 273 711 q 376 721 343 721 m 376 625 q 303 613 338 625 q 243 570 269 601 q 201 487 217 539 q 186 353 186 435 q 201 219 186 271 q 243 136 217 166 q 303 93 269 104 q 376 81 338 81 q 451 93 416 81 q 512 136 486 104 q 554 219 538 166 q 569 353 569 271 q 554 487 569 435 q 512 570 538 539 q 451 613 486 601 q 376 625 416 625 z "},"Ő":{"ha":1005,"x_min":75,"x_max":930,"o":"m 389 1243 l 355 1363 q 437 1395 399 1395 q 503 1373 479 1395 q 528 1317 527 1350 q 515 1248 528 1284 q 418 1065 496 1202 l 336 1065 l 389 1243 m 636 1243 l 602 1363 q 684 1395 646 1395 q 750 1373 726 1395 q 774 1317 774 1350 q 762 1248 775 1284 q 665 1065 743 1202 l 583 1065 l 636 1243 m 930 488 q 820 113 930 243 q 503 -16 709 -16 q 186 113 298 -16 q 75 488 75 242 q 186 861 75 732 q 503 990 298 990 q 820 860 709 990 q 930 488 930 730 m 800 488 q 725 780 800 676 q 502 884 651 884 q 279 779 352 884 q 205 488 205 674 q 223 324 205 396 q 276 199 240 252 q 369 118 311 146 q 502 90 426 90 q 725 194 651 90 q 800 488 800 298 z "},"ő":{"ha":755,"x_min":68,"x_max":687,"o":"m 223 1119 q 268 1144 249 1137 q 305 1151 286 1151 q 359 1138 338 1151 q 388 1104 379 1124 q 396 1057 397 1083 q 384 1004 395 1030 q 364 962 376 986 q 338 913 352 939 q 311 863 325 888 q 287 821 297 839 l 204 821 l 258 999 l 223 1119 m 470 1119 q 514 1144 496 1137 q 552 1151 533 1151 q 606 1138 585 1151 q 635 1104 626 1124 q 643 1057 644 1083 q 631 1004 642 1030 q 611 962 623 986 q 585 913 599 939 q 558 863 572 888 q 534 821 544 839 l 451 821 l 505 999 l 470 1119 m 376 721 q 446 716 410 721 q 516 696 481 711 q 582 656 551 682 q 636 590 612 631 q 673 491 660 549 q 687 353 687 433 q 673 215 687 273 q 636 116 660 157 q 582 49 612 75 q 516 9 551 23 q 446 -11 481 -6 q 376 -16 410 -16 q 308 -11 344 -16 q 238 9 273 -6 q 173 49 203 23 q 119 116 142 75 q 81 215 95 157 q 68 353 68 273 q 81 491 68 433 q 119 590 95 549 q 173 656 142 631 q 238 696 203 682 q 308 716 273 711 q 376 721 343 721 m 376 625 q 303 613 338 625 q 243 570 269 601 q 201 487 217 539 q 186 353 186 435 q 201 219 186 271 q 243 136 217 166 q 303 93 269 104 q 376 81 338 81 q 451 93 416 81 q 512 136 486 104 q 554 219 538 166 q 569 353 569 271 q 554 487 569 435 q 512 570 538 539 q 451 613 486 601 q 376 625 416 625 z "},"Œ":{"ha":1344,"x_min":81,"x_max":1257,"o":"m 701 939 l 701 975 l 1242 975 l 1242 871 l 829 871 l 829 602 l 1122 602 l 1122 496 l 829 496 l 829 104 l 1257 104 l 1257 0 l 701 0 l 701 36 q 509 -16 624 -16 q 318 22 403 -16 q 153 172 211 71 q 81 491 81 296 q 153 806 81 685 q 318 955 212 908 q 509 991 403 991 q 701 939 624 991 m 701 159 l 701 817 q 509 884 627 884 q 301 800 377 884 q 212 491 212 701 q 301 177 212 279 q 509 90 378 90 q 701 159 628 90 z "},"œ":{"ha":1254,"x_min":68,"x_max":1185,"o":"m 1185 318 l 686 318 q 738 143 688 205 q 896 82 789 82 q 964 88 932 82 q 1038 105 997 94 q 1075 117 1056 111 q 1114 131 1094 123 l 1147 39 q 1038 4 1093 18 q 937 -14 983 -10 q 912 -16 924 -15 q 888 -16 900 -16 q 747 9 806 -16 q 648 81 688 34 q 638 92 643 86 q 629 105 634 98 q 577 45 606 68 q 516 9 548 22 q 446 -11 481 -6 q 376 -16 410 -16 q 308 -11 344 -16 q 238 9 273 -6 q 173 49 203 23 q 119 116 142 75 q 81 215 95 157 q 68 353 68 273 q 81 491 68 433 q 119 590 95 549 q 173 656 142 631 q 238 696 203 682 q 308 716 273 711 q 376 721 343 721 q 446 716 410 721 q 516 696 481 711 q 580 657 549 682 q 633 594 610 633 q 695 663 660 635 q 775 705 730 690 q 881 721 821 721 q 996 704 941 721 q 1093 644 1050 686 q 1160 531 1135 601 q 1185 355 1185 460 l 1185 318 m 512 136 q 554 219 538 166 q 569 353 569 271 q 554 487 569 435 q 512 570 538 539 q 451 613 486 601 q 376 625 416 625 q 303 613 338 625 q 243 570 269 601 q 201 487 217 539 q 186 353 186 435 q 201 219 186 271 q 243 136 217 166 q 303 93 269 104 q 376 81 338 81 q 451 93 416 81 q 512 136 486 104 m 1068 412 q 1016 572 1063 522 q 881 623 968 623 q 748 572 793 623 q 692 412 702 522 l 1068 412 z "},"Ŕ":{"ha":865,"x_min":125,"x_max":827,"o":"m 355 1363 q 400 1388 381 1381 q 437 1395 418 1395 q 491 1382 471 1395 q 520 1348 511 1369 q 528 1301 530 1327 q 516 1248 527 1274 q 496 1206 509 1230 q 471 1157 484 1183 q 443 1107 457 1132 q 419 1065 429 1083 l 336 1065 l 390 1243 l 355 1363 m 431 975 q 552 960 495 975 q 654 913 610 945 q 724 829 699 880 q 749 709 749 778 q 724 589 749 640 q 654 505 699 538 q 577 465 619 479 q 486 445 534 450 l 486 444 q 529 407 505 431 q 578 352 553 384 q 631 283 604 320 q 686 205 659 246 l 827 0 l 678 0 l 525 237 q 453 342 484 302 q 396 406 423 382 q 342 437 370 429 q 277 445 314 445 l 252 445 l 252 0 l 125 0 l 125 975 l 431 975 m 431 544 q 509 553 473 544 q 569 583 544 563 q 609 634 595 603 q 623 709 623 665 q 609 783 623 752 q 569 834 595 814 q 509 864 544 854 q 431 873 473 873 l 252 873 l 252 544 l 431 544 z "},"ŕ":{"ha":565,"x_min":90,"x_max":536,"o":"m 259 1099 q 303 1124 285 1117 q 341 1131 322 1131 q 395 1117 374 1131 q 424 1083 415 1104 q 432 1036 433 1063 q 420 983 431 1010 q 400 942 412 966 q 374 893 388 918 q 347 843 361 867 q 323 801 333 819 l 240 801 l 294 979 l 259 1099 m 241 542 q 286 618 262 584 q 339 675 310 652 q 397 710 366 699 q 470 721 429 721 q 502 720 484 721 q 536 715 519 718 q 529 651 533 681 q 519 591 526 621 q 457 600 486 597 q 404 598 429 602 q 352 578 374 593 q 312 539 330 564 q 275 482 293 515 q 237 405 258 448 l 237 0 l 120 0 l 120 435 q 119 510 120 477 q 115 572 118 543 q 106 630 112 602 q 90 694 100 659 q 145 708 118 702 q 201 720 173 714 q 217 671 211 692 q 226 630 222 650 q 231 590 229 610 q 235 542 233 569 l 241 542 z "},"Ŗ":{"ha":865,"x_min":125,"x_max":827,"o":"m 431 975 q 552 960 495 975 q 654 913 610 945 q 724 829 699 880 q 749 709 749 778 q 724 589 749 640 q 654 505 699 538 q 577 465 619 479 q 486 445 534 450 l 486 444 q 529 407 505 431 q 578 352 553 384 q 631 283 604 320 q 686 205 659 246 l 827 0 l 678 0 l 525 237 q 453 342 484 302 q 396 406 423 382 q 342 437 370 429 q 277 445 314 445 l 252 445 l 252 0 l 125 0 l 125 975 l 431 975 m 431 544 q 509 553 473 544 q 569 583 544 563 q 609 634 595 603 q 623 709 623 665 q 609 783 623 752 q 569 834 595 814 q 509 864 544 854 q 431 873 473 873 l 252 873 l 252 544 l 431 544 m 356 -124 q 400 -99 382 -106 q 438 -92 419 -92 q 492 -105 471 -92 q 521 -139 512 -119 q 529 -186 530 -160 q 517 -239 528 -213 q 497 -281 509 -257 q 471 -330 485 -304 q 444 -380 458 -355 q 420 -422 430 -404 l 337 -422 l 391 -244 l 356 -124 z "},"ŗ":{"ha":565,"x_min":85,"x_max":536,"o":"m 241 542 q 286 618 262 584 q 339 675 310 652 q 397 710 366 699 q 470 721 429 721 q 502 720 484 721 q 536 715 519 718 q 529 651 533 681 q 519 591 526 621 q 457 600 486 597 q 404 598 429 602 q 352 578 374 593 q 312 539 330 564 q 275 482 293 515 q 237 405 258 448 l 237 0 l 120 0 l 120 435 q 119 510 120 477 q 115 572 118 543 q 106 630 112 602 q 90 694 100 659 q 145 708 118 702 q 201 720 173 714 q 217 671 211 692 q 226 630 222 650 q 231 590 229 610 q 235 542 233 569 l 241 542 m 104 -118 q 148 -93 130 -100 q 186 -86 167 -86 q 239 -99 219 -86 q 269 -133 260 -113 q 277 -180 278 -154 q 264 -233 275 -207 q 245 -275 257 -251 q 219 -324 233 -298 q 192 -374 205 -349 q 168 -416 178 -398 l 85 -416 l 138 -238 l 104 -118 z "},"Ř":{"ha":865,"x_min":125,"x_max":827,"o":"m 549 1290 l 597 1231 l 385 1059 l 170 1231 l 218 1290 l 385 1194 l 549 1290 m 431 975 q 552 960 495 975 q 654 913 610 945 q 724 829 699 880 q 749 709 749 778 q 724 589 749 640 q 654 505 699 538 q 577 465 619 479 q 486 445 534 450 l 486 444 q 529 407 505 431 q 578 352 553 384 q 631 283 604 320 q 686 205 659 246 l 827 0 l 678 0 l 525 237 q 453 342 484 302 q 396 406 423 382 q 342 437 370 429 q 277 445 314 445 l 252 445 l 252 0 l 125 0 l 125 975 l 431 975 m 431 544 q 509 553 473 544 q 569 583 544 563 q 609 634 595 603 q 623 709 623 665 q 609 783 623 752 q 569 834 595 814 q 509 864 544 854 q 431 873 473 873 l 252 873 l 252 544 l 431 544 z "},"ř":{"ha":565,"x_min":68,"x_max":536,"o":"m 447 1032 l 495 973 l 283 801 l 68 973 l 116 1032 l 283 937 l 447 1032 m 241 542 q 286 618 262 584 q 339 675 310 652 q 397 710 366 699 q 470 721 429 721 q 502 720 484 721 q 536 715 519 718 q 529 651 533 681 q 519 591 526 621 q 457 600 486 597 q 404 598 429 602 q 352 578 374 593 q 312 539 330 564 q 275 482 293 515 q 237 405 258 448 l 237 0 l 120 0 l 120 435 q 119 510 120 477 q 115 572 118 543 q 106 630 112 602 q 90 694 100 659 q 145 708 118 702 q 201 720 173 714 q 217 671 211 692 q 226 630 222 650 q 231 590 229 610 q 235 542 233 569 l 241 542 z "},"Ś":{"ha":811,"x_min":78,"x_max":736,"o":"m 376 1368 q 421 1393 402 1386 q 458 1400 439 1400 q 512 1387 492 1400 q 542 1353 532 1373 q 549 1305 551 1332 q 537 1253 548 1279 q 517 1211 530 1235 q 492 1162 505 1187 q 464 1112 478 1137 q 440 1070 450 1088 l 357 1070 l 411 1248 l 376 1368 m 119 142 q 177 121 146 131 q 240 105 208 112 q 305 94 273 98 q 369 90 338 90 q 466 102 422 90 q 541 138 509 115 q 589 196 572 161 q 606 274 606 230 q 590 346 606 318 q 544 393 574 374 q 469 426 513 412 q 369 453 425 439 q 254 489 307 469 q 163 541 201 509 q 103 620 125 573 q 81 738 81 667 q 104 842 81 795 q 170 922 127 889 q 271 972 212 955 q 401 990 330 990 q 471 986 435 990 q 543 974 507 981 q 612 956 578 966 q 675 932 646 945 l 635 831 q 585 850 610 841 q 531 867 559 860 q 470 879 503 875 q 401 884 438 884 q 330 876 363 884 q 270 850 296 867 q 228 805 243 833 q 212 738 212 777 q 228 666 212 694 q 274 618 244 637 q 349 586 304 600 q 449 559 393 573 q 564 523 511 543 q 655 471 616 503 q 715 391 693 439 q 736 274 736 344 q 709 145 736 200 q 632 55 682 91 q 516 1 583 19 q 369 -16 448 -16 q 78 41 219 -16 l 119 142 z "},"ś":{"ha":648,"x_min":62,"x_max":580,"o":"m 300 1099 q 345 1124 326 1117 q 382 1131 363 1131 q 436 1117 416 1131 q 466 1083 456 1104 q 473 1036 475 1063 q 461 983 472 1010 q 441 942 454 966 q 416 893 429 918 q 388 843 402 867 q 364 801 374 819 l 281 801 l 335 979 l 300 1099 m 323 721 q 435 709 379 721 q 539 677 491 698 q 519 635 530 656 q 497 593 509 614 q 459 607 480 600 q 416 618 439 614 q 369 626 393 623 q 322 629 345 629 q 274 624 297 629 q 232 608 250 619 q 203 577 214 596 q 193 531 193 559 q 205 483 193 503 q 238 451 217 464 q 287 429 259 438 q 347 413 315 420 q 439 386 397 401 q 513 346 482 370 q 562 286 545 321 q 580 197 580 250 q 558 101 580 141 q 498 35 536 61 q 410 -4 460 9 q 303 -16 360 -16 q 242 -13 273 -16 q 179 -2 210 -9 q 119 16 149 5 q 62 38 89 26 q 82 80 72 60 q 104 121 93 101 q 152 103 127 112 q 203 89 177 95 q 256 79 230 83 q 305 75 281 75 q 363 82 335 75 q 413 103 391 89 q 449 141 435 118 q 462 197 462 164 q 449 247 462 227 q 416 280 437 267 q 367 301 395 293 q 307 317 338 310 q 217 344 260 329 q 143 383 175 359 q 93 443 112 407 q 75 531 75 478 q 95 616 75 581 q 150 675 115 652 q 229 710 184 699 q 323 721 274 721 z "},"Ş":{"ha":811,"x_min":78,"x_max":736,"o":"m 635 831 q 585 850 610 841 q 531 867 559 860 q 470 879 503 875 q 401 884 438 884 q 330 876 363 884 q 270 850 296 867 q 228 805 243 833 q 212 738 212 777 q 228 666 212 694 q 274 618 244 637 q 349 586 304 600 q 449 559 393 573 q 564 523 511 543 q 655 471 616 503 q 715 391 693 439 q 736 274 736 344 q 715 160 736 210 q 656 75 694 111 q 566 18 618 39 q 449 -12 513 -3 l 397 -76 q 473 -116 450 -92 q 495 -178 495 -140 q 484 -228 495 -207 q 454 -263 473 -249 q 408 -283 435 -277 q 351 -290 382 -290 q 292 -284 322 -290 q 231 -269 262 -278 l 265 -206 q 314 -228 292 -220 q 355 -235 335 -235 q 397 -220 383 -235 q 410 -184 410 -204 q 385 -143 410 -160 q 309 -111 359 -127 l 366 -16 q 78 41 218 -15 l 119 142 q 177 121 146 131 q 240 105 208 112 q 305 94 273 98 q 369 90 338 90 q 466 102 422 90 q 541 138 509 115 q 589 196 572 161 q 606 274 606 230 q 590 346 606 318 q 544 393 574 374 q 469 426 513 412 q 369 453 425 439 q 254 489 307 469 q 163 541 201 509 q 103 620 125 573 q 81 738 81 667 q 104 842 81 795 q 170 922 127 889 q 271 972 212 955 q 401 990 330 990 q 471 986 435 990 q 543 974 507 981 q 612 956 578 966 q 675 932 646 945 l 635 831 z "},"ş":{"ha":648,"x_min":62,"x_max":580,"o":"m 285 -16 q 170 1 229 -14 q 62 38 111 15 q 82 80 72 60 q 104 121 93 101 q 152 103 127 112 q 203 89 177 95 q 256 79 230 83 q 305 75 281 75 q 363 82 335 75 q 413 103 391 89 q 449 141 435 118 q 462 197 462 164 q 449 247 462 227 q 416 280 437 267 q 367 301 395 293 q 307 317 338 310 q 217 344 260 329 q 143 383 175 359 q 93 443 112 407 q 75 531 75 478 q 95 616 75 581 q 150 675 115 652 q 229 710 184 699 q 323 721 274 721 q 435 709 379 721 q 539 677 491 698 q 519 635 530 656 q 497 593 509 614 q 459 607 480 600 q 416 618 439 614 q 369 626 393 623 q 322 629 345 629 q 274 624 297 629 q 232 608 250 619 q 203 577 214 596 q 193 531 193 559 q 205 483 193 503 q 238 451 217 464 q 287 429 259 438 q 347 413 315 420 q 439 386 397 401 q 513 346 482 370 q 562 286 545 321 q 580 197 580 250 q 564 113 580 149 q 519 51 547 77 q 451 9 490 25 q 367 -12 412 -6 l 316 -76 q 391 -116 369 -92 q 414 -178 414 -140 q 403 -228 414 -207 q 373 -263 392 -249 q 327 -283 353 -277 q 269 -290 300 -290 q 211 -284 241 -290 q 150 -269 181 -278 l 184 -206 q 232 -228 211 -220 q 273 -235 254 -235 q 315 -220 302 -235 q 329 -184 329 -204 q 303 -143 329 -160 q 227 -111 278 -127 l 285 -16 z "},"Š":{"ha":811,"x_min":78,"x_max":736,"o":"m 564 1301 l 612 1242 l 400 1070 l 185 1242 l 233 1301 l 400 1206 l 564 1301 m 119 142 q 177 121 146 131 q 240 105 208 112 q 305 94 273 98 q 369 90 338 90 q 466 102 422 90 q 541 138 509 115 q 589 196 572 161 q 606 274 606 230 q 590 346 606 318 q 544 393 574 374 q 469 426 513 412 q 369 453 425 439 q 254 489 307 469 q 163 541 201 509 q 103 620 125 573 q 81 738 81 667 q 104 842 81 795 q 170 922 127 889 q 271 972 212 955 q 401 990 330 990 q 471 986 435 990 q 543 974 507 981 q 612 956 578 966 q 675 932 646 945 l 635 831 q 585 850 610 841 q 531 867 559 860 q 470 879 503 875 q 401 884 438 884 q 330 876 363 884 q 270 850 296 867 q 228 805 243 833 q 212 738 212 777 q 228 666 212 694 q 274 618 244 637 q 349 586 304 600 q 449 559 393 573 q 564 523 511 543 q 655 471 616 503 q 715 391 693 439 q 736 274 736 344 q 709 145 736 200 q 632 55 682 91 q 516 1 583 19 q 369 -16 448 -16 q 78 41 219 -16 l 119 142 z "},"š":{"ha":648,"x_min":62,"x_max":580,"o":"m 488 1032 l 536 973 l 324 801 l 109 973 l 157 1032 l 324 937 l 488 1032 m 323 721 q 435 709 379 721 q 539 677 491 698 q 519 635 530 656 q 497 593 509 614 q 459 607 480 600 q 416 618 439 614 q 369 626 393 623 q 322 629 345 629 q 274 624 297 629 q 232 608 250 619 q 203 577 214 596 q 193 531 193 559 q 205 483 193 503 q 238 451 217 464 q 287 429 259 438 q 347 413 315 420 q 439 386 397 401 q 513 346 482 370 q 562 286 545 321 q 580 197 580 250 q 558 101 580 141 q 498 35 536 61 q 410 -4 460 9 q 303 -16 360 -16 q 242 -13 273 -16 q 179 -2 210 -9 q 119 16 149 5 q 62 38 89 26 q 82 80 72 60 q 104 121 93 101 q 152 103 127 112 q 203 89 177 95 q 256 79 230 83 q 305 75 281 75 q 363 82 335 75 q 413 103 391 89 q 449 141 435 118 q 462 197 462 164 q 449 247 462 227 q 416 280 437 267 q 367 301 395 293 q 307 317 338 310 q 217 344 260 329 q 143 383 175 359 q 93 443 112 407 q 75 531 75 478 q 95 616 75 581 q 150 675 115 652 q 229 710 184 699 q 323 721 274 721 z "},"Ţ":{"ha":839,"x_min":54,"x_max":785,"o":"m 785 871 l 485 871 l 485 0 l 492 0 l 431 -76 q 506 -116 484 -92 q 529 -178 529 -140 q 490 -262 529 -234 q 385 -290 450 -290 q 265 -269 333 -290 l 299 -206 q 389 -235 347 -235 q 430 -220 416 -235 q 444 -184 444 -205 q 420 -144 444 -161 q 342 -111 395 -127 l 410 0 l 357 0 l 357 871 l 54 871 l 54 975 l 785 975 l 785 871 z "},"ţ":{"ha":584,"x_min":75,"x_max":530,"o":"m 530 607 l 293 607 l 293 202 q 295 140 293 161 q 307 106 298 119 q 378 82 325 82 q 436 88 408 82 q 488 102 465 94 q 523 11 507 60 q 403 -14 467 -8 l 354 -76 q 429 -116 406 -92 q 452 -178 452 -140 q 412 -262 452 -234 q 307 -290 373 -290 q 188 -269 256 -290 l 222 -206 q 311 -235 269 -235 q 353 -220 338 -235 q 367 -184 367 -205 q 342 -144 367 -161 q 265 -111 318 -127 l 323 -15 q 211 40 243 -8 q 183 115 190 71 q 176 235 176 158 l 176 607 l 75 607 l 75 705 l 176 705 l 176 867 l 293 867 l 293 705 l 530 705 l 530 607 z "},"Ť":{"ha":839,"x_min":54,"x_max":785,"o":"m 422 1194 l 586 1290 l 634 1231 l 422 1059 l 207 1231 l 255 1290 l 422 1194 m 54 975 l 785 975 l 785 871 l 485 871 l 485 0 l 357 0 l 357 871 l 54 871 l 54 975 z "},"ť":{"ha":584,"x_min":75,"x_max":807,"o":"m 669 717 l 634 837 q 716 869 678 869 q 782 846 758 869 q 807 791 806 824 q 795 722 808 758 q 698 539 776 676 l 615 539 l 669 717 m 176 867 l 293 867 l 293 705 l 530 705 l 530 607 l 293 607 l 293 202 q 295 140 293 161 q 307 106 298 119 q 378 82 325 82 q 436 88 408 82 q 488 102 465 94 q 523 11 507 60 q 361 -16 443 -16 q 267 -3 302 -16 q 211 40 231 10 q 183 115 190 71 q 176 235 176 158 l 176 607 l 75 607 l 75 705 l 176 705 l 176 867 z "},"Ŧ":{"ha":839,"x_min":54,"x_max":785,"o":"m 785 871 l 485 871 l 485 574 l 606 574 l 606 492 l 485 492 l 485 0 l 357 0 l 357 492 l 258 492 l 258 574 l 357 574 l 357 871 l 54 871 l 54 975 l 785 975 l 785 871 z "},"ŧ":{"ha":584,"x_min":73,"x_max":530,"o":"m 530 607 l 293 607 l 293 408 l 420 408 l 420 326 l 293 326 l 293 202 q 295 140 293 161 q 307 106 298 119 q 378 82 325 82 q 436 88 408 82 q 488 102 465 94 q 523 11 507 60 q 361 -16 443 -16 q 267 -3 302 -16 q 211 40 231 10 q 183 115 190 71 q 176 235 176 158 l 176 326 l 73 326 l 73 408 l 176 408 l 176 607 l 75 607 l 75 705 l 176 705 l 176 867 l 293 867 l 293 705 l 530 705 l 530 607 z "},"Ū":{"ha":1008,"x_min":115,"x_max":892,"o":"m 329 1166 l 677 1166 l 677 1084 l 329 1084 l 329 1166 m 765 975 l 892 975 l 892 412 q 797 91 892 199 q 503 -16 701 -16 q 115 412 115 -16 l 115 975 l 243 975 l 243 411 q 256 280 243 336 q 298 179 269 223 q 378 113 327 136 q 503 90 430 90 q 609 105 563 90 q 684 148 654 121 q 731 216 713 175 q 758 304 750 257 q 765 411 765 351 l 765 975 z "},"ū":{"ha":785,"x_min":97,"x_max":697,"o":"m 212 903 l 560 903 l 560 821 l 212 821 l 212 903 m 697 12 l 585 -13 q 566 66 572 28 q 559 138 564 83 l 545 138 q 453 28 508 69 q 326 -16 393 -16 q 172 33 224 -16 q 109 159 126 74 q 97 333 97 218 l 97 705 l 214 705 l 214 300 q 233 156 214 199 q 351 92 262 92 q 473 151 413 92 q 558 269 513 191 l 558 705 l 675 705 l 675 270 q 680 113 675 180 q 697 12 682 72 z "},"Ů":{"ha":1008,"x_min":115,"x_max":892,"o":"m 500 1303 q 547 1294 525 1303 q 585 1269 569 1285 q 611 1231 602 1253 q 620 1183 620 1208 q 611 1136 620 1158 q 585 1098 602 1114 q 547 1073 569 1082 q 500 1063 525 1063 q 453 1073 475 1063 q 414 1098 431 1082 q 389 1136 398 1114 q 380 1183 380 1158 q 389 1231 380 1208 q 414 1269 398 1253 q 453 1294 431 1285 q 500 1303 475 1303 m 500 1240 q 460 1223 476 1240 q 444 1183 444 1207 q 460 1143 444 1160 q 500 1127 476 1127 q 540 1143 524 1127 q 556 1183 556 1160 q 540 1223 556 1207 q 500 1240 524 1240 m 892 975 l 892 412 q 798 92 892 201 q 503 -16 703 -16 q 330 12 403 -16 q 209 94 257 39 q 138 228 161 148 q 115 412 115 307 l 115 975 l 243 975 l 243 411 q 255 280 243 339 q 298 179 268 221 q 378 113 328 136 q 503 90 429 90 q 630 114 580 90 q 711 179 681 137 q 753 281 741 222 q 765 411 765 340 l 765 975 l 892 975 z "},"ů":{"ha":785,"x_min":97,"x_max":697,"o":"m 379 1053 q 426 1043 404 1053 q 465 1018 448 1034 q 490 980 481 1002 q 499 932 499 958 q 490 885 499 907 q 465 847 481 863 q 426 822 448 831 q 379 812 404 812 q 332 822 354 812 q 294 847 310 831 q 268 885 277 863 q 259 932 259 907 q 268 980 259 958 q 294 1018 277 1002 q 332 1043 310 1034 q 379 1053 354 1053 m 379 989 q 339 972 355 989 q 323 932 323 956 q 339 892 323 909 q 379 876 355 876 q 419 892 403 876 q 435 932 435 909 q 419 972 435 956 q 379 989 403 989 m 585 -13 q 573 28 578 8 q 566 66 569 48 q 562 101 564 83 q 559 138 561 118 l 545 138 q 505 77 528 105 q 453 28 481 50 q 393 -4 425 7 q 326 -16 361 -16 q 235 -4 273 -16 q 172 33 197 9 q 131 89 146 56 q 109 159 117 121 q 99 242 101 198 q 97 333 97 286 l 97 705 l 214 705 l 214 300 q 217 222 214 260 q 233 156 220 185 q 274 109 247 127 q 351 92 302 92 q 416 109 386 92 q 473 151 447 125 q 520 209 499 178 q 558 269 541 240 l 558 705 l 675 705 l 675 270 q 676 178 675 215 q 680 113 677 142 q 686 62 682 85 q 697 12 690 39 l 585 -13 z "},"Ű":{"ha":1008,"x_min":115,"x_max":892,"o":"m 385 1243 l 351 1363 q 433 1395 395 1395 q 499 1373 475 1395 q 524 1317 523 1350 q 511 1248 524 1284 q 414 1065 492 1202 l 332 1065 l 385 1243 m 632 1243 l 597 1363 q 680 1395 642 1395 q 746 1373 722 1395 q 770 1317 770 1350 q 758 1248 771 1284 q 661 1065 739 1202 l 578 1065 l 632 1243 m 765 975 l 892 975 l 892 412 q 797 91 892 199 q 503 -16 701 -16 q 115 412 115 -16 l 115 975 l 243 975 l 243 411 q 256 280 243 336 q 298 179 269 223 q 378 113 327 136 q 503 90 430 90 q 609 105 563 90 q 684 148 654 121 q 731 216 713 175 q 758 304 750 257 q 765 411 765 351 l 765 975 z "},"ű":{"ha":785,"x_min":97,"x_max":697,"o":"m 257 999 l 222 1119 q 304 1151 267 1151 q 371 1128 347 1151 q 395 1073 395 1106 q 383 1004 396 1040 q 286 821 364 958 l 203 821 l 257 999 m 504 999 l 469 1119 q 551 1151 513 1151 q 617 1128 593 1151 q 642 1073 642 1106 q 630 1004 643 1040 q 533 821 611 958 l 450 821 l 504 999 m 697 12 l 585 -13 q 566 66 572 28 q 559 138 564 83 l 545 138 q 453 28 508 69 q 326 -16 393 -16 q 172 33 224 -16 q 109 159 126 74 q 97 333 97 218 l 97 705 l 214 705 l 214 300 q 233 156 214 199 q 351 92 262 92 q 473 151 413 92 q 558 269 513 191 l 558 705 l 675 705 l 675 270 q 680 113 675 180 q 697 12 682 72 z "},"Ų":{"ha":1008,"x_min":115,"x_max":892,"o":"m 765 975 l 892 975 l 892 412 q 807 103 892 210 q 543 -15 721 -4 q 497 -82 511 -54 q 482 -138 482 -109 q 530 -201 482 -201 q 600 -184 555 -201 l 596 -245 q 495 -277 548 -277 q 423 -247 451 -277 q 395 -164 395 -216 q 412 -91 395 -121 q 469 -16 429 -60 q 115 412 115 3 l 115 975 l 243 975 l 243 411 q 256 280 243 336 q 298 179 269 223 q 378 113 327 136 q 503 90 430 90 q 609 105 563 90 q 684 148 654 121 q 731 216 713 175 q 758 304 750 257 q 765 411 765 351 l 765 975 z "},"ų":{"ha":785,"x_min":97,"x_max":697,"o":"m 697 12 l 646 1 q 589 -77 606 -47 q 572 -138 572 -106 q 620 -201 572 -201 q 689 -184 645 -201 l 686 -245 q 585 -277 637 -277 q 513 -247 541 -277 q 485 -164 485 -216 q 490 -119 485 -139 q 512 -75 495 -99 q 538 -39 529 -50 q 578 7 548 -28 q 566 66 570 38 q 559 138 564 83 l 545 138 q 453 28 508 69 q 326 -16 393 -16 q 172 33 224 -16 q 109 159 126 74 q 97 333 97 218 l 97 705 l 214 705 l 214 300 q 233 156 214 199 q 351 92 262 92 q 473 151 413 92 q 558 269 513 191 l 558 705 l 675 705 l 675 270 q 680 113 675 180 q 697 12 682 72 z "},"Ŵ":{"ha":1255,"x_min":50,"x_max":1205,"o":"m 412 1118 l 627 1290 l 839 1118 l 791 1059 l 627 1154 l 460 1059 l 412 1118 m 1205 975 l 1088 0 l 899 0 l 627 844 l 356 0 l 167 0 l 50 975 l 174 975 l 275 154 l 282 154 l 551 975 l 703 975 l 972 154 l 979 154 l 1081 975 l 1205 975 z "},"ŵ":{"ha":1011,"x_min":44,"x_max":943,"o":"m 279 867 l 494 1039 l 707 867 l 659 808 l 494 903 l 328 808 l 279 867 m 754 0 l 599 0 l 514 328 l 378 0 l 224 0 l 44 706 l 161 706 l 309 85 l 473 492 l 418 706 l 535 706 l 688 85 q 790 340 761 254 q 825 518 825 444 q 793 694 825 583 q 905 719 855 709 q 941 568 934 649 q 943 527 943 548 q 881 268 943 416 q 843 183 864 229 q 792 79 821 138 q 754 0 764 20 z "},"Ŷ":{"ha":920,"x_min":44,"x_max":876,"o":"m 248 1118 l 463 1290 l 675 1118 l 627 1059 l 463 1154 l 296 1059 l 248 1118 m 731 975 l 876 975 l 524 439 l 524 0 l 397 0 l 397 439 l 44 975 l 189 975 l 460 544 l 731 975 z "},"ŷ":{"ha":804,"x_min":107,"x_max":685,"o":"m 402 1032 l 614 860 l 566 801 l 402 897 l 235 801 l 187 860 l 402 1032 m 685 705 l 685 -16 q 663 -132 685 -83 q 602 -212 641 -180 q 509 -259 563 -244 q 393 -275 456 -275 q 278 -265 336 -275 q 168 -237 220 -255 q 186 -191 177 -214 q 205 -146 196 -169 q 244 -158 222 -152 q 293 -169 267 -164 q 345 -177 318 -174 q 397 -180 372 -180 q 468 -170 436 -180 q 522 -138 500 -159 q 556 -86 545 -117 q 568 -16 568 -56 l 568 138 l 555 138 q 515 78 538 106 q 464 28 492 50 q 404 -4 436 7 q 336 -16 372 -16 q 250 -5 286 -16 q 187 28 213 6 q 144 83 161 50 q 119 159 127 116 q 109 242 111 198 q 107 333 107 286 l 107 705 l 224 705 l 224 300 q 228 218 224 256 q 246 152 232 180 q 287 107 260 123 q 361 92 314 92 q 426 108 395 92 q 482 151 456 125 q 529 208 508 176 q 568 269 551 239 l 568 705 l 685 705 z "},"Ÿ":{"ha":920,"x_min":44,"x_max":876,"o":"m 310 1219 q 341 1213 326 1219 q 367 1196 356 1206 q 384 1170 378 1185 q 391 1139 391 1155 q 384 1106 391 1121 q 367 1080 378 1091 q 341 1063 356 1069 q 310 1057 326 1057 q 277 1063 292 1057 q 251 1080 262 1069 q 227 1139 227 1103 q 233 1170 227 1155 q 251 1196 239 1185 q 277 1213 262 1206 q 310 1219 292 1219 m 610 1219 q 642 1213 627 1219 q 668 1196 656 1206 q 686 1170 680 1185 q 692 1139 692 1155 q 668 1080 692 1103 q 642 1063 656 1069 q 610 1057 627 1057 q 579 1063 593 1057 q 553 1080 564 1069 q 534 1106 541 1091 q 528 1139 528 1121 q 534 1170 528 1155 q 553 1196 541 1185 q 579 1213 564 1206 q 610 1219 593 1219 m 876 975 l 524 439 l 524 0 l 397 0 l 397 439 l 44 975 l 189 975 l 460 544 l 731 975 l 876 975 z "},"Ź":{"ha":837,"x_min":100,"x_max":737,"o":"m 419 1243 l 385 1363 q 467 1395 429 1395 q 533 1373 509 1395 q 557 1317 557 1350 q 545 1248 558 1284 q 448 1065 526 1202 l 366 1065 l 419 1243 m 116 975 l 733 975 l 733 884 l 258 104 l 737 104 l 737 0 l 100 0 l 100 90 l 576 871 l 116 871 l 116 975 z "},"ź":{"ha":672,"x_min":85,"x_max":593,"o":"m 333 1099 q 377 1124 359 1117 q 415 1131 396 1131 q 469 1117 448 1131 q 498 1083 489 1104 q 506 1036 507 1063 q 494 983 505 1010 q 474 942 486 966 q 448 893 462 918 q 421 843 435 867 q 397 801 407 819 l 314 801 l 368 979 l 333 1099 m 271 607 q 220 608 243 607 q 176 611 197 608 q 133 618 155 613 q 85 633 111 624 q 102 681 94 658 q 119 730 111 704 q 168 716 146 721 q 209 709 189 711 q 251 706 229 707 q 302 705 273 705 l 587 705 l 587 624 l 233 98 l 593 98 l 593 0 l 87 0 l 87 82 l 441 607 l 271 607 z "},"Ż":{"ha":837,"x_min":100,"x_max":737,"o":"m 418 1219 q 477 1196 452 1219 q 500 1139 500 1173 q 477 1080 500 1103 q 418 1057 452 1057 q 361 1080 387 1057 q 336 1139 336 1104 q 361 1196 336 1172 q 418 1219 387 1219 m 116 975 l 733 975 l 733 884 l 258 104 l 737 104 l 737 0 l 100 0 l 100 90 l 576 871 l 116 871 l 116 975 z "},"ż":{"ha":672,"x_min":85,"x_max":593,"o":"m 357 962 q 389 955 374 962 q 415 938 404 949 q 432 912 426 927 q 439 881 439 898 q 432 847 439 863 q 414 822 425 832 q 388 805 403 811 q 357 799 373 799 q 326 805 340 799 q 299 823 311 812 q 281 849 288 834 q 275 881 275 864 q 282 912 275 898 q 300 938 289 927 q 327 955 312 949 q 357 962 341 962 m 271 607 q 220 608 243 607 q 176 611 197 608 q 133 618 155 613 q 85 633 111 624 q 102 681 94 658 q 119 730 111 704 q 168 716 146 721 q 209 709 189 711 q 251 706 229 707 q 302 705 273 705 l 587 705 l 587 624 l 233 98 l 593 98 l 593 0 l 87 0 l 87 82 l 441 607 l 271 607 z "},"Ž":{"ha":837,"x_min":100,"x_max":737,"o":"m 418 1194 l 582 1290 l 630 1231 l 418 1059 l 203 1231 l 251 1290 l 418 1194 m 116 975 l 733 975 l 733 884 l 258 104 l 737 104 l 737 0 l 100 0 l 100 90 l 576 871 l 116 871 l 116 975 z "},"ž":{"ha":672,"x_min":85,"x_max":593,"o":"m 521 1032 l 569 973 l 357 801 l 142 973 l 190 1032 l 357 937 l 521 1032 m 271 607 q 220 608 243 607 q 176 611 197 608 q 133 618 155 613 q 85 633 111 624 q 102 681 94 658 q 119 730 111 704 q 168 716 146 721 q 209 709 189 711 q 251 706 229 707 q 302 705 273 705 l 587 705 l 587 624 l 233 98 l 593 98 l 593 0 l 87 0 l 87 82 l 441 607 l 271 607 z "},"Ș":{"ha":811,"x_min":78,"x_max":736,"o":"m 119 142 q 177 121 146 131 q 240 105 208 112 q 305 94 273 98 q 369 90 338 90 q 466 102 422 90 q 541 138 509 115 q 589 196 572 161 q 606 274 606 230 q 590 346 606 318 q 544 393 574 374 q 469 426 513 412 q 369 453 425 439 q 254 489 307 469 q 163 541 201 509 q 103 620 125 573 q 81 738 81 667 q 104 842 81 795 q 170 922 127 889 q 271 972 212 955 q 401 990 330 990 q 471 986 435 990 q 543 974 507 981 q 612 956 578 966 q 675 932 646 945 l 635 831 q 585 850 610 841 q 531 867 559 860 q 470 879 503 875 q 401 884 438 884 q 330 876 363 884 q 270 850 296 867 q 228 805 243 833 q 212 738 212 777 q 228 666 212 694 q 274 618 244 637 q 349 586 304 600 q 449 559 393 573 q 564 523 511 543 q 655 471 616 503 q 715 391 693 439 q 736 274 736 344 q 709 145 736 200 q 632 55 682 91 q 516 1 583 19 q 369 -16 448 -16 q 78 41 219 -16 l 119 142 m 328 -118 q 373 -93 354 -100 q 410 -86 391 -86 q 464 -99 444 -86 q 493 -133 484 -113 q 501 -180 503 -154 q 489 -233 500 -207 q 469 -275 481 -251 q 444 -324 457 -298 q 416 -374 430 -349 q 392 -416 402 -398 l 309 -416 l 363 -238 l 328 -118 z "},"ș":{"ha":648,"x_min":62,"x_max":580,"o":"m 323 721 q 435 709 379 721 q 539 677 491 698 q 519 635 530 656 q 497 593 509 614 q 459 607 480 600 q 416 618 439 614 q 369 626 393 623 q 322 629 345 629 q 274 624 297 629 q 232 608 250 619 q 203 577 214 596 q 193 531 193 559 q 205 483 193 503 q 238 451 217 464 q 287 429 259 438 q 347 413 315 420 q 439 386 397 401 q 513 346 482 370 q 562 286 545 321 q 580 197 580 250 q 558 101 580 141 q 498 35 536 61 q 410 -4 460 9 q 303 -16 360 -16 q 242 -13 273 -16 q 179 -2 210 -9 q 119 16 149 5 q 62 38 89 26 q 82 80 72 60 q 104 121 93 101 q 152 103 127 112 q 203 89 177 95 q 256 79 230 83 q 305 75 281 75 q 363 82 335 75 q 413 103 391 89 q 449 141 435 118 q 462 197 462 164 q 449 247 462 227 q 416 280 437 267 q 367 301 395 293 q 307 317 338 310 q 217 344 260 329 q 143 383 175 359 q 93 443 112 407 q 75 531 75 478 q 95 616 75 581 q 150 675 115 652 q 229 710 184 699 q 323 721 274 721 m 247 -118 q 291 -93 273 -100 q 329 -86 310 -86 q 382 -99 362 -86 q 412 -133 403 -113 q 420 -180 421 -154 q 408 -233 418 -207 q 388 -275 400 -251 q 362 -324 376 -298 q 335 -374 349 -349 q 311 -416 321 -398 l 228 -416 l 281 -238 l 247 -118 z "},"Ț":{"ha":839,"x_min":54,"x_max":785,"o":"m 54 975 l 785 975 l 785 871 l 485 871 l 485 0 l 357 0 l 357 871 l 54 871 l 54 975 m 372 -244 l 337 -124 q 419 -92 381 -92 q 485 -115 461 -92 q 510 -170 509 -137 q 498 -239 511 -203 q 401 -422 479 -285 l 318 -422 l 372 -244 z "},"ț":{"ha":584,"x_min":75,"x_max":530,"o":"m 176 867 l 293 867 l 293 705 l 530 705 l 530 607 l 293 607 l 293 202 q 295 140 293 161 q 307 106 298 119 q 378 82 325 82 q 436 88 408 82 q 488 102 465 94 q 523 11 507 60 q 361 -16 443 -16 q 267 -3 302 -16 q 211 40 231 10 q 183 115 190 71 q 176 235 176 158 l 176 607 l 75 607 l 75 705 l 176 705 l 176 867 m 303 -244 l 269 -124 q 351 -92 313 -92 q 417 -115 393 -92 q 441 -170 441 -137 q 429 -239 442 -203 q 332 -422 410 -285 l 250 -422 l 303 -244 z "},"ˆ":{"ha":563,"x_min":68,"x_max":495,"o":"m 68 860 l 283 1032 l 495 860 l 447 801 l 283 897 l 116 801 l 68 860 z "},"ˇ":{"ha":563,"x_min":66,"x_max":494,"o":"m 494 973 l 281 801 l 66 973 l 115 1032 l 281 937 l 446 1032 l 494 973 z "},"˘":{"ha":491,"x_min":55,"x_max":436,"o":"m 385 1022 l 436 1022 q 376 875 426 930 q 245 819 326 819 q 115 875 165 819 q 55 1022 65 931 l 106 1022 q 161 943 127 967 q 245 918 195 918 q 330 943 296 918 q 385 1022 363 967 z "},"˙":{"ha":407,"x_min":121,"x_max":286,"o":"m 203 962 q 261 938 237 962 q 286 881 286 914 q 261 822 286 845 q 203 799 237 799 q 146 823 171 799 q 121 881 121 848 q 147 938 121 913 q 203 962 172 962 z "},"˚":{"ha":481,"x_min":119,"x_max":359,"o":"m 239 1046 q 287 1037 264 1046 q 325 1011 309 1027 q 350 973 341 995 q 359 926 359 951 q 350 879 359 901 q 325 840 341 857 q 287 815 309 824 q 239 806 264 806 q 192 815 214 806 q 154 840 170 824 q 129 879 138 857 q 119 926 119 901 q 129 973 119 951 q 154 1011 138 995 q 192 1037 170 1027 q 239 1046 214 1046 m 239 982 q 199 966 216 982 q 183 926 183 949 q 199 886 183 902 q 239 869 216 869 q 279 886 263 869 q 296 926 296 902 q 279 966 296 949 q 239 982 263 982 z "},"˛":{"ha":407,"x_min":112,"x_max":316,"o":"m 207 8 l 273 1 q 216 -77 233 -47 q 199 -138 199 -106 q 247 -201 199 -201 q 316 -184 272 -201 l 313 -245 q 212 -277 264 -277 q 140 -247 168 -277 q 112 -164 112 -216 q 124 -103 112 -132 q 150 -57 136 -75 q 197 -3 163 -40 q 203 3 201 1 q 207 8 205 5 z "},"˜":{"ha":672,"x_min":162,"x_max":593,"o":"m 525 948 l 593 948 q 553 849 583 884 q 458 808 517 808 q 370 831 431 808 q 283 854 309 854 q 247 837 262 854 q 232 802 232 820 l 162 802 q 201 895 170 857 q 289 941 237 941 q 380 918 321 941 q 464 894 438 894 q 525 948 510 894 z "},"˝":{"ha":541,"x_min":112,"x_max":551,"o":"m 165 979 l 131 1099 q 213 1131 175 1131 q 279 1108 255 1131 q 304 1053 303 1086 q 292 983 304 1020 q 195 801 273 938 l 112 801 l 165 979 m 412 979 l 378 1099 q 460 1131 422 1131 q 526 1108 502 1131 q 551 1053 550 1086 q 538 983 551 1020 q 441 801 519 938 l 359 801 l 412 979 z "},"ְ":{"ha":0,"x_min":243,"x_max":355,"o":"m 298 -86 q 339 -103 322 -86 q 355 -143 355 -119 q 351 -166 355 -156 q 338 -183 346 -176 q 319 -195 330 -191 q 298 -199 309 -199 q 259 -183 275 -199 q 243 -143 243 -167 q 260 -102 243 -118 q 298 -86 277 -86 m 298 -283 q 339 -300 322 -283 q 355 -340 355 -317 q 351 -363 355 -353 q 338 -381 346 -374 q 319 -392 330 -388 q 298 -396 309 -396 q 259 -380 275 -396 q 243 -340 243 -364 q 260 -299 243 -315 q 298 -283 277 -283 z "},"ֱ":{"ha":0,"x_min":45,"x_max":550,"o":"m 101 -86 q 142 -103 126 -86 q 158 -142 158 -120 q 141 -182 158 -165 q 101 -199 125 -199 q 61 -182 77 -199 q 45 -142 45 -165 q 61 -102 45 -119 q 101 -86 77 -86 m 298 -86 q 339 -103 323 -86 q 355 -142 355 -120 q 339 -182 355 -165 q 298 -199 322 -199 q 259 -182 275 -199 q 243 -142 243 -165 q 259 -102 243 -119 q 298 -86 275 -86 m 493 -86 q 534 -103 518 -86 q 550 -142 550 -120 q 533 -182 550 -165 q 493 -199 517 -199 q 453 -182 469 -199 q 437 -142 437 -165 q 453 -102 437 -119 q 493 -86 469 -86 m 198 -245 q 239 -262 223 -245 q 255 -301 255 -279 q 238 -341 255 -324 q 198 -358 222 -358 q 158 -341 174 -358 q 142 -301 142 -324 q 158 -262 142 -278 q 198 -245 174 -245 m 492 -283 q 533 -300 517 -283 q 549 -339 549 -317 q 533 -379 549 -362 q 492 -396 516 -396 q 453 -379 469 -396 q 437 -339 437 -362 q 453 -300 437 -316 q 492 -283 469 -283 z "},"ֲ":{"ha":0,"x_min":52,"x_max":540,"o":"m 483 -86 q 524 -103 508 -86 q 540 -142 540 -120 q 523 -182 540 -165 q 483 -199 507 -199 q 443 -182 459 -199 q 427 -142 427 -165 q 443 -102 427 -119 q 483 -86 459 -86 m 370 -103 l 370 -183 l 52 -183 l 52 -103 l 370 -103 m 482 -283 q 523 -300 507 -283 q 539 -339 539 -317 q 523 -379 539 -362 q 482 -396 506 -396 q 443 -379 458 -396 q 427 -339 427 -362 q 443 -300 427 -316 q 482 -283 458 -283 z "},"ֳ":{"ha":0,"x_min":52,"x_max":539,"o":"m 482 -86 q 523 -103 507 -86 q 539 -142 539 -120 q 523 -182 539 -165 q 482 -199 506 -199 q 443 -182 458 -199 q 427 -142 427 -165 q 443 -102 427 -119 q 482 -86 458 -86 m 370 -103 l 370 -183 l 249 -183 l 262 -353 l 156 -353 l 170 -183 l 52 -183 l 52 -103 l 370 -103 m 481 -283 q 523 -300 507 -283 q 538 -339 538 -317 q 522 -379 538 -362 q 481 -396 505 -396 q 442 -379 458 -396 q 426 -339 426 -362 q 442 -300 426 -316 q 481 -283 458 -283 z "},"ִ":{"ha":0,"x_min":243,"x_max":355,"o":"m 298 -86 q 339 -103 323 -86 q 355 -142 355 -120 q 339 -182 355 -165 q 298 -199 322 -199 q 259 -182 275 -199 q 243 -142 243 -165 q 259 -102 243 -119 q 298 -86 275 -86 z "},"ֵ":{"ha":0,"x_min":142,"x_max":452,"o":"m 198 -86 q 239 -103 223 -86 q 255 -142 255 -120 q 238 -182 255 -165 q 198 -199 222 -199 q 158 -182 174 -199 q 142 -142 142 -165 q 158 -102 142 -119 q 198 -86 174 -86 m 395 -86 q 436 -103 420 -86 q 452 -142 452 -120 q 436 -182 452 -165 q 395 -199 419 -199 q 356 -182 372 -199 q 340 -142 340 -165 q 356 -102 340 -119 q 395 -86 372 -86 z "},"ֶ":{"ha":0,"x_min":143,"x_max":453,"o":"m 199 -86 q 240 -103 224 -86 q 256 -142 256 -120 q 239 -182 256 -165 q 199 -199 222 -199 q 159 -182 175 -199 q 143 -142 143 -165 q 159 -102 143 -119 q 199 -86 175 -86 m 396 -86 q 437 -103 421 -86 q 453 -142 453 -120 q 436 -182 453 -165 q 396 -199 420 -199 q 356 -182 372 -199 q 340 -142 340 -165 q 356 -102 340 -119 q 396 -86 372 -86 m 296 -245 q 337 -262 321 -245 q 353 -301 353 -279 q 336 -341 353 -324 q 296 -358 319 -358 q 256 -341 272 -358 q 240 -301 240 -324 q 256 -262 240 -278 q 296 -245 272 -245 z "},"ַ":{"ha":0,"x_min":137,"x_max":455,"o":"m 455 -103 l 455 -183 l 137 -183 l 137 -103 l 455 -103 z "},"ָ":{"ha":0,"x_min":137,"x_max":455,"o":"m 455 -103 l 455 -183 l 334 -183 l 348 -353 l 241 -353 l 255 -183 l 137 -183 l 137 -103 l 455 -103 z "},"ֹ":{"ha":0,"x_min":142,"x_max":266,"o":"m 203 926 q 248 908 230 926 q 266 865 266 890 q 248 820 266 838 q 203 802 230 802 q 160 820 178 802 q 142 865 142 839 q 160 908 142 890 q 203 926 178 926 z "},"ֺ":{"ha":0,"x_min":142,"x_max":266,"o":"m 203 926 q 248 908 230 926 q 266 865 266 890 q 248 820 266 838 q 203 802 230 802 q 160 820 178 802 q 142 865 142 839 q 160 908 142 890 q 203 926 178 926 z "},"ֻ":{"ha":0,"x_min":243,"x_max":578,"o":"m 298 -86 q 339 -103 323 -86 q 355 -142 355 -120 q 339 -182 355 -165 q 298 -199 322 -199 q 259 -182 275 -199 q 243 -142 243 -165 q 259 -102 243 -119 q 298 -86 275 -86 m 410 -218 q 451 -235 435 -218 q 467 -273 467 -252 q 450 -313 467 -296 q 410 -330 433 -330 q 370 -313 386 -330 q 354 -273 354 -296 q 370 -234 354 -250 q 410 -218 386 -218 m 521 -350 q 562 -367 546 -350 q 578 -406 578 -384 q 561 -446 578 -429 q 521 -463 545 -463 q 481 -446 497 -463 q 465 -406 465 -429 q 481 -366 465 -382 q 521 -350 497 -350 z "},"ּ":{"ha":0,"x_min":142,"x_max":266,"o":"m 203 435 q 248 417 230 435 q 266 374 266 399 q 261 350 266 361 q 247 330 256 338 q 228 316 239 321 q 203 311 216 311 q 179 316 191 311 q 160 330 168 321 q 147 350 152 338 q 142 374 142 361 q 160 417 142 399 q 203 435 178 435 z "},"־":{"ha":521,"x_min":95,"x_max":426,"o":"m 95 705 l 426 705 l 426 602 l 95 602 l 95 705 z "},"׀":{"ha":417,"x_min":156,"x_max":261,"o":"m 156 1065 l 261 1065 l 261 -89 l 156 -89 l 156 1065 z "},"ׁ":{"ha":0,"x_min":142,"x_max":266,"o":"m 203 926 q 248 908 230 926 q 266 865 266 890 q 248 820 266 838 q 203 802 230 802 q 160 820 178 802 q 142 865 142 839 q 160 908 142 890 q 203 926 178 926 z "},"ׂ":{"ha":0,"x_min":142,"x_max":266,"o":"m 203 926 q 248 908 230 926 q 266 865 266 890 q 248 820 266 838 q 203 802 230 802 q 160 820 178 802 q 142 865 142 839 q 160 908 142 890 q 203 926 178 926 z "},"׃":{"ha":454,"x_min":136,"x_max":318,"o":"m 227 602 q 263 594 246 602 q 292 575 279 587 q 311 546 304 563 q 318 511 318 530 q 311 476 318 492 q 292 447 304 459 q 263 427 279 434 q 227 420 246 420 q 192 427 208 420 q 163 447 175 434 q 143 476 151 459 q 136 511 136 492 q 143 546 136 530 q 163 575 151 563 q 192 594 175 587 q 227 602 208 602 m 227 168 q 263 161 246 168 q 292 142 279 154 q 311 113 304 130 q 318 77 318 96 q 311 42 318 59 q 292 14 304 26 q 263 -6 279 1 q 227 -14 246 -14 q 192 -6 208 -14 q 163 14 175 1 q 143 42 151 26 q 136 77 136 59 q 143 113 136 96 q 163 142 151 130 q 192 161 175 154 q 227 168 208 168 z "},"ׇ":{"ha":0,"x_min":137,"x_max":455,"o":"m 455 -103 l 455 -183 l 334 -183 l 348 -353 l 241 -353 l 255 -183 l 137 -183 l 137 -103 l 455 -103 z "},"א":{"ha":781,"x_min":79,"x_max":706,"o":"m 79 -6 q 80 37 79 13 q 80 90 80 62 q 81 148 81 118 q 83 208 82 178 q 90 298 84 258 q 108 370 96 338 q 137 431 119 403 q 178 486 154 458 q 137 547 154 519 q 111 598 121 575 q 92 646 100 622 q 79 692 85 671 q 132 712 104 703 q 189 728 161 721 q 194 712 192 720 q 199 696 197 704 q 215 652 206 674 q 237 605 223 631 q 271 548 250 579 q 323 477 292 517 q 344 451 334 463 q 369 423 355 439 q 404 383 383 407 q 458 321 425 359 l 461 317 q 501 355 486 335 q 528 397 517 374 q 548 446 539 420 q 565 502 556 472 q 579 555 572 528 q 593 608 587 582 l 494 627 l 513 722 l 703 689 l 706 602 q 688 530 699 569 q 668 458 677 492 q 644 385 656 416 q 617 328 632 353 q 582 281 602 303 q 530 237 561 260 l 692 46 l 610 -27 l 248 391 q 217 332 227 366 q 203 260 207 298 q 199 182 199 222 q 198 102 199 142 q 197 55 197 81 q 197 -6 197 30 l 79 -6 z "},"ב":{"ha":760,"x_min":66,"x_max":709,"o":"m 301 602 q 248 602 271 602 q 202 606 224 603 q 157 614 180 608 q 109 630 135 620 q 126 679 117 654 q 143 729 134 703 q 193 715 172 720 q 236 708 215 711 q 279 705 256 706 q 332 705 302 705 l 352 705 q 436 695 395 705 q 511 659 477 686 q 564 588 543 633 q 584 469 584 543 l 584 103 l 709 103 l 709 0 l 66 0 l 66 103 l 467 103 l 467 452 q 460 523 467 494 q 439 569 454 552 q 397 594 424 587 q 330 602 371 602 l 301 602 z "},"ג":{"ha":565,"x_min":39,"x_max":515,"o":"m 416 705 l 416 340 q 426 278 416 308 q 447 218 435 249 q 484 112 467 165 q 515 0 501 58 l 406 0 q 385 74 397 35 q 359 148 373 113 l 342 191 q 306 149 321 166 q 280 119 292 132 q 259 96 269 106 q 237 74 249 85 q 159 14 201 37 q 62 -18 117 -10 q 50 34 56 7 q 39 85 44 60 q 81 98 62 92 q 117 113 100 104 q 150 135 134 122 q 181 165 165 147 l 303 299 l 303 602 l 149 602 l 149 705 l 416 705 z "},"ד":{"ha":739,"x_min":66,"x_max":677,"o":"m 258 602 q 205 602 229 602 q 159 606 181 603 q 115 614 137 608 q 66 630 92 620 q 83 679 75 654 q 100 729 92 703 q 151 715 129 720 q 193 708 172 711 q 236 705 214 706 q 290 705 259 705 l 677 705 l 677 602 l 541 602 l 541 0 l 423 0 l 423 602 l 258 602 z "},"ה":{"ha":765,"x_min":96,"x_max":684,"o":"m 288 602 q 235 602 258 602 q 189 606 211 603 q 144 614 167 608 q 96 630 122 620 q 113 679 104 654 q 130 729 121 703 q 180 715 159 720 q 223 708 202 711 q 266 705 243 706 q 319 705 289 705 l 452 705 q 536 695 494 705 q 610 659 577 686 q 663 586 643 633 q 684 465 684 539 l 684 0 l 566 0 l 566 452 q 561 524 566 495 q 539 569 555 552 q 497 594 524 587 q 429 602 471 602 l 288 602 m 106 213 q 107 267 106 243 q 109 311 107 290 q 115 353 111 332 q 124 400 118 374 q 181 392 153 396 q 239 383 210 387 q 232 339 235 359 q 227 301 229 320 q 224 260 225 281 q 224 210 224 239 l 224 0 l 106 0 l 106 213 z "},"ו":{"ha":444,"x_min":89,"x_max":325,"o":"m 325 705 l 325 0 l 208 0 l 208 602 l 89 602 l 89 705 l 325 705 z "},"ז":{"ha":567,"x_min":63,"x_max":509,"o":"m 215 602 q 176 604 195 602 q 140 608 158 605 q 103 616 122 611 q 63 630 85 622 q 80 679 72 654 q 98 729 89 703 q 148 715 126 720 q 190 708 170 711 q 234 705 211 706 q 287 705 256 705 l 509 705 l 509 602 l 333 602 l 429 0 l 309 0 l 215 602 z "},"ח":{"ha":778,"x_min":66,"x_max":690,"o":"m 123 378 q 124 439 123 411 q 129 494 125 467 q 140 547 133 520 q 161 606 148 574 q 116 614 138 608 q 66 630 93 620 q 83 679 75 654 q 100 729 92 703 q 151 715 129 720 q 193 708 172 711 q 236 705 214 706 q 290 705 259 705 l 457 705 q 542 695 500 705 q 616 659 583 686 q 670 588 650 633 q 690 469 690 543 l 690 0 l 573 0 l 573 452 q 567 524 573 496 q 545 570 561 553 q 503 594 530 587 q 437 602 477 602 l 275 602 q 254 545 261 573 q 244 490 247 517 q 240 436 241 463 q 240 385 240 410 l 240 0 l 123 0 l 123 378 z "},"ט":{"ha":848,"x_min":85,"x_max":763,"o":"m 125 370 q 119 478 121 434 q 114 555 117 522 q 104 615 111 588 q 85 674 98 643 q 135 699 109 688 q 187 719 161 709 q 208 672 200 694 q 221 623 216 649 q 229 562 226 596 q 234 481 231 528 l 255 99 q 274 98 264 98 q 293 98 283 98 q 436 121 370 98 q 550 195 502 145 q 626 323 599 245 q 654 508 654 400 q 652 553 654 532 q 647 589 650 574 q 584 602 614 597 q 519 611 554 608 q 504 568 511 587 q 490 530 496 549 q 477 491 484 511 q 464 449 471 472 l 370 480 q 406 598 386 540 q 448 716 426 657 q 605 697 532 711 q 746 668 678 683 q 759 589 755 630 q 763 499 763 549 q 731 291 763 380 q 641 138 699 201 q 557 67 601 95 q 466 23 513 39 q 369 1 419 7 q 267 -5 319 -5 q 204 -4 235 -5 q 147 1 174 -2 l 125 370 z "},"י":{"ha":448,"x_min":77,"x_max":349,"o":"m 349 705 l 349 485 q 349 424 349 448 q 346 379 348 399 q 340 340 344 359 q 332 298 337 321 l 217 315 q 223 352 220 335 q 228 388 226 369 q 231 431 230 407 q 232 488 232 454 l 232 602 l 77 602 l 77 705 l 349 705 z "},"ך":{"ha":671,"x_min":62,"x_max":562,"o":"m 254 602 q 201 602 224 602 q 155 606 177 603 q 111 614 133 608 q 62 630 88 620 q 79 679 71 654 q 96 729 87 703 q 146 715 125 720 q 189 708 168 711 q 232 705 210 706 q 286 705 255 705 l 543 705 q 553 669 549 684 q 559 642 557 654 q 562 620 561 630 q 562 599 562 610 l 562 -214 l 445 -214 l 445 602 l 254 602 z "},"כ":{"ha":695,"x_min":66,"x_max":603,"o":"m 293 602 q 239 602 263 602 q 194 606 216 603 q 149 614 172 608 q 100 630 127 620 q 118 679 109 654 q 135 729 126 703 q 185 715 163 720 q 228 708 207 711 q 271 705 248 706 q 324 705 294 705 l 365 705 q 447 694 406 705 q 519 656 487 684 q 573 583 552 629 q 598 465 595 537 q 601 390 600 427 q 602 312 602 352 q 603 228 603 272 q 603 134 603 184 q 602 105 603 118 q 600 77 602 92 q 594 44 597 62 q 584 0 590 26 l 66 0 l 66 103 l 488 103 q 486 276 488 186 q 481 452 485 365 q 474 524 480 495 q 452 569 467 552 q 411 594 437 587 q 344 602 385 602 l 293 602 z "},"ל":{"ha":680,"x_min":81,"x_max":607,"o":"m 199 897 l 199 705 l 590 705 q 600 667 596 682 q 605 641 603 652 q 607 618 606 629 q 607 595 607 608 l 607 449 q 575 298 607 369 q 479 155 543 227 l 313 -27 l 230 47 l 385 220 q 427 271 408 246 q 460 321 446 295 q 482 378 474 348 q 490 445 490 408 l 490 602 l 81 602 l 81 897 l 199 897 z "},"ם":{"ha":775,"x_min":54,"x_max":694,"o":"m 111 378 q 112 439 111 411 q 117 494 113 467 q 128 547 121 520 q 149 606 136 574 q 103 614 126 608 q 54 630 81 620 q 71 679 62 654 q 88 729 79 703 q 138 715 117 720 q 181 708 160 710 q 224 705 201 705 q 277 705 247 705 l 460 705 q 545 695 503 705 q 620 659 587 686 q 673 588 653 633 q 694 469 694 543 l 694 0 l 111 0 l 111 378 m 576 452 q 570 524 576 496 q 549 570 564 553 q 507 594 533 587 q 440 602 480 602 l 262 602 q 242 545 249 573 q 232 490 235 517 q 228 436 229 463 q 228 385 228 410 l 228 103 l 576 103 l 576 452 z "},"מ":{"ha":810,"x_min":71,"x_max":726,"o":"m 71 -6 q 91 111 82 61 q 106 199 99 161 q 118 269 113 238 q 128 329 123 300 q 138 390 133 359 q 149 460 142 421 q 150 518 152 494 q 138 563 147 541 q 113 610 129 585 q 73 672 96 635 q 97 687 86 680 q 119 701 108 694 q 144 715 131 707 q 176 734 157 723 q 203 696 192 712 q 223 666 214 680 q 239 638 232 652 q 252 610 245 625 q 307 657 281 636 q 360 691 333 677 q 418 713 387 705 q 485 720 448 720 q 634 674 574 720 q 713 531 694 627 q 721 464 719 504 q 725 380 724 423 q 725 296 726 337 q 725 226 725 255 q 723 136 724 179 q 720 65 722 94 q 717 34 718 50 q 713 0 715 18 l 378 0 l 378 103 l 606 103 q 607 128 606 115 q 609 164 608 142 q 609 223 609 187 q 610 317 610 260 q 609 369 610 342 q 607 421 608 396 q 603 467 606 446 q 597 505 601 489 q 582 550 591 530 q 557 585 572 571 q 522 607 543 600 q 474 615 502 615 q 417 606 444 615 q 364 580 389 596 q 316 543 339 564 q 272 500 293 522 q 251 367 260 425 q 234 263 241 309 q 221 182 227 218 q 210 115 215 146 q 199 55 204 84 q 189 -6 195 26 l 71 -6 z "},"ן":{"ha":421,"x_min":74,"x_max":330,"o":"m 330 705 l 330 -214 l 213 -214 l 213 602 l 74 602 l 74 705 l 330 705 z "},"נ":{"ha":538,"x_min":48,"x_max":458,"o":"m 395 705 l 398 682 q 405 619 400 659 q 414 526 409 579 q 426 411 420 473 q 439 282 433 349 q 452 150 446 216 q 456 101 455 120 q 458 67 458 82 q 456 37 458 52 q 452 0 455 22 l 48 0 l 48 103 l 342 103 l 290 602 l 124 602 l 124 705 l 395 705 z "},"ס":{"ha":779,"x_min":67,"x_max":711,"o":"m 469 705 q 575 689 531 705 q 649 642 620 674 q 681 588 669 619 q 700 521 693 556 q 709 449 707 486 q 711 377 711 412 q 705 269 711 324 q 674 148 697 201 q 613 59 650 95 q 525 3 576 22 q 413 -16 475 -16 q 278 11 334 -16 q 186 82 222 37 q 135 190 151 128 q 119 324 119 252 q 123 407 119 365 q 142 496 128 450 q 162 552 151 525 q 188 603 173 578 q 130 611 157 605 q 67 630 102 616 q 84 679 76 654 q 102 729 93 703 q 152 715 130 720 q 194 708 174 711 q 238 705 215 706 q 291 705 260 705 l 469 705 m 304 602 q 258 504 274 556 q 239 400 243 452 q 237 359 238 380 q 236 319 236 339 q 243 231 236 273 q 271 159 250 190 q 328 106 293 125 q 411 87 363 87 q 476 99 446 87 q 529 132 506 110 q 566 185 551 153 q 587 258 581 217 q 592 314 590 288 q 594 365 594 340 q 591 433 594 401 q 583 500 588 466 q 570 548 578 529 q 547 579 562 568 q 509 596 532 591 q 450 602 485 602 l 304 602 z "},"ע":{"ha":761,"x_min":39,"x_max":711,"o":"m 477 622 q 491 672 484 648 q 506 723 498 697 l 706 670 q 709 623 708 646 q 711 575 711 599 q 691 464 704 518 q 656 357 677 409 q 605 258 635 306 q 534 168 575 210 q 438 86 492 123 q 321 20 385 50 q 224 -20 275 -2 q 116 -54 174 -39 l 83 50 q 192 85 136 66 q 305 130 248 104 q 233 320 269 225 q 161 509 197 414 q 144 548 151 534 q 125 574 137 563 q 94 596 113 586 q 39 623 74 606 q 64 671 52 647 q 91 720 77 696 q 155 693 128 705 q 200 666 181 681 q 232 634 219 652 q 256 587 245 616 q 270 552 263 570 q 285 513 277 534 q 303 463 293 491 q 327 396 313 435 q 359 307 341 357 q 401 188 377 256 q 478 263 446 221 q 534 357 511 306 q 570 466 556 408 q 592 591 585 524 l 477 622 z "},"ף":{"ha":736,"x_min":70,"x_max":633,"o":"m 215 736 q 330 713 273 725 q 443 689 387 701 q 511 668 477 682 q 572 630 545 654 q 616 567 599 605 q 633 471 633 528 l 633 -214 l 515 -214 l 515 454 q 510 513 515 490 q 492 552 505 536 q 457 576 479 568 q 404 592 436 585 q 346 605 374 598 q 288 617 317 611 l 212 445 l 348 363 l 294 275 l 70 408 l 215 736 z "},"פ":{"ha":730,"x_min":61,"x_max":640,"o":"m 224 736 q 261 729 238 733 q 312 719 284 724 q 371 706 340 713 q 429 693 401 700 q 481 680 458 686 q 519 667 505 673 q 579 634 556 653 q 616 590 603 614 q 635 535 630 565 q 640 471 640 505 l 640 134 q 639 103 640 118 q 636 73 638 89 q 630 40 633 58 q 621 0 626 22 l 61 0 l 61 102 l 524 102 l 524 455 q 520 512 524 490 q 504 550 515 535 q 473 573 492 564 q 423 590 454 582 q 361 605 394 597 q 298 619 328 612 l 220 445 l 357 364 l 302 275 l 78 408 l 224 736 z "},"ץ":{"ha":743,"x_min":51,"x_max":662,"o":"m 465 730 l 662 674 q 662 582 666 628 q 618 480 641 528 q 568 383 596 432 q 527 321 547 347 q 485 276 507 296 q 438 238 463 256 q 385 202 414 221 l 446 56 q 470 1 460 23 q 488 -37 479 -21 q 503 -67 496 -54 q 519 -91 511 -79 q 538 -113 528 -102 q 562 -137 549 -123 q 475 -218 519 -179 l 454 -197 q 403 -127 423 -161 q 366 -54 382 -93 l 51 682 l 159 726 l 340 300 q 380 328 361 314 q 416 360 399 342 q 449 400 433 378 q 480 452 465 422 q 514 520 496 482 q 545 597 532 559 l 435 629 l 465 730 z "},"צ":{"ha":752,"x_min":57,"x_max":667,"o":"m 225 391 q 152 485 182 441 q 103 566 121 528 q 74 634 84 604 q 57 692 64 664 q 110 711 82 702 q 167 728 138 720 q 172 712 170 720 q 177 696 174 704 q 192 652 184 674 q 214 604 200 630 q 248 547 227 578 q 300 477 269 516 q 320 454 311 465 q 341 429 329 443 q 369 397 353 416 q 411 350 386 378 q 447 378 432 363 q 475 411 463 393 q 498 451 488 429 q 519 501 508 473 q 537 553 529 528 q 552 604 545 578 l 456 633 l 482 726 l 667 674 l 663 587 q 640 516 653 554 q 615 448 627 479 q 588 390 602 416 q 558 343 574 364 q 522 306 542 323 q 477 273 502 288 l 630 94 q 625 54 629 76 q 614 0 622 32 l 77 0 l 77 103 l 475 103 l 225 391 z "},"ק":{"ha":784,"x_min":105,"x_max":708,"o":"m 298 602 q 244 602 268 602 q 198 606 220 603 q 154 614 176 608 q 105 630 132 620 q 122 679 114 654 q 140 729 131 703 q 190 715 168 720 q 232 708 212 711 q 276 705 253 706 q 329 705 298 705 l 688 705 q 697 671 694 686 q 702 646 700 657 q 707 601 705 624 q 708 554 708 578 l 708 458 q 705 393 708 424 q 695 334 703 363 q 673 279 687 306 q 635 224 659 252 q 537 114 585 166 q 441 8 490 61 l 351 90 l 427 169 q 487 234 457 201 q 540 294 516 266 q 569 339 559 317 q 584 384 579 361 q 590 434 589 408 q 591 492 591 460 q 590 547 591 519 q 588 602 589 574 l 298 602 m 123 254 q 123 307 123 283 q 125 353 123 331 q 130 396 127 375 q 139 441 134 418 q 197 433 168 437 q 255 425 226 429 q 248 381 251 400 q 243 342 245 361 q 241 301 241 323 q 240 252 240 280 l 240 -214 l 123 -214 l 123 254 z "},"ר":{"ha":683,"x_min":75,"x_max":596,"o":"m 268 602 q 214 602 238 602 q 169 606 191 603 q 124 614 146 608 q 75 630 102 620 q 93 679 84 654 q 110 729 101 703 q 160 715 138 720 q 202 708 182 711 q 246 705 223 706 q 299 705 269 705 l 363 705 q 447 695 406 705 q 522 659 489 686 q 575 586 555 633 q 596 465 596 539 l 596 0 l 479 0 l 479 452 q 473 523 479 494 q 451 569 467 552 q 409 594 435 587 q 342 602 382 602 l 268 602 z "},"ש":{"ha":971,"x_min":90,"x_max":895,"o":"m 136 372 q 128 480 130 436 q 122 557 125 524 q 111 617 118 590 q 90 676 104 645 q 140 701 114 690 q 192 721 166 711 q 213 674 205 696 q 227 625 222 651 q 236 564 233 598 q 243 484 239 530 l 271 104 q 318 102 296 102 q 519 138 433 102 q 663 237 606 173 q 748 388 720 300 q 776 581 776 476 q 774 639 776 610 q 768 696 772 667 q 825 710 797 704 q 884 720 852 715 q 892 660 889 691 q 895 595 895 629 q 854 334 895 446 q 736 146 813 221 q 550 33 660 71 q 302 -5 440 -5 q 235 -4 269 -5 q 165 3 201 -2 l 136 372 m 547 720 q 556 656 556 688 q 553 616 556 636 q 545 576 550 596 q 522 508 535 542 q 492 440 508 475 l 417 275 l 317 319 l 391 484 q 421 555 410 527 q 437 605 432 583 q 442 647 442 625 q 438 699 442 668 l 547 720 z "},"ת":{"ha":800,"x_min":44,"x_max":719,"o":"m 193 101 q 159 227 171 167 q 148 344 148 286 q 165 474 148 411 q 220 602 182 538 q 186 605 202 603 q 154 609 170 606 q 121 617 138 612 q 84 630 104 623 q 101 679 93 654 q 119 729 110 703 q 169 715 147 720 q 211 708 191 711 q 255 705 232 706 q 308 705 277 705 l 484 705 q 569 695 527 705 q 644 659 610 686 q 698 586 677 633 q 719 465 719 539 l 719 0 l 602 0 l 602 452 q 596 523 602 494 q 576 569 591 552 q 535 594 561 587 q 469 602 509 602 l 336 602 q 282 486 298 549 q 267 354 267 422 q 276 246 267 299 q 298 144 284 193 l 320 72 q 317 37 319 54 q 313 0 316 20 l 44 0 l 44 101 l 193 101 z "},"׳":{"ha":378,"x_min":87,"x_max":279,"o":"m 140 688 l 106 808 q 188 840 150 840 q 254 818 230 840 q 279 763 278 795 q 267 693 279 730 q 170 511 248 648 l 87 511 l 140 688 z "},"״":{"ha":626,"x_min":87,"x_max":526,"o":"m 140 688 l 106 808 q 188 840 150 840 q 254 818 230 840 q 279 763 278 795 q 267 693 279 730 q 170 511 248 648 l 87 511 l 140 688 m 387 688 l 353 808 q 435 840 397 840 q 501 818 477 840 q 526 763 525 795 q 513 693 526 730 q 416 511 494 648 l 334 511 l 387 688 z "},"Ẁ":{"ha":1255,"x_min":50,"x_max":1205,"o":"m 680 1065 l 597 1065 q 500 1248 519 1202 q 488 1317 487 1284 q 512 1373 488 1350 q 578 1395 536 1395 q 661 1363 616 1395 l 626 1243 l 680 1065 m 1205 975 l 1088 0 l 899 0 l 627 844 l 356 0 l 167 0 l 50 975 l 174 975 l 275 154 l 282 154 l 551 975 l 703 975 l 972 154 l 979 154 l 1081 975 l 1205 975 z "},"ẁ":{"ha":1011,"x_min":44,"x_max":943,"o":"m 513 821 l 430 821 q 333 1004 352 958 q 321 1073 320 1040 q 346 1128 321 1106 q 412 1151 370 1151 q 494 1119 450 1151 l 459 999 l 513 821 m 754 0 l 599 0 l 514 328 l 378 0 l 224 0 l 44 706 l 161 706 l 309 85 l 473 492 l 418 706 l 535 706 l 688 85 q 790 340 761 254 q 825 518 825 444 q 793 694 825 583 q 905 719 855 709 q 941 568 934 649 q 943 527 943 548 q 881 268 943 416 q 843 183 864 229 q 792 79 821 138 q 754 0 764 20 z "},"Ẃ":{"ha":1255,"x_min":50,"x_max":1205,"o":"m 633 1243 l 598 1363 q 680 1395 642 1395 q 746 1373 722 1395 q 771 1317 770 1350 q 759 1248 772 1284 q 662 1065 740 1202 l 579 1065 l 633 1243 m 1205 975 l 1088 0 l 899 0 l 627 844 l 356 0 l 167 0 l 50 975 l 174 975 l 275 154 l 282 154 l 551 975 l 703 975 l 972 154 l 979 154 l 1081 975 l 1205 975 z "},"ẃ":{"ha":1011,"x_min":44,"x_max":943,"o":"m 498 999 l 464 1119 q 546 1151 508 1151 q 612 1128 588 1151 q 637 1073 636 1106 q 625 1004 637 1040 q 528 821 606 958 l 445 821 l 498 999 m 754 0 l 599 0 l 514 328 l 378 0 l 224 0 l 44 706 l 161 706 l 309 85 l 473 492 l 418 706 l 535 706 l 688 85 q 790 340 761 254 q 825 518 825 444 q 793 694 825 583 q 905 719 855 709 q 941 568 934 649 q 943 527 943 548 q 881 268 943 416 q 843 183 864 229 q 792 79 821 138 q 754 0 764 20 z "},"Ẅ":{"ha":1255,"x_min":50,"x_max":1205,"o":"m 478 1219 q 509 1213 494 1219 q 535 1196 524 1206 q 552 1170 546 1185 q 559 1139 559 1155 q 552 1106 559 1121 q 535 1080 546 1091 q 509 1063 524 1069 q 478 1057 494 1057 q 446 1063 460 1057 q 419 1080 431 1069 q 395 1139 395 1103 q 401 1170 395 1155 q 419 1196 408 1185 q 446 1213 431 1206 q 478 1219 460 1219 m 778 1219 q 810 1213 795 1219 q 836 1196 825 1206 q 854 1170 848 1185 q 860 1139 860 1155 q 836 1080 860 1103 q 810 1063 825 1069 q 778 1057 795 1057 q 747 1063 762 1057 q 721 1080 732 1069 q 703 1106 709 1091 q 696 1139 696 1121 q 703 1170 696 1155 q 721 1196 709 1185 q 747 1213 732 1206 q 778 1219 762 1219 m 1088 0 l 899 0 l 627 844 l 356 0 l 167 0 l 50 975 l 174 975 l 275 154 l 282 154 l 551 975 l 703 975 l 972 154 l 979 154 l 1081 975 l 1205 975 l 1088 0 z "},"ẅ":{"ha":1011,"x_min":44,"x_max":943,"o":"m 345 968 q 376 962 361 968 q 401 945 391 956 q 419 919 412 934 q 425 888 425 904 q 419 855 425 870 q 401 829 412 840 q 376 812 391 819 q 345 806 361 806 q 312 812 327 806 q 286 829 297 819 q 261 888 261 852 q 268 919 261 904 q 286 945 274 934 q 312 962 297 956 q 345 968 327 968 m 644 968 q 676 962 661 968 q 703 945 691 956 q 720 919 714 934 q 726 888 726 904 q 703 829 726 852 q 676 812 691 819 q 644 806 661 806 q 613 812 628 806 q 587 829 599 819 q 569 855 576 840 q 562 888 562 870 q 569 919 562 904 q 587 945 576 934 q 613 962 599 956 q 644 968 628 968 m 599 0 l 514 328 l 378 0 l 224 0 l 44 706 l 161 706 l 309 85 l 473 492 l 418 706 l 535 706 l 688 85 q 723 166 707 130 q 750 233 738 203 q 772 290 762 264 q 790 340 782 316 q 817 437 809 395 q 825 518 825 479 q 817 600 825 559 q 793 694 809 641 q 847 707 819 701 q 905 719 875 713 q 931 638 924 674 q 941 568 938 602 q 943 527 943 548 q 926 398 943 461 q 881 268 909 336 q 850 200 867 235 q 818 131 834 165 q 785 63 801 96 q 754 0 768 30 l 599 0 z "},"Ỳ":{"ha":920,"x_min":44,"x_max":876,"o":"m 492 1065 l 409 1065 q 312 1248 331 1202 q 300 1317 299 1284 q 325 1373 300 1350 q 391 1395 349 1395 q 473 1363 429 1395 l 438 1243 l 492 1065 m 731 975 l 876 975 l 524 439 l 524 0 l 397 0 l 397 439 l 44 975 l 189 975 l 460 544 l 731 975 z "},"ỳ":{"ha":804,"x_min":107,"x_max":685,"o":"m 361 801 q 337 843 351 819 q 310 893 323 867 q 284 942 296 918 q 264 983 271 966 q 252 1036 254 1010 q 260 1083 251 1063 q 290 1117 269 1104 q 343 1131 310 1131 q 381 1124 362 1131 q 425 1099 399 1117 l 391 979 l 444 801 l 361 801 m 685 705 l 685 -16 q 663 -132 685 -83 q 602 -212 641 -180 q 509 -259 563 -244 q 393 -275 456 -275 q 278 -265 336 -275 q 168 -237 220 -255 q 186 -191 177 -214 q 205 -146 196 -169 q 244 -158 222 -152 q 293 -169 267 -164 q 345 -177 318 -174 q 397 -180 372 -180 q 468 -170 436 -180 q 522 -138 500 -159 q 556 -86 545 -117 q 568 -16 568 -56 l 568 138 l 555 138 q 515 78 538 106 q 464 28 492 50 q 404 -4 436 7 q 336 -16 372 -16 q 250 -5 286 -16 q 187 28 213 6 q 144 83 161 50 q 119 159 127 116 q 109 242 111 198 q 107 333 107 286 l 107 705 l 224 705 l 224 300 q 228 218 224 256 q 246 152 232 180 q 287 107 260 123 q 361 92 314 92 q 426 108 395 92 q 482 151 456 125 q 529 208 508 176 q 568 269 551 239 l 568 705 l 685 705 z "}," ":{"ha":701,"x_min":0,"x_max":0,"o":""}," ":{"ha":1402,"x_min":0,"x_max":0,"o":""}," ":{"ha":701,"x_min":0,"x_max":0,"o":""}," ":{"ha":1402,"x_min":0,"x_max":0,"o":""}," ":{"ha":467,"x_min":0,"x_max":0,"o":""}," ":{"ha":350,"x_min":0,"x_max":0,"o":""}," ":{"ha":233,"x_min":0,"x_max":0,"o":""}," ":{"ha":233,"x_min":0,"x_max":0,"o":""}," ":{"ha":175,"x_min":0,"x_max":0,"o":""}," ":{"ha":280,"x_min":0,"x_max":0,"o":""}," ":{"ha":77,"x_min":0,"x_max":0,"o":""},"‎":{"ha":0,"x_min":0,"x_max":0,"o":""},"‏":{"ha":0,"x_min":0,"x_max":0,"o":""},"‐":{"ha":789,"x_min":138,"x_max":651,"o":"m 138 429 l 651 429 l 651 328 l 138 328 l 138 429 z "},"‑":{"ha":789,"x_min":138,"x_max":651,"o":"m 138 429 l 651 429 l 651 328 l 138 328 l 138 429 z "},"‒":{"ha":789,"x_min":138,"x_max":651,"o":"m 138 429 l 651 429 l 651 328 l 138 328 l 138 429 z "},"–":{"ha":871,"x_min":111,"x_max":760,"o":"m 111 429 l 760 429 l 760 328 l 111 328 l 111 429 z "},"—":{"ha":912,"x_min":27,"x_max":885,"o":"m 27 429 l 885 429 l 885 328 l 27 328 l 27 429 z "},"‘":{"ha":378,"x_min":77,"x_max":289,"o":"m 289 991 l 230 795 l 268 663 q 219 635 239 643 q 178 628 199 628 q 119 642 141 628 q 86 680 96 656 q 78 732 76 703 q 92 790 79 761 q 113 836 99 809 q 141 890 126 862 q 172 944 157 918 q 198 991 186 971 l 289 991 z "},"’":{"ha":378,"x_min":77,"x_max":289,"o":"m 98 956 q 147 983 127 976 q 189 991 168 991 q 248 977 225 991 q 280 939 270 962 q 289 887 290 916 q 275 829 287 858 q 254 783 267 810 q 225 729 240 757 q 194 674 210 701 q 168 628 179 648 l 77 628 l 136 824 l 98 956 z "},"‚":{"ha":389,"x_min":88,"x_max":300,"o":"m 109 294 q 158 322 138 315 q 199 330 178 330 q 258 315 236 330 q 291 278 281 301 q 299 226 301 255 q 286 168 298 197 q 264 122 278 149 q 236 68 251 96 q 205 13 220 40 q 179 -33 190 -14 l 88 -33 l 147 163 l 109 294 z "},"“":{"ha":626,"x_min":65,"x_max":548,"o":"m 277 991 l 218 795 l 256 663 q 207 635 227 643 q 165 628 186 628 q 106 642 129 628 q 74 680 84 656 q 65 732 64 703 q 79 790 66 761 q 100 836 87 809 q 129 890 114 862 q 159 944 144 918 q 186 991 174 971 l 277 991 m 548 991 l 489 795 l 528 663 q 478 635 499 643 q 437 628 458 628 q 377 642 399 628 q 344 679 354 656 q 336 731 334 702 q 351 790 338 760 q 372 836 359 809 q 400 890 385 862 q 431 944 416 918 q 457 991 446 971 l 548 991 z "},"”":{"ha":626,"x_min":65,"x_max":548,"o":"m 85 956 q 135 983 114 976 q 176 991 155 991 q 236 977 214 991 q 269 940 259 962 q 277 888 279 917 q 262 829 275 859 q 241 783 254 810 q 213 729 228 757 q 182 674 197 701 q 156 628 167 648 l 65 628 l 124 824 l 85 956 m 357 956 q 406 983 386 976 q 448 991 427 991 q 507 977 484 991 q 539 939 529 962 q 548 887 549 916 q 534 829 547 858 q 513 783 526 810 q 484 729 499 757 q 453 674 469 701 q 427 628 438 648 l 336 628 l 395 824 l 357 956 z "},"„":{"ha":629,"x_min":71,"x_max":554,"o":"m 92 294 q 141 322 120 315 q 182 330 161 330 q 242 315 220 330 q 275 278 265 301 q 283 227 285 256 q 269 168 281 197 q 247 122 260 149 q 219 68 234 96 q 188 13 203 40 q 162 -33 173 -14 l 71 -33 l 130 163 l 92 294 m 363 294 q 412 322 392 315 q 454 330 433 330 q 513 315 490 330 q 545 278 535 301 q 554 226 555 255 q 541 168 553 197 q 519 122 532 149 q 490 68 505 96 q 459 13 475 40 q 433 -33 444 -14 l 342 -33 l 401 163 l 363 294 z "},"†":{"ha":407,"x_min":0,"x_max":0,"o":""},"‡":{"ha":407,"x_min":0,"x_max":0,"o":""},"•":{"ha":438,"x_min":98,"x_max":340,"o":"m 219 523 q 269 513 246 523 q 307 487 292 504 q 332 449 323 471 q 340 401 340 427 q 331 354 340 376 q 305 316 321 332 q 266 290 288 299 q 219 280 244 280 q 172 290 194 280 q 133 316 150 299 q 107 354 117 332 q 98 401 98 376 q 107 450 98 428 q 134 489 117 473 q 173 514 151 505 q 219 523 195 523 z "},"…":{"ha":1255,"x_min":136,"x_max":1118,"o":"m 219 152 q 253 145 237 152 q 279 128 268 139 q 296 101 290 117 q 302 69 302 86 q 295 37 302 52 q 278 11 289 22 q 251 -7 267 -1 q 219 -14 236 -14 q 187 -7 202 -14 q 160 11 172 -1 q 143 37 149 22 q 136 69 136 52 q 143 102 136 87 q 161 129 150 117 q 188 146 172 140 q 219 152 203 152 m 627 152 q 659 145 644 152 q 686 128 674 139 q 704 101 697 117 q 711 69 711 86 q 704 38 711 53 q 686 11 697 22 q 660 -7 675 0 q 627 -14 644 -14 q 596 -7 611 -14 q 570 11 581 -1 q 551 37 558 22 q 545 69 545 52 q 551 101 545 86 q 569 128 558 117 q 596 145 581 139 q 627 152 611 152 m 1036 152 q 1069 145 1054 152 q 1095 128 1084 139 q 1112 101 1106 117 q 1118 69 1118 86 q 1112 37 1118 52 q 1094 11 1105 22 q 1068 -7 1083 -1 q 1036 -14 1053 -14 q 1003 -7 1019 -14 q 977 11 988 -1 q 959 37 966 22 q 953 69 953 52 q 960 102 953 87 q 978 129 966 117 q 1004 146 989 140 q 1036 152 1019 152 z "}," ":{"ha":279,"x_min":0,"x_max":0,"o":""},"‰":{"ha":1222,"x_min":87,"x_max":1135,"o":"m 240 899 q 297 890 269 899 q 345 859 324 882 q 379 797 366 838 q 392 699 392 756 q 386 636 392 661 q 370 589 380 611 q 345 553 359 568 q 314 530 331 538 q 278 517 297 521 q 240 514 260 514 q 183 523 210 514 q 134 553 156 531 q 100 612 113 574 q 87 706 87 650 q 100 800 87 763 q 134 859 113 838 q 183 890 156 882 q 240 899 210 899 m 240 844 q 202 837 218 844 q 174 811 185 829 q 157 768 163 793 q 151 706 151 742 q 157 644 151 669 q 174 601 163 618 q 202 576 185 584 q 240 568 218 568 q 277 576 260 568 q 304 601 294 584 q 321 644 315 618 q 328 706 328 669 q 321 768 328 742 q 304 811 315 793 q 277 837 294 829 q 240 844 260 844 m 718 722 l 718 637 l 107 180 l 107 265 l 718 722 m 587 394 q 643 385 616 394 q 691 354 671 376 q 725 295 712 332 q 739 201 739 258 q 733 134 739 163 q 717 84 727 106 q 692 48 706 62 q 661 24 677 33 q 625 12 644 16 q 587 9 606 9 q 530 17 557 9 q 481 47 503 26 q 447 107 460 69 q 433 201 433 144 q 447 295 433 258 q 481 354 460 332 q 530 385 503 376 q 587 394 557 394 m 983 394 q 1040 385 1013 394 q 1088 354 1067 376 q 1122 295 1109 332 q 1135 201 1135 258 q 1129 134 1135 163 q 1114 84 1124 106 q 1088 48 1103 62 q 1057 24 1074 33 q 1022 12 1040 16 q 983 9 1003 9 q 926 17 954 9 q 878 47 899 26 q 843 107 857 69 q 830 201 830 144 q 843 295 830 258 q 878 354 857 332 q 926 385 899 376 q 983 394 954 394 m 587 339 q 548 331 565 339 q 521 306 532 323 q 504 262 510 288 q 498 201 498 237 q 504 139 498 164 q 521 96 510 113 q 548 71 532 79 q 587 62 565 62 q 624 71 607 62 q 651 96 640 79 q 668 139 662 113 q 674 201 674 164 q 668 262 674 237 q 651 306 662 288 q 624 331 640 323 q 587 339 607 339 m 983 339 q 945 331 962 339 q 918 306 928 323 q 901 262 907 288 q 895 201 895 237 q 901 139 895 164 q 918 96 907 113 q 945 71 928 79 q 983 62 962 62 q 1020 71 1004 62 q 1048 96 1037 79 q 1065 139 1059 113 q 1071 201 1071 164 q 1065 262 1071 237 q 1048 306 1059 288 q 1020 331 1037 323 q 983 339 1004 339 z "},"‹":{"ha":620,"x_min":115,"x_max":484,"o":"m 115 351 l 416 650 l 484 583 l 253 351 l 484 118 l 416 51 l 115 351 z "},"›":{"ha":620,"x_min":136,"x_max":505,"o":"m 136 583 l 204 650 l 505 351 l 204 51 l 136 118 l 367 351 l 136 583 z "},"⁄":{"ha":1135,"x_min":68,"x_max":1067,"o":"m 959 975 l 1067 975 l 176 0 l 68 0 l 959 975 z "}," ":{"ha":349,"x_min":0,"x_max":0,"o":""},"₪":{"ha":1140,"x_min":58,"x_max":1065,"o":"m 111 379 q 112 440 111 412 q 117 494 113 468 q 129 547 121 520 q 148 604 136 574 q 110 611 130 606 q 58 623 89 615 q 70 673 64 648 q 86 724 77 698 q 137 714 117 718 q 173 708 157 710 q 204 705 189 706 q 240 705 220 705 l 513 705 q 598 695 556 705 q 673 659 640 686 q 726 588 706 633 q 747 469 747 543 q 745 416 747 439 q 742 371 744 393 q 735 329 739 350 q 725 282 731 307 q 668 288 696 283 q 614 299 640 292 q 621 340 618 321 q 625 377 623 359 q 628 414 627 395 q 629 452 629 432 q 623 524 629 496 q 602 570 617 553 q 559 594 586 587 q 493 602 533 602 l 263 602 q 242 545 250 573 q 232 490 235 517 q 229 436 229 463 q 229 385 229 410 l 229 0 l 111 0 l 111 379 m 481 103 q 508 101 493 102 q 534 101 523 101 q 710 132 633 101 q 840 222 787 163 q 921 365 893 281 q 949 557 949 450 q 947 622 949 589 q 941 690 945 656 q 995 706 969 700 q 1053 717 1021 711 q 1062 636 1059 675 q 1065 557 1065 597 q 1027 315 1065 420 q 918 138 989 210 q 745 31 846 67 q 517 -5 644 -5 q 447 -4 484 -5 q 373 3 409 -2 l 373 427 l 481 427 l 481 103 z "},"€":{"ha":728,"x_min":81,"x_max":646,"o":"m 625 107 l 646 13 q 438 -16 526 -16 q 256 52 308 -16 q 210 252 210 113 l 210 300 l 81 300 l 81 399 l 209 399 l 209 561 l 81 561 l 81 660 l 209 660 l 209 708 q 255 908 209 848 q 437 977 307 977 q 646 947 525 977 l 625 853 q 460 876 522 876 q 348 840 372 876 q 333 797 336 823 q 330 724 330 772 l 330 660 l 509 660 l 509 561 l 331 561 l 331 399 l 509 399 l 509 300 l 331 300 l 331 236 q 334 163 331 189 q 349 121 337 138 q 460 85 372 85 q 625 107 522 85 z "},"™":{"ha":1108,"x_min":68,"x_max":1054,"o":"m 68 976 l 437 976 l 437 916 l 290 916 l 290 507 l 216 507 l 216 916 l 68 916 l 68 976 m 994 975 l 1054 507 l 982 507 l 934 861 l 810 500 l 810 500 l 720 500 l 720 502 l 719 500 l 594 861 l 547 507 l 475 507 l 534 975 l 623 975 l 764 568 l 905 975 l 994 975 z "},"":{"ha":722,"x_min":0,"x_max":722,"o":"m 0 722 l 722 722 l 722 0 l 0 0 l 0 722 z "},"ﬁ":{"ha":1045,"x_min":70,"x_max":937,"o":"m 306 705 l 918 705 l 918 0 l 801 0 l 801 607 l 306 607 l 306 98 l 532 98 l 532 0 l 70 0 l 70 98 l 188 98 l 188 607 l 70 607 l 70 705 l 188 705 l 188 782 q 197 869 188 832 q 231 937 207 905 q 300 984 254 968 q 413 1000 346 1000 q 621 970 500 1000 l 600 875 q 427 899 486 899 q 377 896 397 899 q 344 883 357 892 q 323 864 330 874 q 312 833 315 854 q 307 795 308 813 q 306 744 306 777 l 306 705 m 805 846 q 782 901 782 868 q 805 957 782 934 q 861 979 828 979 q 915 957 892 979 q 937 901 937 933 q 915 846 937 869 q 861 823 892 823 q 805 846 828 823 z "},"ﬂ":{"ha":1026,"x_min":70,"x_max":916,"o":"m 800 977 l 916 977 l 916 0 l 70 0 l 70 98 l 188 98 l 188 607 l 70 607 l 70 705 l 188 705 l 188 782 q 197 869 188 832 q 231 937 207 905 q 300 984 254 968 q 413 1000 346 1000 q 621 970 500 1000 l 600 875 q 427 899 486 899 q 377 896 397 899 q 344 883 357 892 q 323 864 330 874 q 312 833 315 854 q 307 795 308 813 q 306 744 306 777 l 306 705 l 532 705 l 532 607 l 306 607 l 306 98 l 800 98 l 800 977 z "},"שׁ":{"ha":971,"x_min":90,"x_max":895,"o":"m 819 926 q 864 908 846 926 q 882 865 882 890 q 864 820 882 838 q 819 802 846 802 q 776 820 793 802 q 758 865 758 839 q 776 908 758 890 q 819 926 793 926 m 136 372 q 128 480 130 436 q 122 557 125 524 q 111 617 118 590 q 90 676 104 645 q 140 701 114 690 q 192 721 166 711 q 213 674 205 696 q 227 625 222 651 q 236 564 233 598 q 243 484 239 530 l 271 104 q 318 102 296 102 q 519 138 433 102 q 663 237 606 173 q 748 388 720 300 q 776 581 776 476 q 774 639 776 610 q 768 696 772 667 q 825 710 797 704 q 884 720 852 715 q 892 660 889 691 q 895 595 895 629 q 854 334 895 446 q 736 146 813 221 q 550 33 660 71 q 302 -5 440 -5 q 235 -4 269 -5 q 165 3 201 -2 l 136 372 m 547 720 q 556 656 556 688 q 553 616 556 636 q 545 576 550 596 q 522 508 535 542 q 492 440 508 475 l 417 275 l 317 319 l 391 484 q 421 555 410 527 q 437 605 432 583 q 442 647 442 625 q 438 699 442 668 l 547 720 z "},"שׂ":{"ha":971,"x_min":-6,"x_max":895,"o":"m 55 926 q 99 908 81 926 q 117 865 117 890 q 99 820 117 838 q 55 802 81 802 q 12 820 29 802 q -6 865 -6 839 q 12 908 -6 890 q 55 926 29 926 m 136 372 q 128 480 130 436 q 122 557 125 524 q 111 617 118 590 q 90 676 104 645 q 140 701 114 690 q 192 721 166 711 q 213 674 205 696 q 227 625 222 651 q 236 564 233 598 q 243 484 239 530 l 271 104 q 318 102 296 102 q 519 138 433 102 q 663 237 606 173 q 748 388 720 300 q 776 581 776 476 q 774 639 776 610 q 768 696 772 667 q 825 710 797 704 q 884 720 852 715 q 892 660 889 691 q 895 595 895 629 q 854 334 895 446 q 736 146 813 221 q 550 33 660 71 q 302 -5 440 -5 q 235 -4 269 -5 q 165 3 201 -2 l 136 372 m 547 720 q 556 656 556 688 q 553 616 556 636 q 545 576 550 596 q 522 508 535 542 q 492 440 508 475 l 417 275 l 317 319 l 391 484 q 421 555 410 527 q 437 605 432 583 q 442 647 442 625 q 438 699 442 668 l 547 720 z "},"שּׁ":{"ha":971,"x_min":90,"x_max":895,"o":"m 819 926 q 864 908 846 926 q 882 865 882 890 q 864 820 882 838 q 819 802 846 802 q 776 820 793 802 q 758 865 758 839 q 776 908 758 890 q 819 926 793 926 m 136 372 q 128 480 130 436 q 122 557 125 524 q 111 617 118 590 q 90 676 104 645 q 140 701 114 690 q 192 721 166 711 q 213 674 205 696 q 227 625 222 651 q 236 564 233 598 q 243 484 239 530 l 271 104 q 318 102 296 102 q 519 138 433 102 q 663 237 606 173 q 748 388 720 300 q 776 581 776 476 q 774 639 776 610 q 768 696 772 667 q 825 710 797 704 q 884 720 852 715 q 892 660 889 691 q 895 595 895 629 q 854 334 895 446 q 736 146 813 221 q 550 33 660 71 q 302 -5 440 -5 q 235 -4 269 -5 q 165 3 201 -2 l 136 372 m 547 720 q 556 656 556 688 q 553 616 556 636 q 545 576 550 596 q 522 508 535 542 q 492 440 508 475 l 417 275 l 317 319 l 391 484 q 421 555 410 527 q 437 605 432 583 q 442 647 442 625 q 438 699 442 668 l 547 720 m 605 446 q 649 429 631 446 q 667 385 667 411 q 662 361 667 373 q 649 341 657 350 q 629 328 640 333 q 605 323 618 323 q 581 328 592 323 q 562 341 570 333 q 549 361 553 350 q 544 385 544 373 q 562 428 544 410 q 605 446 579 446 z "},"שּׂ":{"ha":971,"x_min":-6,"x_max":895,"o":"m 55 926 q 99 908 81 926 q 117 865 117 890 q 99 820 117 838 q 55 802 81 802 q 12 820 29 802 q -6 865 -6 839 q 12 908 -6 890 q 55 926 29 926 m 136 372 q 128 480 130 436 q 122 557 125 524 q 111 617 118 590 q 90 676 104 645 q 140 701 114 690 q 192 721 166 711 q 213 674 205 696 q 227 625 222 651 q 236 564 233 598 q 243 484 239 530 l 271 104 q 318 102 296 102 q 519 138 433 102 q 663 237 606 173 q 748 388 720 300 q 776 581 776 476 q 774 639 776 610 q 768 696 772 667 q 825 710 797 704 q 884 720 852 715 q 892 660 889 691 q 895 595 895 629 q 854 334 895 446 q 736 146 813 221 q 550 33 660 71 q 302 -5 440 -5 q 235 -4 269 -5 q 165 3 201 -2 l 136 372 m 547 720 q 556 656 556 688 q 553 616 556 636 q 545 576 550 596 q 522 508 535 542 q 492 440 508 475 l 417 275 l 317 319 l 391 484 q 421 555 410 527 q 437 605 432 583 q 442 647 442 625 q 438 699 442 668 l 547 720 m 605 446 q 649 429 631 446 q 667 385 667 411 q 662 361 667 373 q 649 341 657 350 q 629 328 640 333 q 605 323 618 323 q 581 328 592 323 q 562 341 570 333 q 549 361 553 350 q 544 385 544 373 q 562 428 544 410 q 605 446 579 446 z "},"אַ":{"ha":781,"x_min":79,"x_max":706,"o":"m 79 -6 q 80 37 79 13 q 80 90 80 62 q 81 148 81 118 q 83 208 82 178 q 90 298 84 258 q 108 370 96 338 q 137 431 119 403 q 178 486 154 458 q 137 547 154 519 q 111 598 121 575 q 92 646 100 622 q 79 692 85 671 q 132 712 104 703 q 189 728 161 721 q 194 712 192 720 q 199 696 197 704 q 215 652 206 674 q 237 605 223 631 q 271 548 250 579 q 323 477 292 517 q 344 451 334 463 q 369 423 355 439 q 404 383 383 407 q 458 321 425 359 l 461 317 q 501 355 486 335 q 528 397 517 374 q 548 446 539 420 q 565 502 556 472 q 579 555 572 528 q 593 608 587 582 l 494 627 l 513 722 l 703 689 l 706 602 q 688 530 699 569 q 668 458 677 492 q 644 385 656 416 q 617 328 632 353 q 582 281 602 303 q 530 237 561 260 l 692 46 l 610 -27 l 248 391 q 217 332 227 366 q 203 260 207 298 q 199 182 199 222 q 198 102 199 142 q 197 55 197 81 q 197 -6 197 30 l 79 -6 m 537 -103 l 537 -183 l 219 -183 l 219 -103 l 537 -103 z "},"אָ":{"ha":781,"x_min":79,"x_max":706,"o":"m 79 -6 q 80 37 79 13 q 80 90 80 62 q 81 148 81 118 q 83 208 82 178 q 90 298 84 258 q 108 370 96 338 q 137 431 119 403 q 178 486 154 458 q 137 547 154 519 q 111 598 121 575 q 92 646 100 622 q 79 692 85 671 q 132 712 104 703 q 189 728 161 721 q 194 712 192 720 q 199 696 197 704 q 215 652 206 674 q 237 605 223 631 q 271 548 250 579 q 323 477 292 517 q 344 451 334 463 q 369 423 355 439 q 404 383 383 407 q 458 321 425 359 l 461 317 q 501 355 486 335 q 528 397 517 374 q 548 446 539 420 q 565 502 556 472 q 579 555 572 528 q 593 608 587 582 l 494 627 l 513 722 l 703 689 l 706 602 q 688 530 699 569 q 668 458 677 492 q 644 385 656 416 q 617 328 632 353 q 582 281 602 303 q 530 237 561 260 l 692 46 l 610 -27 l 248 391 q 217 332 227 366 q 203 260 207 298 q 199 182 199 222 q 198 102 199 142 q 197 55 197 81 q 197 -6 197 30 l 79 -6 m 537 -103 l 537 -183 l 416 -183 l 430 -353 l 323 -353 l 337 -183 l 219 -183 l 219 -103 l 537 -103 z "},"אּ":{"ha":781,"x_min":79,"x_max":706,"o":"m 79 -6 q 80 37 79 13 q 80 90 80 62 q 81 148 81 118 q 83 208 82 178 q 90 298 84 258 q 108 370 96 338 q 137 431 119 403 q 178 486 154 458 q 137 547 154 519 q 111 598 121 575 q 92 646 100 622 q 79 692 85 671 q 132 712 104 703 q 189 728 161 721 q 194 712 192 720 q 199 696 197 704 q 215 652 206 674 q 237 605 223 631 q 271 548 250 579 q 323 477 292 517 q 344 451 334 463 q 369 423 355 439 q 404 383 383 407 q 458 321 425 359 l 461 317 q 501 355 486 335 q 528 397 517 374 q 548 446 539 420 q 565 502 556 472 q 579 555 572 528 q 593 608 587 582 l 494 627 l 513 722 l 703 689 l 706 602 q 688 530 699 569 q 668 458 677 492 q 644 385 656 416 q 617 328 632 353 q 582 281 602 303 q 530 237 561 260 l 692 46 l 610 -27 l 248 391 q 217 332 227 366 q 203 260 207 298 q 199 182 199 222 q 198 102 199 142 q 197 55 197 81 q 197 -6 197 30 l 79 -6 m 441 576 q 486 559 468 576 q 504 515 504 541 q 499 492 504 503 q 485 472 494 480 q 466 458 477 463 q 441 453 454 453 q 417 458 429 453 q 398 472 406 463 q 385 492 390 480 q 380 515 380 503 q 398 558 380 541 q 441 576 416 576 z "},"בּ":{"ha":760,"x_min":66,"x_max":709,"o":"m 301 602 q 248 602 271 602 q 202 606 224 603 q 157 614 180 608 q 109 630 135 620 q 126 679 117 654 q 143 729 134 703 q 193 715 172 720 q 236 708 215 711 q 279 705 256 706 q 332 705 302 705 l 352 705 q 436 695 395 705 q 511 659 477 686 q 564 588 543 633 q 584 469 584 543 l 584 103 l 709 103 l 709 0 l 66 0 l 66 103 l 467 103 l 467 452 q 460 523 467 494 q 439 569 454 552 q 397 594 424 587 q 330 602 371 602 l 301 602 m 269 416 q 313 398 295 416 q 331 355 331 380 q 326 331 331 342 q 312 311 321 319 q 293 297 304 302 q 269 292 281 292 q 244 297 256 292 q 225 311 233 302 q 212 331 217 319 q 208 355 208 342 q 225 398 208 380 q 269 416 243 416 z "},"גּ":{"ha":565,"x_min":39,"x_max":515,"o":"m 416 705 l 416 340 q 426 278 416 308 q 447 218 435 249 q 484 112 467 165 q 515 0 501 58 l 406 0 q 385 74 397 35 q 359 148 373 113 l 342 191 q 306 149 321 166 q 280 119 292 132 q 259 96 269 106 q 237 74 249 85 q 159 14 201 37 q 62 -18 117 -10 q 50 34 56 7 q 39 85 44 60 q 81 98 62 92 q 117 113 100 104 q 150 135 134 122 q 181 165 165 147 l 303 299 l 303 602 l 149 602 l 149 705 l 416 705 m 165 439 q 210 422 192 439 q 228 378 228 404 q 223 355 228 366 q 209 335 218 343 q 190 321 201 326 q 165 316 178 316 q 141 321 153 316 q 122 335 130 326 q 109 355 114 343 q 104 378 104 366 q 122 421 104 404 q 165 439 140 439 z "},"דּ":{"ha":739,"x_min":66,"x_max":677,"o":"m 258 602 q 205 602 229 602 q 159 606 181 603 q 115 614 137 608 q 66 630 92 620 q 83 679 75 654 q 100 729 92 703 q 151 715 129 720 q 193 708 172 711 q 236 705 214 706 q 290 705 259 705 l 677 705 l 677 602 l 541 602 l 541 0 l 423 0 l 423 602 l 258 602 m 260 416 q 305 398 287 416 q 323 355 323 380 q 318 331 323 342 q 304 311 313 319 q 284 297 296 302 q 260 292 273 292 q 236 297 248 292 q 217 311 225 302 q 204 331 209 319 q 199 355 199 342 q 217 398 199 380 q 260 416 235 416 z "},"הּ":{"ha":765,"x_min":96,"x_max":684,"o":"m 288 602 q 235 602 258 602 q 189 606 211 603 q 144 614 167 608 q 96 630 122 620 q 113 679 104 654 q 130 729 121 703 q 180 715 159 720 q 223 708 202 711 q 266 705 243 706 q 319 705 289 705 l 452 705 q 536 695 494 705 q 610 659 577 686 q 663 586 643 633 q 684 465 684 539 l 684 0 l 566 0 l 566 452 q 561 524 566 495 q 539 569 555 552 q 497 594 524 587 q 429 602 471 602 l 288 602 m 396 468 q 440 450 422 468 q 458 407 458 433 q 453 383 458 395 q 440 363 448 372 q 420 350 431 355 q 396 345 409 345 q 372 350 383 345 q 353 363 361 355 q 340 383 345 372 q 335 407 335 395 q 353 450 335 432 q 396 468 370 468 m 106 213 q 107 267 106 243 q 109 311 107 290 q 115 353 111 332 q 124 400 118 374 q 181 392 153 396 q 239 383 210 387 q 232 339 235 359 q 227 301 229 320 q 224 260 225 281 q 224 210 224 239 l 224 0 l 106 0 l 106 213 z "},"וּ":{"ha":444,"x_min":7,"x_max":325,"o":"m 325 705 l 325 0 l 208 0 l 208 602 l 89 602 l 89 705 l 325 705 m 68 416 q 112 398 94 416 q 130 355 130 380 q 125 331 130 342 q 112 311 120 319 q 92 297 103 302 q 68 292 81 292 q 44 297 55 292 q 24 311 33 302 q 12 331 16 319 q 7 355 7 342 q 24 398 7 380 q 68 416 42 416 z "}}}
